<?xml version="1.0" encoding="iso-8859-1"?>
<!-- Generator: Adobe Illustrator 15.1.0, SVG Export Plug-In . SVG Version: 6.00 Build 0)  -->
<!DOCTYPE svg PUBLIC "-//W3C//DTD SVG 1.1//EN" "http://www.w3.org/Graphics/SVG/1.1/DTD/svg11.dtd">
<svg version="1.1" id="Capa_1" xmlns="http://www.w3.org/2000/svg" xmlns:xlink="http://www.w3.org/1999/xlink" x="0px" y="0px"
	 width="358px" height="400px" viewBox="0 0 358 400" style="enable-background:new 0 0 358 400;" xml:space="preserve">
<g>
	<path style="fill:#B79F64;" d="M343.541,276.511c-7.713,0.021-13.962,6.246-14.176,13.993L170.08,338.057l-73.913-58.51
		L83.951,159.808l93.734-74.765l151.31,47.888c-0.034,0.413-0.06,0.828-0.059,1.25c0.02,7.951,6.41,14.381,14.27,14.359
		c7.861-0.021,14.219-6.484,14.199-14.436c-0.021-7.951-6.412-14.38-14.273-14.358c-1.616,0.004-3.163,0.294-4.609,0.8
		l-62.378-89.093c1.22-2.787,1.9-5.869,1.892-9.114C278.004,9.97,268.065-0.03,255.836,0.003
		c-12.228,0.033-22.113,10.086-22.082,22.455c0,0.018,0.001,0.035,0.001,0.054L85.82,41.461c-2.82-4.444-7.742-7.391-13.349-7.376
		c-8.734,0.023-15.797,7.203-15.773,16.038c0.017,6.218,3.545,11.585,8.674,14.219L13.04,197.694
		c-7.333,1.408-12.872,7.923-12.853,15.746c0.023,8.835,7.123,15.977,15.857,15.953c0.666-0.002,1.317-0.059,1.961-0.141
		l71.914,108.484c-5.305,4.104-8.723,10.576-8.704,17.854c0.033,12.367,9.971,22.367,22.199,22.336
		c8.423-0.021,15.735-4.8,19.459-11.813l86.559,18.688c0.417,8.48,7.335,15.218,15.815,15.195
		c8.734-0.023,15.798-7.203,15.772-16.037c-0.006-2.71-0.684-5.257-1.865-7.49l93.639-76.18c2.618,3.075,6.493,5.025,10.82,5.015
		c7.861-0.021,14.219-6.484,14.197-14.435C357.793,282.919,351.4,276.491,343.541,276.511z M166.354,339.169l-41.225,12.307
		c-1.893-10.453-10.951-18.364-21.83-18.338c-0.558,0.002-1.11,0.031-1.658,0.073l-5.024-49.244L166.354,339.169z M92.706,276.808
		l-65.657-51.975c2.949-2.914,4.782-6.978,4.77-11.477c-0.009-3.555-1.178-6.824-3.124-9.475l52.314-41.728L92.706,276.808z
		 M83.566,156.041l-9.19-90.083c5.721-0.68,10.503-4.438,12.683-9.597l86.97,27.524L83.566,156.041z M335.628,121.948
		c-2.826,1.792-4.989,4.55-6.02,7.825L180.693,82.643l57.947-46.22c4.071,5.117,10.315,8.39,17.313,8.371
		c7.76-0.021,14.573-4.082,18.511-10.206L335.628,121.948z M233.998,25.705c0.427,2.917,1.412,5.648,2.837,8.085l-59.798,47.696
		L88.005,53.308c0.214-1.056,0.327-2.148,0.324-3.269c-0.005-1.953-0.373-3.814-1.011-5.543L233.998,25.705z M71.202,66.012
		l9.423,92.375L26.56,201.511c-2.676-2.433-6.168-3.949-10.015-4.08l51.78-131.938C69.254,65.751,70.213,65.93,71.202,66.012z
		 M21.29,228.459c1.134-0.407,2.208-0.938,3.206-1.583l68.662,54.352l5.351,52.455c-2.111,0.478-4.107,1.258-5.943,2.296
		L21.29,228.459z M125.478,354.717l43.945-13.119l42.54,33.674c-1.204,1.865-2.021,4.001-2.367,6.295l-85.403-18.441
		c0.852-2.389,1.314-4.965,1.307-7.651C125.498,355.22,125.486,354.969,125.478,354.717z M237.391,373.802
		c-2.909-3.553-7.308-5.811-12.224-5.799c-4.396,0.012-8.366,1.839-11.225,4.774l-40.793-32.292l156.48-46.715
		c0.274,1.373,0.744,2.672,1.374,3.872L237.391,373.802z"/>
</g>
</svg>
