<?xml version="1.0" encoding="iso-8859-1"?>
<!-- Generator: Adobe Illustrator 15.1.0, SVG Export Plug-In . SVG Version: 6.00 Build 0)  -->
<!DOCTYPE svg PUBLIC "-//W3C//DTD SVG 1.1//EN" "http://www.w3.org/Graphics/SVG/1.1/DTD/svg11.dtd">
<svg version="1.1" id="Capa_1" xmlns="http://www.w3.org/2000/svg" xmlns:xlink="http://www.w3.org/1999/xlink" x="0px" y="0px"
	 width="358px" height="400px" viewBox="0 0 358 400" style="enable-background:new 0 0 358 400;" xml:space="preserve">
<g>
	<path style="fill:#9191A3;" d="M343.541,276.513c-7.715,0.021-13.963,6.246-14.176,13.992l-159.286,47.553l-73.913-58.51
		L83.95,159.809l93.733-74.766l151.311,47.889c-0.033,0.413-0.061,0.828-0.059,1.25c0.02,7.951,6.41,14.381,14.27,14.359
		c7.861-0.021,14.219-6.484,14.199-14.436c-0.021-7.951-6.412-14.379-14.273-14.357c-1.617,0.004-3.164,0.293-4.609,0.799
		l-62.379-89.093c1.221-2.787,1.9-5.87,1.893-9.115C278.004,9.97,268.064-0.03,255.836,0.003
		c-12.227,0.033-22.113,10.086-22.082,22.455c0,0.018,0.002,0.035,0.002,0.054L85.82,41.462c-2.82-4.444-7.742-7.392-13.35-7.377
		c-8.734,0.023-15.797,7.203-15.773,16.039c0.017,6.217,3.545,11.585,8.674,14.218L13.039,197.696
		c-7.333,1.408-12.871,7.924-12.852,15.746c0.023,8.836,7.123,15.977,15.857,15.953c0.666-0.002,1.317-0.059,1.961-0.141
		l71.913,108.482c-5.306,4.105-8.723,10.578-8.704,17.854c0.033,12.367,9.971,22.367,22.199,22.336
		c8.424-0.021,15.734-4.799,19.46-11.812l86.558,18.688c0.416,8.48,7.336,15.219,15.816,15.195
		c8.734-0.023,15.799-7.203,15.773-16.037c-0.008-2.709-0.686-5.256-1.865-7.49l93.637-76.178c2.619,3.076,6.494,5.025,10.822,5.016
		c7.861-0.021,14.219-6.484,14.197-14.436C357.793,282.921,351.4,276.493,343.541,276.513z M166.353,339.169l-41.224,12.307
		c-1.894-10.453-10.952-18.363-21.83-18.338c-0.559,0.002-1.109,0.031-1.658,0.074l-5.023-49.244L166.353,339.169z M92.705,276.81
		l-65.657-51.975c2.95-2.914,4.782-6.977,4.771-11.477c-0.01-3.555-1.178-6.824-3.123-9.475l52.313-41.729L92.705,276.81z
		 M83.566,156.042l-9.19-90.084c5.72-0.68,10.503-4.439,12.683-9.597l86.97,27.524L83.566,156.042z M335.627,121.949
		c-2.826,1.792-4.988,4.55-6.02,7.825L180.691,82.644l57.947-46.221c4.072,5.118,10.316,8.39,17.314,8.371
		c7.76-0.021,14.572-4.082,18.51-10.206L335.627,121.949z M233.996,25.705c0.428,2.917,1.412,5.648,2.838,8.085l-59.798,47.696
		L88.004,53.309c0.214-1.056,0.327-2.148,0.324-3.269c-0.005-1.953-0.373-3.815-1.012-5.544L233.996,25.705z M71.201,66.012
		l9.424,92.376L26.56,201.513c-2.676-2.434-6.168-3.949-10.015-4.08L68.324,65.493C69.254,65.751,70.213,65.93,71.201,66.012z
		 M21.289,228.46c1.134-0.406,2.208-0.938,3.205-1.582l68.662,54.352l5.352,52.453c-2.111,0.479-4.107,1.258-5.943,2.297
		L21.289,228.46z M125.477,354.718l43.945-13.119l42.539,33.674c-1.203,1.865-2.02,4-2.367,6.295l-85.402-18.441
		c0.852-2.389,1.313-4.965,1.307-7.652C125.497,355.22,125.486,354.97,125.477,354.718z M237.391,373.802
		c-2.91-3.553-7.309-5.811-12.225-5.799c-4.396,0.012-8.367,1.84-11.225,4.775l-40.793-32.291l156.48-46.715
		c0.273,1.373,0.744,2.672,1.373,3.871L237.391,373.802z"/>
</g>
</svg>
