<?xml version="1.0" encoding="iso-8859-1"?>
<!-- Generator: Adobe Illustrator 15.1.0, SVG Export Plug-In . SVG Version: 6.00 Build 0)  -->
<!DOCTYPE svg PUBLIC "-//W3C//DTD SVG 1.1//EN" "http://www.w3.org/Graphics/SVG/1.1/DTD/svg11.dtd">
<svg version="1.1" id="Capa_1" xmlns="http://www.w3.org/2000/svg" xmlns:xlink="http://www.w3.org/1999/xlink" x="0px" y="0px"
	 width="358px" height="400px" viewBox="0 0 358 400" style="enable-background:new 0 0 358 400;" xml:space="preserve">
<g>
	<path style="fill:#1E1E1C;" d="M343.541,276.511c-7.715,0.021-13.963,6.246-14.176,13.993l-159.286,47.553l-73.913-58.51
		L83.95,159.809l93.733-74.766l151.311,47.888c-0.033,0.413-0.061,0.828-0.059,1.25c0.02,7.951,6.41,14.381,14.27,14.359
		c7.861-0.021,14.219-6.484,14.199-14.436c-0.021-7.951-6.412-14.38-14.273-14.358c-1.617,0.004-3.162,0.294-4.609,0.8
		l-62.379-89.093c1.221-2.787,1.9-5.869,1.893-9.114C278.004,9.97,268.064-0.03,255.836,0.003
		c-12.227,0.033-22.113,10.086-22.082,22.455c0,0.018,0,0.035,0.002,0.054L85.82,41.461c-2.82-4.444-7.742-7.391-13.35-7.376
		c-8.734,0.023-15.797,7.203-15.773,16.038c0.017,6.218,3.545,11.585,8.675,14.219L13.04,197.694
		c-7.334,1.408-12.872,7.923-12.853,15.746c0.023,8.835,7.123,15.977,15.857,15.953c0.666-0.002,1.317-0.059,1.961-0.141
		l71.913,108.484c-5.305,4.104-8.723,10.576-8.704,17.854c0.033,12.367,9.971,22.367,22.199,22.336
		c8.424-0.021,15.735-4.8,19.46-11.813l86.558,18.688c0.416,8.48,7.336,15.218,15.816,15.195
		c8.734-0.023,15.799-7.203,15.773-16.037c-0.008-2.71-0.686-5.257-1.865-7.49l93.639-76.18c2.617,3.075,6.492,5.025,10.82,5.015
		c7.861-0.021,14.219-6.484,14.197-14.435C357.793,282.919,351.4,276.491,343.541,276.511z M166.354,339.169l-41.226,12.307
		c-1.893-10.453-10.951-18.364-21.829-18.338c-0.559,0.002-1.109,0.031-1.658,0.073l-5.023-49.244L166.354,339.169z M92.705,276.807
		l-65.656-51.974c2.949-2.914,4.781-6.978,4.77-11.477c-0.01-3.555-1.178-6.824-3.123-9.475l52.313-41.728L92.705,276.807z
		 M83.566,156.041l-9.19-90.083c5.72-0.68,10.502-4.438,12.683-9.597l86.97,27.524L83.566,156.041z M335.627,121.948
		c-2.826,1.792-4.988,4.55-6.02,7.825L180.693,82.643l57.945-46.22c4.072,5.117,10.316,8.39,17.314,8.371
		c7.76-0.021,14.572-4.082,18.51-10.206L335.627,121.948z M233.996,25.705c0.428,2.917,1.412,5.648,2.838,8.084l-59.797,47.697
		L88.004,53.308c0.214-1.056,0.327-2.148,0.324-3.269c-0.005-1.953-0.373-3.814-1.011-5.543L233.996,25.705z M71.201,66.012
		l9.424,92.375L26.56,201.511c-2.675-2.433-6.168-3.949-10.015-4.08l51.78-131.938C69.254,65.751,70.213,65.93,71.201,66.012z
		 M21.289,228.459c1.135-0.407,2.208-0.938,3.206-1.583l68.661,54.352l5.352,52.455c-2.111,0.478-4.107,1.258-5.943,2.296
		L21.289,228.459z M125.478,354.717l43.944-13.119l42.539,33.674c-1.203,1.865-2.02,4.001-2.367,6.295l-85.402-18.441
		c0.852-2.389,1.313-4.965,1.307-7.651C125.497,355.22,125.486,354.969,125.478,354.717z M237.391,373.801
		c-2.91-3.552-7.309-5.81-12.225-5.798c-4.396,0.012-8.367,1.839-11.225,4.774l-40.793-32.292l156.48-46.715
		c0.273,1.373,0.744,2.672,1.373,3.872L237.391,373.801z"/>
</g>
</svg>
