<svg height="511pt" viewBox="-30 1 511 511.9999" width="511pt" xmlns="http://www.w3.org/2000/svg"><path d="m354.527344 31.542969c-33.105469 0-60.035156 26.933593-60.035156 60.039062 0 33.101563 26.933593 60.035157 60.035156 60.035157 33.101562 0 60.035156-26.933594 60.035156-60.035157 0-33.105469-26.933594-60.039062-60.035156-60.039062zm0 104.839843c-24.703125 0-44.800782-20.097656-44.800782-44.800781 0-24.707031 20.097657-44.804687 44.800782-44.804687s44.800781 20.097656 44.800781 44.804687c0 24.703125-20.097656 44.800781-44.800781 44.800781zm0 0"/><path d="m450.726562 286.964844c0-.027344.003907-.054688.003907-.078125 0-.03125-.003907-.058594-.003907-.085938-.011718-36.113281-8.773437-71.863281-25.332031-103.695312 14.414063-27.148438 22.023438-57.664063 22.023438-88.601563 0-1.691406-.023438-3.375-.066407-5.054687-.371093-14.171875-3.3125-27.253907-8.742187-38.878907-1.777344-3.808593-6.3125-5.457031-10.125-3.679687-3.808594 1.78125-5.457031 6.3125-3.679687 10.125 4.539062 9.71875 7 20.765625 7.316406 32.835937.042968 1.542969.0625 3.09375.0625 4.648438 0 58.667969-28.933594 112.453125-77.65625 144.832031-48.722656-32.378906-77.65625-86.164062-77.65625-144.832031 0-1.554688.019531-3.105469.0625-4.652344 1.117187-42.507812 27.480468-60.464844 43.097656-67.386718 28.722656-12.734376 64.625-8.003907 87.308594 11.496093 3.1875 2.742188 7.996094 2.382813 10.742187-.808593 2.742188-3.191407 2.378907-8-.8125-10.742188-27.410156-23.5625-68.96875-29.140625-103.414062-13.875-24.8125 11-41.78125 31.0625-48.699219 56.714844-12.972656-2.300782-26.238281-3.480469-39.546875-3.480469-60.128906 0-116.65625 23.417969-159.171875 65.9375-42.5 42.503906-65.914062 99.003906-65.933594 159.105469 0 .027344-.003906.050781-.003906.078125 0 .027343.003906.050781.003906.078125.019532 60.101562 23.433594 116.601562 65.929688 159.101562 42.511718 42.511719 99.035156 65.929688 159.15625 65.933594h.023437.027344c60.121094-.007812 116.640625-23.421875 159.148437-65.933594 42.503907-42.5 65.914063-99 65.9375-159.101562zm-299.222656-7.695313h-49.59375c.828125-39.421875 8.089844-76.914062 20.957032-109.128906 29.261718 15.03125 61.644531 23.496094 95.128906 24.617187v84.511719h-36.019532c-4.207031 0-7.617187 3.410157-7.617187 7.617188 0 4.203125 3.410156 7.617187 7.617187 7.617187h36.019532v84.507813c-33.484375 1.121093-65.867188 9.585937-95.128906 24.621093-12.867188-32.214843-20.128907-69.707031-20.960938-109.128906h49.597656c4.207032 0 7.617188-3.414062 7.617188-7.617187 0-4.207031-3.40625-7.617188-7.617188-7.617188zm66.496094-201.859375v102.105469c-31.363281-1.125-61.675781-9.167969-89.03125-23.378906 3.160156-6.652344 6.574219-13.039063 10.242188-19.109375 21.542968-35.65625 49.28125-56.542969 78.789062-59.617188zm15.234375 316.84375c31.359375 1.125 61.671875 9.167969 89.023437 23.382813-3.15625 6.652343-6.570312 13.035156-10.238281 19.105469-21.542969 35.652343-49.277343 56.535156-78.789062 59.613281v-102.101563zm0-15.242187v-84.507813h116.089844c-.832031 39.421875-8.09375 76.914063-20.960938 109.128906-29.261719-15.035156-61.644531-23.503906-95.128906-24.621093zm-15.234375 15.242187v102.101563c-29.511719-3.074219-57.246094-23.960938-78.789062-59.617188-3.667969-6.070312-7.082032-12.453125-10.238282-19.101562 27.351563-14.214844 57.664063-22.257813 89.027344-23.382813zm-91.828125 50.363282c10.335937 17.105468 22.078125 31.171874 34.824219 41.957031-27.085938-8.785157-51.777344-22.929688-72.8125-41.191407 8.671875-7.523437 17.871094-14.277343 27.511718-20.21875 3.242188 6.757813 6.734376 13.257813 10.476563 19.453126zm198.886719 0c3.742187-6.195313 7.234375-12.695313 10.476562-19.449219 9.636719 5.941406 18.839844 12.691406 27.507813 20.21875-21.03125 18.257812-45.726563 32.398437-72.808594 41.183593 12.746094-10.785156 24.488281-24.847656 34.824219-41.953124zm16.707031-33.511719c14.035156-34.421875 21.941406-74.527344 22.792969-116.601563h70.78125c-1.960938 54.695313-24.941406 104.128906-61.109375 140.429688-10.171875-8.957032-21.035157-16.925782-32.464844-23.828125zm74.34375-212.402344c11.648437 25.179687 18.21875 52.671875 19.230469 80.566406h-70.78125c-.1875-9.171875-.707032-18.304687-1.5625-27.285156 21.050781-14.027344 39.167968-32.226563 53.113281-53.28125zm-68.3125 54.40625c.832031 8.605469 1.339844 17.363281 1.527344 26.15625h-116.089844v-84.5c17.800781-.59375 35.378906-3.269531 52.433594-7.980469.132812.238282.253906.480469.390625.71875 14.957031 26.425782 36.269531 49.039063 61.738281 65.605469zm-69.152344-80.207031c-14.804687 3.851562-30.015625 6.074218-45.410156 6.625v-102.128906c9.726563 1.019531 19.300781 3.996093 28.601563 8.878906-.058594 1.050781-.105469 2.105468-.132813 3.171875-.042969 1.679687-.066406 3.363281-.066406 5.050781 0 27.121094 5.855469 53.914062 17.007812 78.402344zm-152.472656-43.753906c-3.746094 6.199218-7.234375 12.703124-10.480469 19.460937-9.644531-5.941406-18.847656-12.691406-27.519531-20.21875 21.039063-18.269531 45.738281-32.414063 72.828125-41.203125-12.746094 10.789062-24.492188 24.855469-34.828125 41.960938zm-49.1875 9.691406c10.175781 8.960937 21.042969 16.929687 32.476563 23.832031-14.03125 34.421875-21.9375 74.527344-22.789063 116.597656h-70.78125c1.960937-54.695312 24.9375-104.125 61.09375-140.429687zm-61.09375 155.664062h70.78125c.855469 42.074219 8.757813 82.175782 22.792969 116.601563-11.429688 6.902343-22.292969 14.871093-32.46875 23.828125-36.164063-36.300782-59.144532-85.734375-61.105469-140.429688zm0 0"/></svg>