<?xml version="1.0" encoding="iso-8859-1"?>
<!-- Generator: Adobe Illustrator 19.0.0, SVG Export Plug-In . SVG Version: 6.00 Build 0)  -->
<svg version="1.1" id="Layer_1" xmlns="http://www.w3.org/2000/svg" xmlns:xlink="http://www.w3.org/1999/xlink" x="0px" y="0px"
	 viewBox="0 0 512 512" style="enable-background:new 0 0 512 512;" xml:space="preserve">
<g>
	<g>
		<path d="M256,0c-39.933,0-72.421,33.437-72.421,74.537c0,30.395,18.383,58.162,45.819,69.327l19.766,35.258
			c1.387,2.472,4.001,4.004,6.836,4.004c2.836,0,5.449-1.532,6.836-4.004l19.765-35.258c3.387-1.378,6.692-3.035,9.836-4.93
			c3.707-2.234,4.901-7.05,2.668-10.757c-2.235-3.707-7.051-4.898-10.757-2.668c-2.604,1.569-5.35,2.929-8.159,4.04
			c-2.921,1.154-5.376,3.297-6.918,6.042L256,159.263l-13.272-23.674c-1.537-2.74-3.994-4.885-6.916-6.039
			c-21.867-8.644-36.559-30.752-36.559-55.012c0-32.459,25.457-58.864,56.747-58.864s56.747,26.406,56.747,58.863
			c0,12.355-3.942,24.723-11.099,34.828c-2.503,3.532-1.668,8.423,1.865,10.924c3.532,2.501,8.422,1.664,10.924-1.865
			c9.148-12.913,13.983-28.089,13.983-43.887C328.421,33.437,295.933,0,256,0z"/>
	</g>
</g>
<g>
	<g>
		<path d="M281.533,66.7c-4.329,0-7.837,3.508-7.837,7.837c0,10.108-7.939,18.333-17.696,18.333
			c-9.757,0-17.695-8.224-17.695-18.333S246.243,56.205,256,56.205c3.307,0,6.534,0.956,9.33,2.765
			c3.636,2.352,8.486,1.31,10.837-2.325c2.35-3.635,1.309-8.487-2.325-10.837c-5.337-3.452-11.508-5.277-17.842-5.277
			c-18.4,0-33.369,15.255-33.369,34.005c0,18.751,14.969,34.006,33.369,34.006s33.37-15.255,33.37-34.006
			C289.37,70.208,285.862,66.7,281.533,66.7z"/>
	</g>
</g>
<g>
	<g>
		<path d="M377.214,247.74c-2.828-3.277-7.779-3.637-11.053-0.81c-3.277,2.83-3.638,7.777-0.81,11.053
			c3.045,3.525,5.898,7.188,8.567,10.963c-4.916,2.182-9.928,4.216-15.021,6.109c-5.11-12.666-11.512-24.447-19.122-35.017
			c-2.896-4.022-5.924-7.801-9.064-11.343c4.986,3.03,9.824,6.379,14.487,10.045c3.403,2.674,8.329,2.083,11.005-1.318
			c2.675-3.403,2.085-8.33-1.318-11.005c-28.433-22.352-62.627-34.167-98.886-34.167c-88.24-0.001-160.028,71.719-160.028,159.872
			C95.972,440.279,167.76,512,256.001,512c88.24,0,160.027-71.721,160.027-159.877C416.028,313.795,402.244,276.724,377.214,247.74z
			 M248.164,210.619v82.357c-11.004-0.276-21.907-1.136-32.644-2.554c2.521-15.908,6.025-30.541,10.443-43.226
			C232.379,228.772,240.291,215.912,248.164,210.619z M223.214,215.623c-10.735,17.542-18.493,43.435-23.082,72.352
			c-10.965-2.032-21.713-4.66-32.164-7.875C180.192,250.148,199.79,226.978,223.214,215.623z M195.292,344.287h-40.786
			c0.662-17.466,3.53-34.113,8.207-49.396c11.46,3.554,23.254,6.441,35.289,8.642C196.454,316.861,195.543,330.602,195.292,344.287z
			 M197.938,400.729c-12.012,2.201-23.784,5.083-35.224,8.632c-4.678-15.285-7.544-31.933-8.207-49.4h40.787v-0.001
			C195.538,373.918,196.429,387.607,197.938,400.729z M181.125,228.88c-3.082,3.489-6.053,7.208-8.898,11.159
			c-7.61,10.568-14.012,22.35-19.121,35.017c-5.078-1.888-10.074-3.916-14.975-6.089
			C149.555,252.855,164.199,239.177,181.125,228.88z M129.696,282.371c5.929,2.687,11.99,5.176,18.165,7.466
			c-5.288,17.106-8.374,35.48-9.039,54.45h-26.959C113.065,321.925,119.397,300.904,129.696,282.371z M111.861,359.96h26.959
			c0.666,18.971,3.751,37.346,9.04,54.453c-6.174,2.288-12.235,4.777-18.163,7.466C119.398,403.345,113.065,382.324,111.861,359.96z
			 M138.131,435.284c4.901-2.173,9.896-4.202,14.974-6.089c5.108,12.666,11.511,24.448,19.12,35.016
			c2.845,3.951,5.817,7.672,8.899,11.162C164.202,465.074,149.556,451.395,138.131,435.284z M248.164,493.567
			c-6.953-4.735-14.027-15.38-19.943-30.414c-1.585-4.028-6.135-6.006-10.163-4.423c-4.028,1.586-6.008,6.136-4.423,10.163
			c3.11,7.9,6.353,14.41,9.644,19.768c-23.454-11.343-43.077-34.53-55.311-64.51c10.427-3.208,21.151-5.832,32.09-7.863
			c1.22,7.702,2.659,15.155,4.323,22.271c0.985,4.214,5.199,6.83,9.416,5.846c4.215-0.984,6.833-5.2,5.847-9.416
			c-1.58-6.756-2.947-13.839-4.109-21.164c10.731-1.418,21.629-2.277,32.628-2.552V493.567z M248.164,395.593
			c-11.703,0.279-23.304,1.183-34.731,2.695c-1.395-12.33-2.226-25.194-2.462-38.328h37.193V395.593z M248.165,344.287h-0.001
			h-37.199c0.235-13.196,1.074-26.049,2.46-38.326c11.429,1.511,23.035,2.417,34.741,2.695V344.287z M382.336,282.359
			c10.483,18.948,16.61,40.115,17.797,61.929h-26.95c-0.666-18.97-3.752-37.344-9.039-54.45
			C370.328,287.544,376.398,285.051,382.336,282.359z M357.495,344.287h-2.23c-4.329,0-7.837,3.508-7.837,7.837
			c0,4.329,3.508,7.837,7.837,7.837h2.23c-0.662,17.468-3.53,34.115-8.208,49.4c-11.461-3.554-23.256-6.442-35.29-8.644
			c1.547-13.329,2.459-27.071,2.71-40.756h9.301c4.329,0,7.837-3.508,7.837-7.837s-3.508-7.837-7.837-7.837h-9.301
			c-0.252-13.685-1.162-27.425-2.71-40.754c12.035-2.202,23.831-5.089,35.291-8.642C353.966,310.174,356.833,326.82,357.495,344.287
			z M344.034,280.101c-10.452,3.215-21.2,5.843-32.166,7.875c-4.589-28.918-12.344-54.811-23.081-72.353
			C312.212,226.977,331.81,250.146,344.034,280.101z M286.038,247.196c4.418,12.686,7.921,27.319,10.442,43.226
			c-10.735,1.418-21.639,2.279-32.642,2.554V210.62C271.711,215.912,279.622,228.772,286.038,247.196z M263.838,308.657
			c11.705-0.279,23.31-1.184,34.739-2.695c1.383,12.278,2.224,25.13,2.459,38.326h-37.197V308.657z M263.838,359.96h37.197
			c-0.235,13.197-1.074,26.05-2.459,38.328c-11.43-1.511-23.034-2.417-34.739-2.695V359.96z M263.838,493.631v-82.358
			c11.003,0.276,21.905,1.136,32.642,2.554c-2.52,15.909-6.025,30.541-10.442,43.227
			C279.622,475.478,271.711,488.337,263.838,493.631z M288.786,488.628c10.735-17.542,18.493-43.435,23.082-72.354
			c10.966,2.032,21.714,4.66,32.166,7.876C331.81,454.103,312.211,477.274,288.786,488.628z M330.875,475.371
			c3.082-3.49,6.055-7.21,8.9-11.162c7.61-10.568,14.011-22.349,19.121-35.017c5.077,1.889,10.072,3.917,14.973,6.09
			C362.445,451.394,347.801,465.074,330.875,475.371z M364.143,414.413c5.288-17.107,8.375-35.483,9.04-54.453h26.957
			c-1.205,22.362-7.538,43.384-17.835,61.918C376.376,419.19,370.317,416.702,364.143,414.413z"/>
	</g>
</g>
<g>
</g>
<g>
</g>
<g>
</g>
<g>
</g>
<g>
</g>
<g>
</g>
<g>
</g>
<g>
</g>
<g>
</g>
<g>
</g>
<g>
</g>
<g>
</g>
<g>
</g>
<g>
</g>
<g>
</g>
</svg>
