<svg height="511pt" viewBox="0 0 511.99949 511" width="511pt" xmlns="http://www.w3.org/2000/svg"><path d="m255.796875.5h-.019531c-.007813 0-.019532 0-.027344 0-.019531 0-.042969 0-.0625 0s-.042969 0-.0625 0c-.007812 0-.015625 0-.023438 0-.003906 0-.011718 0-.015624 0-138.398438.054688-252.105469 110.160156-255.5039068 249.289062-4.9648432 204.195313 218.3476568 329.457032 389.1953128 224.421876l30.265625 30.269531c4.8125 4.808593 11.222656 7.371093 17.832031 7.371093 6.476562 0 12.929688-2.46875 17.835938-7.375l14.589843-14.589843c9.9375-9.9375 9.769531-25.894531 0-35.667969l-25.476562-25.476562c151.585937-165.597657 31.027343-428.148438-188.527344-428.242188zm205.769531 380.472656c-15.976562-6.753906-35.269531-12.621094-57.210937-17.429687 9.207031-31.222657 14.320312-65.171875 14.964843-99.871094h76.941407c-1.285157 41.796875-13.1875 81.929687-34.695313 117.300781zm-411.644531-249.542968c16.039063 6.769531 35.332031 12.605468 57.027344 17.371093-9.152344 31.015625-14.261719 64.859375-14.898438 99.890625h-76.9375c1.320313-41.789062 13.222657-81.785156 34.808594-117.261718zm278.003906 21.292968c.414063 4.117188 4.09375 7.121094 8.203125 6.703125 18.84375-1.90625 36.820313-4.484375 53.566406-7.648437 8.980469 29.972656 14 62.824218 14.644532 96.914062h-28.128906c-16.242188-46.804687-59.765626-82.28125-113.03125-85.269531v-.113281c12.582031-.109375 25.210937-.492188 37.644531-1.164063 4.128906-.226562 7.296875-3.757812 7.074219-7.886719-.222657-4.132812-3.746094-7.300781-7.886719-7.074218-12.164063.65625-24.519531 1.03125-36.832031 1.144531v-132.542969c36.277343 2.9375 70.355468 27.136719 96.636718 68.898438 10.007813 15.894531 18.441406 33.636718 25.199219 52.738281-15.761719 2.917969-32.664063 5.304687-50.390625 7.097656-4.117188.414063-7.117188 4.089844-6.699219 8.203125zm-235.875 110.953125c.636719 35.027344 5.746094 68.871094 14.898438 99.882813-21.863281 4.796875-41.097657 10.640625-57.035157 17.367187-20.929687-34.402343-33.484374-74.433593-34.800781-117.25zm91.058594-237.003906c-34.089844 26.238281-57.640625 67.511719-71.582031 107.835937-20.179688-4.367187-38.199219-9.683593-53.285156-15.828124 30.597656-43.777344 74.582031-76.070313 124.867187-92.007813zm65.085937-10.886719v132.5625c-43.960937-.390625-85.800781-4.210937-121.855468-10.867187 20.175781-57.105469 61.9375-116.847657 121.855468-121.695313zm95.089844 345.382813c-66.882812 82.640625-199.71875 34.375-199.71875-70.609375 0-62.164063 50.210938-112.316406 112.3125-112.316406 95.070313 0 146.105469 110.339843 87.40625 182.925781zm7.699219 39.085937c-9.832031 9.832032-9.835937 25.832032 0 35.667969l1.980469 1.980469c-25.230469 35.421875-56.71875 55.960937-89.785156 58.664062v-78.875c28.785156-1.613281 55.773437-12.769531 77.292968-31.945312l12.507813 12.507812zm-292.746094-6.554687c14.832031-6.011719 32.945313-11.339844 53.320313-15.757813 14.007812 40.492188 37.425781 81.152344 70.804687 107.179688-48.511719-15.910156-92.550781-46.226563-124.125-91.421875zm189.957031 23.976562v78.902344c-59.886718-4.84375-101.613281-64.457031-121.828124-121.613281 9.664062-1.792969 19.730468-3.394532 30.132812-4.765625 22.742188 28.265625 55.746094 45.351562 91.695312 47.476562zm130.175782 45.632813c-16.085938 9.5625-33.03125 17.125-50.53125 22.640625 12.859375-9.820313 24.910156-22.328125 35.851562-37.324219zm-130.175782-299.980469v.109375c-53.148437 3.140625-96.480468 38.671875-112.644531 85.253906h-28.515625c.640625-34.074218 5.660156-66.917968 14.632813-96.882812 37.484375 7.066406 80.964843 11.117187 126.527343 11.519531zm-116.828124 100.347656c-6.628907 31.003907-1.710938 64.414063 15.460937 92.734375-8.675781 1.242188-17.066406 2.632813-25.15625 4.152344-8.972656-29.964844-13.992187-62.808594-14.636719-96.886719zm302.359374 154.46875c-5.453124-5.457031-28.898437-28.898437-32.480468-32.484375-1.015625-1.015625-2.105469-1.925781-3.25-2.742187.605468-1.667969 1.191406-3.351563 1.773437-5.039063 20.4375 4.410156 38.457031 9.734375 53.441407 15.839844-6.066407 8.699219-12.71875 16.984375-19.484376 24.425781zm-49.972656-39.867187c-6.675781-.09375-13.242187 2.453125-18.175781 7.382812l-2 2-12.507813-12.507812c1.398438-1.570313 2.769532-3.183594 4.15625-4.90625 10.320313 1.363281 20.230469 2.925781 29.710938 4.671875-.394531 1.117187-.777344 2.246093-1.183594 3.359375zm-18.851562-21.816406c17.042968-28.078126 22.199218-61.425782 15.492187-92.785157h23.945313c-.648438 33.734375-5.683594 66.679688-14.71875 96.875-7.953125-1.496093-16.199219-2.863281-24.71875-4.089843zm7.597656-279.757813c-13.054688-20.742187-27.996094-37.53125-44.238281-50.03125 51.070312 16.183594 94.808593 48.972656 124.867187 92-14.914062 6.058594-32.953125 11.378906-53.300781 15.785156-7.238281-20.933593-16.390625-40.375-27.328125-57.753906zm-10.921875 348.625c-3.917969-3.917969-4.042969-10.4375 0-14.480469 8.957031-8.957031 5.644531-5.644531 14.59375-14.59375 3.882813-3.886718 10.390625-4.085937 14.476563 0l9.394531 9.394532-29.070313 29.070312c-3.300781-3.296875-1.542968-1.539062-9.394531-9.390625zm57.746094-176.636719c-.636719-35.042968-5.75-68.898437-14.90625-99.921875 21.847656-4.800781 41.191406-10.652343 57.054687-17.335937 20.933594 34.402344 33.472656 74.441406 34.789063 117.257812zm25.292969 245.191406c-3.957032 3.957032-10.460938 4.019532-14.480469 0-5.371094-5.371093-42.75-42.75-48.570313-48.570312l29.070313-29.070312 48.570312 48.570312c4.003907 4 3.96875 10.511719 0 14.480469zm0 0"/><path d="m277.230469 261.09375-27.832031 27.832031-12.769532-12.769531c-8.023437-8.023438-21.082031-8.023438-29.109375 0-8.023437 8.027344-8.023437 21.082031 0 29.105469l27.324219 27.324219v.003906c8.042969 8.039062 21.0625 8.042968 29.105469-.003906l42.386719-42.382813c8.042968-8.046875 8.046874-21.0625 0-29.109375-8.023438-8.023438-21.082032-8.023438-29.105469 0zm18.511719 10.59375c2.183593 2.183594 2.183593 5.738281 0 7.921875l-42.386719 42.382813c-2.1875 2.191406-5.730469 2.191406-7.917969 0l-27.324219-27.324219c-2.183593-2.179688-2.183593-5.734375 0-7.917969 2.1875-2.1875 5.730469-2.1875 7.917969 0l18.066406 18.066406c2.925782 2.925782 7.667969 2.925782 10.597656 0l33.128907-33.125c2.183593-2.1875 5.734375-2.1875 7.917969-.003906zm0 0"/><path d="m184.257812 219.140625c-63.425781 63.425781-18.320312 172.371094 71.417969 172.371094 48.96875 0 90.273438-34.824219 99.222657-82.082031.773437-4.0625-1.898438-7.984376-5.964844-8.753907-4.050782-.761719-7.984375 1.898438-8.753906 5.96875-12.8125 67.65625-96.613282 93.453125-145.328126 44.738281-33.539062-33.539062-33.539062-88.113281 0-121.648437 48.785157-48.785156 132.535157-22.816406 145.324219 44.738281.773438 4.0625 4.6875 6.734375 8.757813 5.964844 4.0625-.769531 6.734375-4.6875 5.964844-8.753906-15.046876-79.464844-113.4375-109.746094-170.640626-52.542969zm0 0"/></svg>