<?xml version="1.0" encoding="iso-8859-1"?>
<!-- Generator: Adobe Illustrator 16.0.0, SVG Export Plug-In . SVG Version: 6.00 Build 0)  -->
<!DOCTYPE svg PUBLIC "-//W3C//DTD SVG 1.1//EN" "http://www.w3.org/Graphics/SVG/1.1/DTD/svg11.dtd">
<svg version="1.1" id="Capa_1" xmlns="http://www.w3.org/2000/svg" xmlns:xlink="http://www.w3.org/1999/xlink" x="0px" y="0px"
	 width="356.072px" height="356.072px" viewBox="0 0 356.072 356.072" style="enable-background:new 0 0 356.072 356.072;"
	 xml:space="preserve">
<g>
	<path style="fill:#030303;" d="M321.913,122.148l-14.495,14.492l-87.983-87.983l14.489-14.489L199.764,0.006l-92.117,92.128
		l34.16,34.16l14.492-14.493l21.734,21.734L0,311.569l44.503,44.497L222.54,178.037l21.733,21.733l-14.489,14.489l34.16,34.16
		l92.128-92.111L321.913,122.148z M141.807,109.729l-17.594-17.595l75.563-75.563l17.594,17.598l-6.215,6.209l-63.142,63.138
		L141.807,109.729z M44.512,339.513l-27.95-27.944l169.754-169.753l27.943,27.947L44.512,339.513z M230.825,169.762l-44.509-44.506
		l-21.731-21.734l46.582-46.579l87.977,87.98l-46.578,46.579L230.825,169.762z M263.944,231.86l-17.601-17.589l6.216-6.215
		l63.138-63.139l6.216-6.213l17.589,17.598L263.944,231.86z"/>
</g>
<g>
</g>
<g>
</g>
<g>
</g>
<g>
</g>
<g>
</g>
<g>
</g>
<g>
</g>
<g>
</g>
<g>
</g>
<g>
</g>
<g>
</g>
<g>
</g>
<g>
</g>
<g>
</g>
<g>
</g>
</svg>
