<svg height="503pt" viewBox="0 0 503.128 503" width="503pt" xmlns="http://www.w3.org/2000/svg"><path d="m65.347656 503.1875c.558594 0 1.125 0 1.6875-.019531 17.917969-.378907 34.882813-8.160157 46.855469-21.496094l174.835937-193.179687c28.703126 21.78125 59.847657 40.144531 92.804688 54.710937 5.9375 2.636719 12.855469 1.710937 17.894531-2.390625 36.433594-29.960938 69.863281-63.390625 99.828125-99.816406 4.101563-5.042969 5.027344-11.960938 2.390625-17.902344-5.328125-11.875-11.003906-23.253906-16.957031-34.265625l-.03125-.066406c-11.234375-20.867188-24.140625-40.789063-38.585938-59.578125 16.726563-20.289063 15.304688-49.964844-3.28125-68.566406-18.589843-18.601563-48.265624-20.039063-68.566406-3.328126-18.839844-14.507812-38.828125-27.460937-59.765625-38.730468l-.109375-.058594c-11.007812-5.949219-22.378906-11.621094-34.246094-16.945312-5.941406-2.644532-12.863281-1.722657-17.902343 2.386718-36.429688 29.960938-69.859375 63.390625-99.820313 99.820313-4.101562 5.039062-5.027344 11.957031-2.390625 17.898437 5.328125 11.871094 10.996094 23.25 16.957031 34.261719l.042969.082031c11.011719 20.453125 23.621094 40 37.714844 58.464844l-192.910156 174.597656c-.925781.765625-1.851563 1.675782-2.695313 2.515625-18.660156 18.714844-24.230468 46.816407-14.113281 71.234375 10.117187 24.414063 33.933594 40.34375 60.363281 40.367188zm129.597656-349.664062c37.011719-40.761719 76.355469-80.105469 117.125-117.113282 65.269532 35.777344 118.925782 89.5 154.617188 154.820313-36.996094 40.746093-76.335938 80.085937-117.125 117.117187-65.269531-35.777344-118.925781-89.503906-154.617188-154.824218zm193.824219 174.324218c-.113281.070313-.25.082032-.371093.035156-7.945313-3.5625-15.617188-7.324218-23.160157-11.179687 38.128907-34.855469 74.957031-71.679687 109.785157-109.777344 3.882812 7.621094 7.671874 15.371094 11.257812 23.40625-29.265625 35.585938-61.925781 68.246094-97.511719 97.515625zm42.050781-255.480468c11.632813 11.527343 13.46875 29.679687 4.375 43.304687-14.5-17.226563-30.453124-33.179687-47.679687-47.683594 13.644531-8.992187 31.734375-7.164062 43.304687 4.378907zm-157.59375-55.496094c7.949219 3.566406 15.617188 7.328125 23.167969 11.183594-38.117187 34.835937-74.949219 71.667968-109.792969 109.773437-3.878906-7.617187-7.667968-15.367187-11.253906-23.402344 29.308594-35.683593 62.097656-68.363281 97.878906-97.554687zm-242.257812 386.582031c.488281-.488281 1.015625-1.03125 1.816406-1.707031l13.210938-11.957032 15.539062 15.539063c3.289063 3.207031 8.546875 3.171875 11.796875-.074219 3.246094-3.25 3.28125-8.503906.074219-11.796875l-14.949219-14.945312 12.960938-11.730469 14.332031 14.335938c3.292969 3.195312 8.539062 3.152343 11.78125-.089844 3.242188-3.242188 3.28125-8.488282.089844-11.777344l-13.742188-13.746094 141.292969-127.878906c15.242187 18.285156 32.109375 35.152344 50.398437 50.394531l-41.597656 45.960938-21.328125-21.324219c-3.292969-3.183594-8.527343-3.136719-11.765625.101562-3.238281 3.238282-3.28125 8.472657-.101562 11.765626l21.914062 21.917968-11.734375 12.960938-22.527343-22.53125c-3.292969-3.207032-8.546876-3.171875-11.796876.074218-3.246093 3.25-3.28125 8.507813-.074218 11.796876l23.125 23.121093-98.238282 108.546875c-11.84375 13.09375-29.851562 18.742188-47.050781 14.75-17.199219-3.988281-30.886719-16.988281-35.75-33.960937-4.867187-16.972657-.148437-35.25 12.324219-47.746094zm0 0"/></svg>