<?xml version="1.0" encoding="iso-8859-1"?>
<!-- Generator: Adobe Illustrator 15.1.0, SVG Export Plug-In . SVG Version: 6.00 Build 0)  -->
<!DOCTYPE svg PUBLIC "-//W3C//DTD SVG 1.1//EN" "http://www.w3.org/Graphics/SVG/1.1/DTD/svg11.dtd">
<svg version="1.1" id="Capa_1" xmlns="http://www.w3.org/2000/svg" xmlns:xlink="http://www.w3.org/1999/xlink" x="0px" y="0px"
	 width="215px" height="70px" viewBox="0 0 215 70" style="enable-background:new 0 0 215 70;" xml:space="preserve">
<g>
	<path style="fill:#CDCCCC;" d="M26.965,58.287c-3.552,0-6.931-0.627-10.135-1.877c-3.206-1.251-6.067-3.038-8.582-5.364
		c-2.516-2.323-4.519-5.311-6.011-8.964C0.745,38.432,0,34.369,0,29.896c0-3.738,0.499-7.195,1.497-10.368
		c1-3.172,2.35-5.861,4.05-8.073c1.702-2.21,3.676-4.1,5.919-5.666c2.244-1.568,4.611-2.716,7.101-3.449
		c2.492-0.733,5.044-1.1,7.658-1.1c7.053,0,13.044,1.984,17.978,5.952L40.541,13.9c-4.095-2.905-8.607-4.358-13.539-4.358
		c-2.294,0-4.469,0.466-6.529,1.401c-2.059,0.937-3.877,2.25-5.456,3.942c-1.58,1.692-2.837,3.828-3.772,6.406
		c-0.938,2.577-1.405,5.407-1.405,8.489c0,6.092,1.675,10.981,5.03,14.67c3.352,3.689,7.594,5.533,12.724,5.533
		c5.401,0,10.358-1.855,14.87-5.572l3.144,7.621C40.38,56.201,34.166,58.287,26.965,58.287"/>
	<path style="fill:#CDCCCC;" d="M111.112,57.453l21.64-55.189h9.545l21.822,55.189h-10.616l-5.217-13.458h-21.749l-5.104,13.458
		H111.112z M130.052,35.014h14.426c-2.835-8.617-5.215-15.78-7.138-21.492C135.734,18.297,133.309,25.462,130.052,35.014"/>
	<path style="fill:#CDCCCC;" d="M199.72,70c-3.526,0-7.486-0.811-11.874-2.426l1.702-7.316c3.379,1.113,6.201,1.667,8.471,1.667
		c5.054,0,7.583-2.88,7.583-8.642V2.264H215v50.565c0,5.507-1.345,9.747-4.033,12.718C208.277,68.514,204.529,70,199.72,70"/>
	<g>
		<polygon style="fill:#CDCCCC;" points="92.141,0 91.514,0 65.143,0 62.212,0 61.375,0 61.375,11.581 65.143,11.581 65.143,3.859 
			91.514,3.859 91.514,11.581 95.281,11.581 95.281,0 		"/>
		<rect x="68.91" y="7.719" style="fill:#CDCCCC;" width="18.835" height="3.862"/>
		<polygon style="fill:#CDCCCC;" points="64.514,57.908 65.143,57.908 91.514,57.908 94.444,57.908 95.281,57.908 95.281,46.323 
			91.514,46.323 91.514,54.047 65.143,54.047 65.143,46.323 61.375,46.323 61.375,57.908 		"/>
		<rect x="68.91" y="46.325" style="fill:#CDCCCC;" width="18.835" height="3.86"/>
		<rect x="68.91" y="15.44" style="fill:#CDCCCC;" width="3.765" height="27.025"/>
		<rect x="76.443" y="15.44" style="fill:#CDCCCC;" width="3.767" height="27.025"/>
		<rect x="83.978" y="15.44" style="fill:#CDCCCC;" width="3.767" height="27.025"/>
	</g>
</g>
</svg>
