<?xml version="1.0" encoding="iso-8859-1"?>
<!-- Generator: Adobe Illustrator 15.1.0, SVG Export Plug-In . SVG Version: 6.00 Build 0)  -->
<!DOCTYPE svg PUBLIC "-//W3C//DTD SVG 1.1//EN" "http://www.w3.org/Graphics/SVG/1.1/DTD/svg11.dtd">
<svg version="1.1" id="Capa_1" xmlns="http://www.w3.org/2000/svg" xmlns:xlink="http://www.w3.org/1999/xlink" x="0px" y="0px"
	 width="215px" height="70px" viewBox="0 0 215 70" style="enable-background:new 0 0 215 70;" xml:space="preserve">
<g>
	<path style="fill:#72777D;" d="M26.965,58.289c-3.551,0-6.93-0.627-10.135-1.878c-3.206-1.25-6.067-3.039-8.582-5.364
		s-4.518-5.312-6.011-8.964C0.746,38.432,0,34.37,0,29.896c0-3.737,0.499-7.194,1.497-10.367c1-3.172,2.35-5.862,4.05-8.073
		c1.702-2.21,3.676-4.1,5.919-5.667c2.244-1.567,4.611-2.716,7.102-3.449c2.492-0.733,5.044-1.1,7.658-1.1
		c7.053,0,13.044,1.984,17.978,5.952l-3.662,6.709c-4.095-2.906-8.607-4.36-13.539-4.36c-2.294,0-4.47,0.467-6.529,1.402
		c-2.059,0.936-3.878,2.25-5.456,3.942c-1.58,1.694-2.837,3.829-3.773,6.407c-0.938,2.578-1.405,5.407-1.405,8.49
		c0,6.09,1.675,10.981,5.031,14.669c3.352,3.689,7.594,5.533,12.724,5.533c5.401,0,10.358-1.856,14.871-5.572l3.144,7.62
		C40.38,56.202,34.166,58.289,26.965,58.289"/>
	<path style="fill:#72777D;" d="M111.112,57.455l21.639-55.19h9.545l21.823,55.19h-10.616l-5.217-13.458h-21.749l-5.104,13.458
		H111.112z M130.052,35.015h14.425c-2.836-8.618-5.215-15.78-7.138-21.492C135.734,18.297,133.308,25.463,130.052,35.015"/>
	<path style="fill:#72777D;" d="M199.721,70c-3.526,0-7.485-0.81-11.874-2.426l1.702-7.315c3.379,1.113,6.201,1.667,8.472,1.667
		c5.054,0,7.583-2.88,7.583-8.641V2.264H215v50.565c0,5.508-1.345,9.748-4.033,12.717C208.278,68.514,204.53,70,199.721,70"/>
	<g>
		<polygon style="fill:#72777D;" points="92.141,0 91.514,0 65.143,0 62.212,0 61.376,0 61.376,11.582 65.143,11.582 65.143,3.86 
			91.514,3.86 91.514,11.582 95.281,11.582 95.281,0 		"/>
		<rect x="68.91" y="7.72" style="fill:#72777D;" width="18.835" height="3.862"/>
		<polygon style="fill:#72777D;" points="64.514,57.908 65.143,57.908 91.514,57.908 94.445,57.908 95.281,57.908 95.281,46.324 
			91.514,46.324 91.514,54.046 65.143,54.046 65.143,46.324 61.376,46.324 61.376,57.908 		"/>
		<rect x="68.91" y="46.326" style="fill:#72777D;" width="18.835" height="3.859"/>
		<rect x="68.91" y="15.441" style="fill:#72777D;" width="3.765" height="27.024"/>
		<rect x="76.444" y="15.441" style="fill:#72777D;" width="3.767" height="27.024"/>
		<rect x="83.978" y="15.441" style="fill:#72777D;" width="3.767" height="27.024"/>
	</g>
</g>
</svg>
