<?xml version="1.0" encoding="iso-8859-1"?>
<!-- Generator: Adobe Illustrator 15.1.0, SVG Export Plug-In . SVG Version: 6.00 Build 0)  -->
<!DOCTYPE svg PUBLIC "-//W3C//DTD SVG 1.1//EN" "http://www.w3.org/Graphics/SVG/1.1/DTD/svg11.dtd">
<svg version="1.1" id="Capa_1" xmlns="http://www.w3.org/2000/svg" xmlns:xlink="http://www.w3.org/1999/xlink" x="0px" y="0px"
	 width="215px" height="70px" viewBox="0 0 215 70" style="enable-background:new 0 0 215 70;" xml:space="preserve">
<g>
	<path style="fill:#565F7F;" d="M26.965,58.287c-3.551,0-6.93-0.627-10.135-1.877c-3.205-1.251-6.066-3.038-8.582-5.364
		c-2.516-2.323-4.518-5.311-6.01-8.964C0.745,38.432,0,34.369,0,29.896c0-3.738,0.499-7.194,1.496-10.368
		c1-3.172,2.351-5.861,4.051-8.073c1.702-2.21,3.676-4.1,5.92-5.667c2.242-1.567,4.611-2.715,7.101-3.449
		c2.492-0.733,5.044-1.099,7.658-1.099c7.054,0,13.044,1.984,17.978,5.952l-3.662,6.708c-4.096-2.906-8.607-4.359-13.539-4.359
		c-2.294,0-4.469,0.466-6.529,1.402c-2.059,0.936-3.877,2.249-5.455,3.942c-1.58,1.693-2.838,3.828-3.772,6.406
		c-0.938,2.578-1.405,5.407-1.405,8.49c0,6.091,1.675,10.981,5.03,14.669c3.353,3.689,7.595,5.533,12.724,5.533
		c5.401,0,10.358-1.855,14.871-5.572l3.144,7.621C40.38,56.201,34.166,58.287,26.965,58.287"/>
	<path style="fill:#565F7F;" d="M111.111,57.453l21.641-55.19h9.544l21.822,55.19h-10.616l-5.217-13.458h-21.748l-5.104,13.458
		H111.111z M130.052,35.014h14.426c-2.835-8.618-5.215-15.78-7.138-21.492C135.734,18.297,133.309,25.462,130.052,35.014"/>
	<path style="fill:#565F7F;" d="M199.721,70c-3.527,0-7.486-0.811-11.874-2.426l1.702-7.316c3.379,1.113,6.2,1.667,8.472,1.667
		c5.054,0,7.582-2.88,7.582-8.642V2.263H215v50.566c0,5.507-1.345,9.747-4.033,12.718C208.277,68.514,204.529,70,199.721,70"/>
	<g>
		<polygon style="fill:#565F7F;" points="92.141,0 91.514,0 65.143,0 62.212,0 61.375,0 61.375,11.581 65.143,11.581 65.143,3.859 
			91.514,3.859 91.514,11.581 95.281,11.581 95.281,0 		"/>
		<rect x="68.91" y="7.719" style="fill:#565F7F;" width="18.835" height="3.862"/>
		<polygon style="fill:#565F7F;" points="64.514,57.908 65.143,57.908 91.514,57.908 94.444,57.908 95.281,57.908 95.281,46.323 
			91.514,46.323 91.514,54.047 65.143,54.047 65.143,46.323 61.375,46.323 61.375,57.908 		"/>
		<rect x="68.91" y="46.325" style="fill:#565F7F;" width="18.835" height="3.86"/>
		<rect x="68.91" y="15.44" style="fill:#565F7F;" width="3.765" height="27.025"/>
		<rect x="76.443" y="15.44" style="fill:#565F7F;" width="3.768" height="27.025"/>
		<rect x="83.978" y="15.44" style="fill:#565F7F;" width="3.768" height="27.025"/>
	</g>
</g>
</svg>
