<?xml version="1.0" encoding="iso-8859-1"?>
<!-- Generator: Adobe Illustrator 15.1.0, SVG Export Plug-In . SVG Version: 6.00 Build 0)  -->
<!DOCTYPE svg PUBLIC "-//W3C//DTD SVG 1.1//EN" "http://www.w3.org/Graphics/SVG/1.1/DTD/svg11.dtd">
<svg version="1.1" id="Capa_1" xmlns="http://www.w3.org/2000/svg" xmlns:xlink="http://www.w3.org/1999/xlink" x="0px" y="0px"
	 width="215px" height="37px" viewBox="0 0 215 37" style="enable-background:new 0 0 215 37;" xml:space="preserve">
<g>
	<path style="fill:#9191A3;" d="M22.302,13.795c-0.663,0-1.292-0.112-1.884-0.337c-0.59-0.224-1.112-0.547-1.566-0.965
		c-0.456-0.42-0.816-0.959-1.081-1.619c-0.264-0.659-0.398-1.395-0.398-2.207c0-0.791,0.126-1.52,0.375-2.189
		c0.249-0.671,0.594-1.233,1.028-1.69c0.436-0.456,0.953-0.811,1.548-1.067c0.6-0.254,1.243-0.383,1.932-0.383
		c1.26,0,2.31,0.348,3.148,1.044L24.88,5.284c-0.738-0.551-1.58-0.828-2.529-0.828c-0.716,0-1.35,0.185-1.898,0.556
		c-0.55,0.369-0.973,0.87-1.263,1.505c-0.29,0.636-0.438,1.346-0.438,2.132c0,1.231,0.337,2.21,1.008,2.938
		c0.673,0.728,1.539,1.091,2.602,1.091c1.008,0,1.955-0.334,2.834-1.002l0.44,1.057C24.679,13.441,23.566,13.795,22.302,13.795"/>
	<polygon style="fill:#9191A3;" points="27.644,13.643 27.644,3.517 33.639,3.517 33.639,4.637 28.958,4.637 28.958,7.822 
		33.378,7.822 33.378,8.948 28.958,8.948 28.958,12.522 33.838,12.522 33.838,13.643 	"/>
	<polygon style="fill:#9191A3;" points="35.921,13.643 35.921,3.517 37.32,3.517 42.143,10.639 42.889,11.822 42.889,3.517 
		44.14,3.517 44.14,13.643 42.737,13.643 38.034,6.787 37.154,5.396 37.154,13.643 	"/>
	<polygon style="fill:#9191A3;" points="48.787,13.643 48.787,4.637 45.589,4.637 45.589,3.517 53.318,3.517 53.318,4.637 
		50.099,4.637 50.099,13.643 	"/>
	<path style="fill:#9191A3;" d="M54.782,13.643V3.517h3.204c0.413,0,0.783,0.023,1.109,0.067c0.325,0.045,0.637,0.128,0.937,0.248
		c0.3,0.119,0.55,0.276,0.746,0.474c0.197,0.199,0.355,0.458,0.471,0.777c0.117,0.319,0.176,0.696,0.176,1.126
		c0,0.635-0.16,1.166-0.481,1.594c-0.319,0.424-0.809,0.708-1.466,0.846c0.377,0.123,0.673,0.33,0.892,0.63
		c0.219,0.3,0.438,0.733,0.663,1.306l1.176,3.059h-1.403l-1.099-2.976c-0.158-0.427-0.3-0.74-0.43-0.939
		c-0.132-0.199-0.302-0.345-0.513-0.441c-0.211-0.093-0.501-0.143-0.872-0.143h-1.795v4.499H54.782z M56.09,8.023h1.862
		c0.665,0,1.182-0.132,1.547-0.398c0.367-0.266,0.55-0.716,0.55-1.339c0-0.255-0.025-0.478-0.079-0.663
		c-0.053-0.189-0.13-0.345-0.227-0.471c-0.101-0.125-0.231-0.226-0.393-0.3c-0.164-0.079-0.343-0.135-0.546-0.164
		c-0.203-0.035-0.44-0.052-0.714-0.052h-0.025h-0.024h-0.025H56.09V8.023z"/>
	<path style="fill:#9191A3;" d="M68.37,13.795c-1.515,0-2.705-0.47-3.572-1.41c-0.87-0.941-1.304-2.213-1.304-3.811
		c0-1.036,0.191-1.943,0.574-2.73c0.383-0.784,0.945-1.4,1.688-1.84c0.742-0.445,1.618-0.667,2.626-0.667
		c1.471,0,2.643,0.481,3.517,1.442c0.874,0.964,1.31,2.227,1.31,3.795c0,1.594-0.43,2.863-1.292,3.807
		C71.055,13.323,69.872,13.795,68.37,13.795 M68.354,12.677c1.119,0,1.969-0.365,2.551-1.095c0.584-0.729,0.874-1.736,0.874-3.008
		c0-1.247-0.292-2.247-0.878-2.992c-0.584-0.75-1.428-1.126-2.531-1.126c-1.101,0-1.955,0.378-2.562,1.13
		c-0.607,0.755-0.911,1.749-0.911,2.988c0,1.27,0.298,2.271,0.894,3.004C66.386,12.312,67.242,12.677,68.354,12.677"/>
	<path style="fill:#9191A3;" d="M79.423,13.643V3.517h2.464c1.931,0,3.411,0.416,4.433,1.247c1.022,0.828,1.535,2.106,1.535,3.83
		c0,1.613-0.476,2.86-1.424,3.735c-0.949,0.876-2.314,1.313-4.1,1.313H79.423z M80.737,12.522h1.665
		c1.337,0,2.349-0.341,3.034-1.023c0.687-0.685,1.028-1.655,1.028-2.905c0-1.35-0.365-2.346-1.095-2.99
		c-0.732-0.643-1.853-0.967-3.361-0.967h-1.271V12.522z"/>
	<polygon style="fill:#9191A3;" points="90.005,13.643 90.005,3.517 96.002,3.517 96.002,4.637 91.319,4.637 91.319,7.822 
		95.74,7.822 95.74,8.948 91.319,8.948 91.319,12.522 96.201,12.522 96.201,13.643 	"/>
	<rect x="102.492" y="3.517" style="fill:#9191A3;" width="1.312" height="10.126"/>
	<polygon style="fill:#9191A3;" points="106.521,13.643 106.521,3.517 107.917,3.517 112.743,10.639 113.486,11.822 113.486,3.517 
		114.737,3.517 114.737,13.643 113.334,13.643 108.633,6.787 107.751,5.396 107.751,13.643 	"/>
	<polygon style="fill:#9191A3;" points="117.506,13.643 117.506,3.517 118.905,3.517 123.73,10.639 124.474,11.822 124.474,3.517 
		125.725,3.517 125.725,13.643 124.322,13.643 119.619,6.787 118.74,5.396 118.74,13.643 	"/>
	<path style="fill:#9191A3;" d="M132.716,13.795c-1.511,0-2.703-0.47-3.573-1.41c-0.868-0.941-1.3-2.213-1.3-3.811
		c0-1.036,0.189-1.943,0.572-2.73c0.383-0.784,0.947-1.4,1.689-1.84c0.744-0.445,1.618-0.667,2.627-0.667
		c1.468,0,2.642,0.481,3.514,1.442c0.872,0.964,1.312,2.227,1.312,3.795c0,1.594-0.434,2.863-1.294,3.807
		C135.401,13.323,134.219,13.795,132.716,13.795 M132.704,12.677c1.117,0,1.965-0.365,2.549-1.095
		c0.58-0.729,0.872-1.736,0.872-3.008c0-1.247-0.292-2.247-0.878-2.992c-0.582-0.75-1.426-1.126-2.531-1.126
		c-1.099,0-1.953,0.378-2.561,1.13c-0.608,0.755-0.91,1.749-0.91,2.988c0,1.27,0.296,2.271,0.894,3.004
		C130.735,12.312,131.588,12.677,132.704,12.677"/>
	<path style="fill:#9191A3;" d="M142.247,13.643L138.49,3.517h1.466c0.083,0.232,0.501,1.435,1.261,3.605
		c0.757,2.168,1.337,3.814,1.736,4.936c0.395-1.131,0.971-2.771,1.73-4.916c0.758-2.147,1.186-3.353,1.282-3.625h1.381
		l-3.727,10.126H142.247z"/>
	<path style="fill:#9191A3;" d="M147.766,13.643l3.884-10.126h1.402l3.906,10.126h-1.436l-1.034-2.704h-4.283l-1.01,2.704H147.766z
		 M150.563,9.853h3.535c-0.582-1.663-1.17-3.312-1.76-4.943C151.743,6.562,151.151,8.213,150.563,9.853"/>
	<path style="fill:#9191A3;" d="M162.837,13.795c-0.665,0-1.294-0.112-1.884-0.337c-0.59-0.224-1.113-0.547-1.568-0.965
		c-0.452-0.42-0.812-0.959-1.079-1.619c-0.264-0.659-0.398-1.395-0.398-2.207c0-0.791,0.125-1.52,0.375-2.189
		c0.25-0.671,0.592-1.233,1.028-1.69c0.436-0.456,0.951-0.811,1.55-1.067c0.6-0.254,1.243-0.383,1.927-0.383
		c1.263,0,2.312,0.348,3.15,1.044l-0.522,0.903c-0.738-0.551-1.582-0.828-2.529-0.828c-0.716,0-1.347,0.185-1.899,0.556
		c-0.549,0.369-0.969,0.87-1.261,1.505c-0.292,0.636-0.436,1.346-0.436,2.132c0,1.231,0.335,2.21,1.008,2.938
		c0.67,0.728,1.537,1.091,2.602,1.091c1.008,0,1.951-0.334,2.831-1.002l0.442,1.057C165.215,13.441,164.104,13.795,162.837,13.795"
		/>
	<rect x="168.29" y="3.517" style="fill:#9191A3;" width="1.314" height="10.126"/>
	<path style="fill:#9191A3;" d="M176.542,13.795c-1.515,0-2.705-0.47-3.573-1.41c-0.87-0.941-1.304-2.213-1.304-3.811
		c0-1.036,0.191-1.943,0.574-2.73c0.383-0.784,0.945-1.4,1.689-1.84c0.742-0.445,1.618-0.667,2.625-0.667
		c1.474,0,2.644,0.481,3.52,1.442c0.872,0.964,1.308,2.227,1.308,3.795c0,1.594-0.43,2.863-1.292,3.807
		C179.227,13.323,178.043,13.795,176.542,13.795 M176.526,12.677c1.118,0,1.969-0.365,2.551-1.095
		c0.583-0.729,0.875-1.736,0.875-3.008c0-1.247-0.294-2.247-0.88-2.992c-0.583-0.75-1.428-1.126-2.531-1.126
		c-1.101,0-1.955,0.378-2.562,1.13c-0.607,0.755-0.912,1.749-0.912,2.988c0,1.27,0.298,2.271,0.894,3.004
		C174.558,12.312,175.414,12.677,176.526,12.677 M176.081,2.503L177.704,0h1.627l-2.192,2.503H176.081z"/>
	<polygon style="fill:#9191A3;" points="183.498,13.643 183.498,3.517 184.895,3.517 189.722,10.639 190.463,11.822 190.463,3.517 
		191.714,3.517 191.714,13.643 190.312,13.643 185.608,6.787 184.729,5.396 184.729,13.643 	"/>
	<path style="fill:#9191A3;" d="M0,34.733V24.609h2.88c0.507,0,0.945,0.02,1.317,0.063c0.373,0.041,0.732,0.12,1.077,0.242
		c0.343,0.12,0.622,0.282,0.836,0.483c0.211,0.201,0.381,0.47,0.507,0.801c0.126,0.335,0.189,0.729,0.189,1.184
		c0,0.511-0.083,0.946-0.249,1.308c-0.164,0.363-0.406,0.648-0.729,0.855c-0.324,0.21-0.705,0.361-1.141,0.456
		c-0.434,0.095-0.945,0.142-1.533,0.142H1.314v4.59H0z M1.314,29.025h1.823c0.793,0,1.379-0.12,1.76-0.36
		c0.38-0.243,0.572-0.667,0.572-1.274c0-0.227-0.025-0.428-0.071-0.602c-0.043-0.174-0.119-0.321-0.215-0.446
		c-0.101-0.12-0.215-0.225-0.345-0.306c-0.128-0.08-0.29-0.142-0.481-0.187c-0.189-0.044-0.389-0.075-0.598-0.095
		c-0.207-0.017-0.45-0.026-0.726-0.026H3.004H2.983H2.957H2.934H2.91H1.314V29.025z"/>
	<path style="fill:#9191A3;" d="M7.488,34.733l3.884-10.124h1.405l3.904,10.124h-1.438l-1.03-2.704H9.929L8.92,34.733H7.488z
		 M10.288,30.942h3.533c-0.582-1.664-1.168-3.312-1.76-4.944C11.465,27.655,10.874,29.302,10.288,30.942"/>
	<path style="fill:#9191A3;" d="M18.283,34.733V24.609h3.204c0.414,0,0.783,0.021,1.108,0.067c0.326,0.043,0.637,0.124,0.938,0.246
		c0.302,0.12,0.55,0.278,0.748,0.476s0.353,0.456,0.469,0.775c0.117,0.319,0.176,0.694,0.176,1.126c0,0.635-0.16,1.164-0.481,1.592
		c-0.319,0.426-0.809,0.71-1.464,0.85c0.377,0.121,0.673,0.33,0.89,0.628c0.217,0.3,0.44,0.733,0.663,1.304l1.176,3.061h-1.403
		l-1.101-2.978c-0.154-0.425-0.298-0.738-0.428-0.939c-0.132-0.197-0.302-0.345-0.513-0.441c-0.211-0.093-0.503-0.141-0.872-0.141
		h-1.797v4.499H18.283z M19.591,29.114h1.862c0.665,0,1.182-0.132,1.547-0.4c0.365-0.267,0.55-0.712,0.55-1.339
		c0-0.253-0.026-0.476-0.079-0.663c-0.053-0.189-0.128-0.345-0.227-0.47c-0.099-0.126-0.229-0.227-0.393-0.302
		c-0.162-0.074-0.343-0.132-0.546-0.163c-0.202-0.032-0.44-0.05-0.714-0.05h-0.025h-0.024h-0.025h-1.926V29.114z"/>
	<path style="fill:#9191A3;" d="M26.472,34.733l3.884-10.124h1.403l3.906,10.124h-1.436l-1.032-2.704h-4.285l-1.01,2.704H26.472z
		 M29.271,30.942h3.533c-0.582-1.664-1.168-3.312-1.76-4.944C30.449,27.655,29.857,29.302,29.271,30.942"/>
	<polygon style="fill:#9191A3;" points="41.366,34.733 41.366,24.609 47.361,24.609 47.361,25.729 42.678,25.729 42.678,28.911 
		47.101,28.911 47.101,30.041 42.678,30.041 42.678,33.615 47.56,33.615 47.56,34.733 	"/>
	<polygon style="fill:#9191A3;" points="49.643,34.733 49.643,24.609 50.957,24.609 50.957,33.615 55.613,33.615 55.613,34.733 	"/>
	<path style="fill:#9191A3;" d="M60.189,34.733l3.886-10.124h1.403l3.904,10.124h-1.436l-1.032-2.704h-4.283l-1.01,2.704H60.189z
		 M62.989,30.942h3.535c-0.584-1.664-1.17-3.312-1.762-4.944C64.167,27.655,63.575,29.302,62.989,30.942"/>
	<path style="fill:#9191A3;" d="M75.263,34.886c-0.667,0-1.294-0.11-1.884-0.34c-0.592-0.223-1.115-0.544-1.568-0.964
		c-0.454-0.418-0.814-0.959-1.079-1.615c-0.266-0.659-0.398-1.395-0.398-2.211c0-0.789,0.123-1.52,0.373-2.188
		c0.25-0.671,0.592-1.235,1.03-1.69c0.436-0.458,0.951-0.812,1.55-1.067c0.598-0.254,1.241-0.383,1.927-0.383
		c1.261,0,2.31,0.348,3.148,1.042l-0.522,0.905c-0.736-0.551-1.58-0.827-2.529-0.827c-0.716,0-1.347,0.186-1.897,0.553
		c-0.55,0.369-0.971,0.87-1.263,1.507c-0.292,0.633-0.436,1.344-0.436,2.134c0,1.229,0.337,2.207,1.008,2.936
		c0.67,0.728,1.539,1.091,2.602,1.091c1.008,0,1.951-0.336,2.833-1.004l0.44,1.057C77.638,34.53,76.527,34.886,75.263,34.886"/>
	<path style="fill:#9191A3;" d="M84.88,34.886c-0.665,0-1.292-0.11-1.884-0.34c-0.59-0.223-1.113-0.544-1.566-0.964
		c-0.456-0.418-0.815-0.959-1.079-1.615c-0.269-0.659-0.398-1.395-0.398-2.211c0-0.789,0.124-1.52,0.373-2.188
		c0.25-0.671,0.594-1.235,1.03-1.69c0.434-0.458,0.951-0.812,1.549-1.067c0.598-0.254,1.241-0.383,1.929-0.383
		c1.261,0,2.31,0.348,3.15,1.042l-0.523,0.905c-0.74-0.551-1.582-0.827-2.531-0.827c-0.716,0-1.349,0.186-1.898,0.553
		c-0.55,0.369-0.97,0.87-1.262,1.507c-0.29,0.633-0.436,1.344-0.436,2.134c0,1.229,0.335,2.207,1.006,2.936
		c0.671,0.728,1.541,1.091,2.602,1.091c1.01,0,1.955-0.336,2.835-1.004l0.44,1.057C87.257,34.53,86.145,34.886,84.88,34.886"/>
	<polygon style="fill:#9191A3;" points="90.224,34.733 90.224,24.609 96.219,24.609 96.219,25.729 91.536,25.729 91.536,28.911 
		95.958,28.911 95.958,30.041 91.536,30.041 91.536,33.615 96.418,33.615 96.418,34.733 	"/>
	<path style="fill:#9191A3;" d="M101.238,33.768c0.274,0,0.522-0.026,0.746-0.075c0.223-0.054,0.416-0.124,0.582-0.221
		c0.164-0.095,0.302-0.213,0.416-0.355c0.112-0.142,0.195-0.304,0.249-0.487c0.057-0.184,0.083-0.385,0.083-0.607
		c0-0.24-0.024-0.443-0.075-0.609c-0.051-0.164-0.146-0.319-0.29-0.47c-0.14-0.147-0.333-0.279-0.58-0.4
		c-0.245-0.116-0.57-0.238-0.973-0.364c-0.042-0.012-0.14-0.042-0.298-0.087c-0.158-0.044-0.265-0.075-0.316-0.093
		c-0.957-0.276-1.653-0.631-2.091-1.058c-0.44-0.426-0.657-1.041-0.657-1.842c0-0.572,0.146-1.06,0.439-1.47
		c0.294-0.406,0.687-0.708,1.18-0.905c0.491-0.195,1.06-0.296,1.701-0.296c1.351,0,2.381,0.354,3.087,1.058l-0.653,0.896
		c-0.235-0.23-0.551-0.428-0.949-0.59c-0.398-0.164-0.842-0.243-1.328-0.243c-0.631,0-1.136,0.127-1.515,0.383
		c-0.378,0.255-0.568,0.63-0.568,1.125c0,0.335,0.045,0.6,0.134,0.795c0.09,0.192,0.252,0.362,0.489,0.507
		c0.236,0.146,0.592,0.294,1.069,0.443c0.01,0.004,0.095,0.031,0.259,0.077c0.162,0.047,0.27,0.075,0.323,0.091
		c0.59,0.175,1.071,0.358,1.448,0.55c0.378,0.191,0.682,0.408,0.913,0.657c0.229,0.248,0.389,0.519,0.481,0.816
		c0.089,0.298,0.136,0.654,0.136,1.071c0,0.467-0.089,0.883-0.265,1.246c-0.177,0.365-0.422,0.661-0.732,0.888
		c-0.312,0.229-0.668,0.4-1.073,0.513c-0.403,0.118-0.843,0.176-1.32,0.176c-0.748,0-1.417-0.124-2.004-0.373
		c-0.59-0.246-1.02-0.503-1.29-0.768l0.584-0.96c0.294,0.238,0.678,0.461,1.156,0.667C100.216,33.661,100.715,33.768,101.238,33.768
		"/>
	<path style="fill:#9191A3;" d="M111.07,34.886c-1.511,0-2.705-0.47-3.573-1.412c-0.868-0.939-1.302-2.209-1.302-3.811
		c0-1.034,0.191-1.943,0.574-2.729c0.383-0.784,0.947-1.398,1.688-1.842c0.744-0.441,1.618-0.665,2.628-0.665
		c1.47,0,2.644,0.481,3.515,1.444c0.872,0.962,1.31,2.225,1.31,3.791c0,1.598-0.432,2.865-1.294,3.809
		C113.756,34.416,112.573,34.886,111.07,34.886 M111.056,33.768c1.119,0,1.969-0.365,2.553-1.095c0.58-0.732,0.872-1.734,0.872-3.01
		c0-1.245-0.292-2.245-0.878-2.992c-0.584-0.748-1.428-1.123-2.533-1.123c-1.101,0-1.953,0.377-2.561,1.131
		c-0.608,0.753-0.912,1.747-0.912,2.984c0,1.271,0.298,2.271,0.894,3.006C109.087,33.4,109.941,33.768,111.056,33.768"/>
	<path style="fill:#9191A3;" d="M120.951,34.733l3.884-10.124h1.402l3.904,10.124h-1.436l-1.032-2.704h-4.283l-1.01,2.704H120.951z
		 M123.748,30.942h3.535c-0.584-1.664-1.17-3.312-1.759-4.944C124.926,27.655,124.334,29.302,123.748,30.942"/>
	<polygon style="fill:#9191A3;" points="135.841,34.733 135.841,24.609 137.155,24.609 137.155,33.615 141.809,33.615 
		141.809,34.733 	"/>
	<path style="fill:#9191A3;" d="M142.29,34.733l3.886-10.124h1.403l3.904,10.124h-1.438l-1.03-2.704h-4.283l-1.012,2.704H142.29z
		 M145.089,30.942h3.535c-0.584-1.664-1.17-3.312-1.762-4.944C146.265,27.655,145.675,29.302,145.089,30.942"/>
	<path style="fill:#9191A3;" d="M157.369,37c-0.505,0-1.045-0.099-1.624-0.292l0.186-1.043c0.481,0.144,0.903,0.217,1.267,0.217
		c0.507,0,0.856-0.154,1.045-0.456c0.188-0.306,0.28-0.812,0.28-1.526v-9.29h1.313v9.284c0,1.069-0.207,1.854-0.619,2.357
		C158.805,36.749,158.19,37,157.369,37"/>
	<path style="fill:#9191A3;" d="M166.313,34.886c-2.632,0-3.947-1.35-3.947-4.048v-6.229h1.313v6.257
		c0,0.994,0.223,1.724,0.669,2.195c0.444,0.471,1.103,0.706,1.979,0.706c1.77,0,2.653-0.959,2.653-2.872v-6.286h1.306v6.215
		c0,0.617-0.073,1.168-0.219,1.651c-0.146,0.479-0.375,0.905-0.681,1.273c-0.306,0.369-0.72,0.651-1.237,0.845
		C167.631,34.791,167.02,34.886,166.313,34.886"/>
	<path style="fill:#9191A3;" d="M175.603,33.768c0.274,0,0.523-0.026,0.746-0.075c0.223-0.054,0.416-0.124,0.582-0.221
		c0.164-0.095,0.302-0.213,0.416-0.355c0.113-0.142,0.195-0.304,0.249-0.487c0.058-0.184,0.083-0.385,0.083-0.607
		c0-0.24-0.023-0.443-0.075-0.609c-0.052-0.164-0.146-0.319-0.29-0.47c-0.14-0.147-0.333-0.279-0.58-0.4
		c-0.245-0.116-0.57-0.238-0.973-0.364c-0.042-0.012-0.14-0.042-0.3-0.087c-0.158-0.044-0.262-0.075-0.313-0.093
		c-0.957-0.276-1.653-0.631-2.093-1.058c-0.438-0.426-0.655-1.041-0.655-1.842c0-0.572,0.146-1.06,0.44-1.47
		c0.294-0.406,0.687-0.708,1.178-0.905c0.493-0.195,1.061-0.296,1.702-0.296c1.352,0,2.381,0.354,3.087,1.058l-0.653,0.896
		c-0.235-0.23-0.55-0.428-0.949-0.59c-0.398-0.164-0.842-0.243-1.328-0.243c-0.631,0-1.138,0.127-1.515,0.383
		c-0.379,0.255-0.568,0.63-0.568,1.125c0,0.335,0.045,0.6,0.134,0.795c0.089,0.192,0.25,0.362,0.489,0.507
		c0.237,0.146,0.592,0.294,1.069,0.443c0.01,0.004,0.095,0.031,0.257,0.077c0.162,0.047,0.272,0.075,0.325,0.091
		c0.59,0.175,1.071,0.358,1.448,0.55c0.379,0.191,0.683,0.408,0.913,0.657c0.229,0.248,0.389,0.519,0.481,0.816
		c0.089,0.298,0.136,0.654,0.136,1.071c0,0.467-0.089,0.883-0.264,1.246c-0.178,0.365-0.422,0.661-0.732,0.888
		c-0.312,0.229-0.669,0.4-1.073,0.513c-0.402,0.118-0.842,0.176-1.32,0.176c-0.748,0-1.417-0.124-2.004-0.373
		c-0.59-0.246-1.02-0.503-1.29-0.768l0.584-0.96c0.294,0.238,0.679,0.461,1.156,0.667C174.579,33.661,175.08,33.768,175.603,33.768"
		/>
	<polygon style="fill:#9191A3;" points="183.089,34.733 183.089,25.729 179.894,25.729 179.894,24.609 187.621,24.609 
		187.621,25.729 184.405,25.729 184.405,34.733 	"/>
	<rect x="189.195" y="24.609" style="fill:#9191A3;" width="1.314" height="10.124"/>
	<path style="fill:#9191A3;" d="M197.502,34.886c-0.665,0-1.294-0.11-1.884-0.34c-0.59-0.223-1.113-0.544-1.568-0.964
		c-0.454-0.418-0.815-0.959-1.079-1.615c-0.264-0.659-0.398-1.395-0.398-2.211c0-0.789,0.124-1.52,0.375-2.188
		c0.249-0.671,0.592-1.235,1.027-1.69c0.436-0.458,0.951-0.812,1.551-1.067c0.598-0.254,1.241-0.383,1.927-0.383
		c1.265,0,2.314,0.348,3.152,1.042l-0.522,0.905c-0.738-0.551-1.584-0.827-2.531-0.827c-0.716,0-1.349,0.186-1.899,0.553
		c-0.549,0.369-0.971,0.87-1.261,1.507c-0.292,0.633-0.438,1.344-0.438,2.134c0,1.229,0.337,2.207,1.008,2.936
		c0.673,0.728,1.539,1.091,2.602,1.091c1.01,0,1.955-0.336,2.835-1.004l0.442,1.057C199.881,34.53,198.767,34.886,197.502,34.886"/>
	<rect x="202.957" y="24.609" style="fill:#9191A3;" width="1.312" height="10.124"/>
	<path style="fill:#9191A3;" d="M205.809,34.733l3.884-10.124h1.401L215,34.733h-1.436l-1.034-2.704h-4.281l-1.01,2.704H205.809z
		 M208.606,30.942h3.533c-0.582-1.664-1.17-3.312-1.758-4.944C209.786,27.655,209.194,29.302,208.606,30.942"/>
</g>
</svg>
