<?xml version="1.0" encoding="iso-8859-1"?>
<!-- Generator: Adobe Illustrator 15.1.0, SVG Export Plug-In . SVG Version: 6.00 Build 0)  -->
<!DOCTYPE svg PUBLIC "-//W3C//DTD SVG 1.1//EN" "http://www.w3.org/Graphics/SVG/1.1/DTD/svg11.dtd">
<svg version="1.1" id="Capa_1" xmlns="http://www.w3.org/2000/svg" xmlns:xlink="http://www.w3.org/1999/xlink" x="0px" y="0px"
	 width="215px" height="120px" viewBox="0 0 215 120" style="enable-background:new 0 0 215 120;" xml:space="preserve">
<g>
	<g>
		<path style="fill:#0D334F;" d="M23.681,96.779c-0.652,0-1.271-0.113-1.854-0.338c-0.58-0.223-1.095-0.547-1.541-0.965
			c-0.448-0.421-0.804-0.96-1.063-1.621c-0.26-0.659-0.392-1.396-0.392-2.208c0-0.792,0.124-1.521,0.368-2.191
			c0.245-0.671,0.584-1.233,1.012-1.691c0.429-0.456,0.938-0.812,1.523-1.067c0.59-0.255,1.223-0.383,1.899-0.383
			c1.24,0,2.273,0.347,3.098,1.044l-0.514,0.903c-0.727-0.55-1.555-0.828-2.488-0.828c-0.705,0-1.328,0.186-1.867,0.556
			c-0.542,0.369-0.957,0.871-1.242,1.507c-0.285,0.635-0.431,1.346-0.431,2.133c0,1.232,0.332,2.211,0.991,2.939
			c0.662,0.729,1.514,1.092,2.561,1.092c0.991,0,1.923-0.334,2.788-1.003l0.434,1.058C26.02,96.426,24.925,96.779,23.681,96.779"/>
		<polygon style="fill:#0D334F;" points="28.937,96.627 28.937,86.493 34.834,86.493 34.834,87.614 30.229,87.614 30.229,90.803 
			34.578,90.803 34.578,91.93 30.229,91.93 30.229,95.506 35.03,95.506 35.03,96.627 		"/>
		<polygon style="fill:#0D334F;" points="37.08,96.627 37.08,86.493 38.456,86.493 43.201,93.621 43.935,94.805 43.935,86.493 
			45.165,86.493 45.165,96.627 43.785,96.627 39.158,89.767 38.293,88.375 38.293,96.627 		"/>
		<polygon style="fill:#0D334F;" points="49.737,96.627 49.737,87.614 46.592,87.614 46.592,86.493 54.195,86.493 54.195,87.614 
			51.028,87.614 51.028,96.627 		"/>
		<path style="fill:#0D334F;" d="M55.636,96.627V86.493h3.151c0.406,0,0.771,0.024,1.091,0.067c0.32,0.046,0.627,0.129,0.922,0.249
			c0.295,0.118,0.542,0.276,0.734,0.474c0.193,0.199,0.349,0.458,0.464,0.777c0.114,0.32,0.172,0.697,0.172,1.127
			c0,0.636-0.157,1.167-0.473,1.595c-0.314,0.425-0.796,0.709-1.442,0.847c0.37,0.123,0.662,0.33,0.877,0.63
			c0.216,0.3,0.431,0.734,0.652,1.307l1.156,3.062h-1.38l-1.081-2.979c-0.155-0.427-0.295-0.74-0.423-0.939
			c-0.13-0.199-0.297-0.346-0.505-0.442c-0.207-0.093-0.492-0.142-0.857-0.142h-1.766v4.502H55.636z M56.923,91.004h1.832
			c0.653,0,1.162-0.133,1.521-0.399c0.36-0.266,0.541-0.716,0.541-1.34c0-0.255-0.025-0.478-0.077-0.663
			c-0.053-0.189-0.128-0.346-0.224-0.472c-0.099-0.124-0.227-0.225-0.386-0.3c-0.161-0.079-0.338-0.135-0.538-0.164
			c-0.199-0.035-0.433-0.052-0.702-0.052h-0.025h-0.023h-0.025h-1.894V91.004z"/>
		<path style="fill:#0D334F;" d="M69.004,96.779c-1.49,0-2.661-0.47-3.515-1.412c-0.856-0.941-1.283-2.214-1.283-3.812
			c0-1.036,0.188-1.944,0.564-2.732c0.377-0.785,0.93-1.401,1.662-1.841c0.729-0.446,1.591-0.667,2.583-0.667
			c1.447,0,2.601,0.481,3.46,1.442c0.86,0.965,1.289,2.229,1.289,3.798c0,1.595-0.423,2.865-1.271,3.809
			C71.646,96.307,70.48,96.779,69.004,96.779 M68.988,95.66c1.101,0,1.937-0.365,2.51-1.096c0.574-0.73,0.859-1.737,0.859-3.01
			c0-1.248-0.287-2.248-0.863-2.994c-0.575-0.75-1.405-1.127-2.49-1.127c-1.083,0-1.924,0.379-2.521,1.131
			c-0.598,0.756-0.896,1.75-0.896,2.99c0,1.271,0.293,2.273,0.879,3.006C67.052,95.295,67.894,95.66,68.988,95.66"/>
		<path style="fill:#0D334F;" d="M79.878,96.627V86.493h2.424c1.9,0,3.355,0.417,4.361,1.248c1.005,0.829,1.51,2.107,1.51,3.833
			c0,1.614-0.468,2.861-1.401,3.738c-0.934,0.876-2.276,1.314-4.033,1.314H79.878z M81.171,95.506h1.638
			c1.315,0,2.312-0.342,2.985-1.024c0.675-0.685,1.011-1.656,1.011-2.907c0-1.351-0.359-2.347-1.077-2.992
			c-0.72-0.644-1.822-0.968-3.307-0.968h-1.25V95.506z"/>
		<polygon style="fill:#0D334F;" points="90.288,96.627 90.288,86.493 96.188,86.493 96.188,87.614 91.581,87.614 91.581,90.803 
			95.931,90.803 95.931,91.93 91.581,91.93 91.581,95.506 96.385,95.506 96.385,96.627 		"/>
		<rect x="102.573" y="86.493" style="fill:#0D334F;" width="1.291" height="10.134"/>
		<polygon style="fill:#0D334F;" points="106.537,96.627 106.537,86.493 107.911,86.493 112.658,93.621 113.391,94.805 
			113.391,86.493 114.621,86.493 114.621,96.627 113.241,96.627 108.616,89.767 107.748,88.375 107.748,96.627 		"/>
		<polygon style="fill:#0D334F;" points="117.346,96.627 117.346,86.493 118.722,86.493 123.469,93.621 124.2,94.805 124.2,86.493 
			125.431,86.493 125.431,96.627 124.051,96.627 119.424,89.767 118.559,88.375 118.559,96.627 		"/>
		<path style="fill:#0D334F;" d="M132.309,96.779c-1.486,0-2.658-0.47-3.515-1.412c-0.854-0.941-1.278-2.214-1.278-3.812
			c0-1.036,0.186-1.944,0.562-2.732c0.377-0.785,0.932-1.401,1.661-1.841c0.731-0.446,1.592-0.667,2.585-0.667
			c1.444,0,2.599,0.481,3.457,1.442c0.857,0.965,1.29,2.229,1.29,3.798c0,1.595-0.427,2.865-1.272,3.809
			C134.95,96.307,133.788,96.779,132.309,96.779 M132.298,95.66c1.098,0,1.933-0.365,2.507-1.096c0.57-0.73,0.858-1.737,0.858-3.01
			c0-1.248-0.288-2.248-0.864-2.994c-0.572-0.75-1.403-1.127-2.49-1.127c-1.08,0-1.921,0.379-2.519,1.131
			c-0.598,0.756-0.895,1.75-0.895,2.99c0,1.271,0.291,2.273,0.879,3.006C130.36,95.295,131.199,95.66,132.298,95.66"/>
		<path style="fill:#0D334F;" d="M141.685,96.627l-3.695-10.134h1.442c0.082,0.233,0.493,1.436,1.24,3.608
			c0.745,2.169,1.315,3.817,1.708,4.938c0.388-1.131,0.955-2.773,1.702-4.919c0.745-2.149,1.166-3.355,1.262-3.628h1.358
			l-3.666,10.134H141.685z"/>
		<path style="fill:#0D334F;" d="M147.115,96.627l3.821-10.134h1.38l3.843,10.134h-1.413l-1.017-2.706h-4.214l-0.993,2.706H147.115z
			 M149.867,92.833h3.478c-0.572-1.663-1.15-3.313-1.73-4.946C151.028,89.541,150.445,91.193,149.867,92.833"/>
		<path style="fill:#0D334F;" d="M161.943,96.779c-0.654,0-1.273-0.113-1.854-0.338c-0.581-0.223-1.095-0.547-1.543-0.965
			c-0.445-0.421-0.8-0.96-1.062-1.621c-0.261-0.659-0.393-1.396-0.393-2.208c0-0.792,0.122-1.521,0.369-2.191
			c0.246-0.671,0.582-1.233,1.011-1.691c0.429-0.456,0.936-0.812,1.525-1.067c0.59-0.255,1.223-0.383,1.896-0.383
			c1.242,0,2.274,0.347,3.1,1.044l-0.515,0.903c-0.726-0.55-1.557-0.828-2.488-0.828c-0.704,0-1.325,0.186-1.869,0.556
			c-0.539,0.369-0.952,0.871-1.24,1.507c-0.287,0.635-0.429,1.346-0.429,2.133c0,1.232,0.33,2.211,0.992,2.939
			c0.659,0.729,1.512,1.092,2.56,1.092c0.992,0,1.92-0.334,2.785-1.003l0.435,1.058C164.281,96.426,163.188,96.779,161.943,96.779"
			/>
		<rect x="167.308" y="86.493" style="fill:#0D334F;" width="1.292" height="10.134"/>
		<path style="fill:#0D334F;" d="M175.426,96.779c-1.491,0-2.661-0.47-3.515-1.412c-0.856-0.941-1.283-2.214-1.283-3.812
			c0-1.036,0.188-1.944,0.564-2.732c0.377-0.785,0.93-1.401,1.661-1.841c0.73-0.446,1.592-0.667,2.584-0.667
			c1.449,0,2.601,0.481,3.462,1.442c0.858,0.965,1.287,2.229,1.287,3.798c0,1.595-0.424,2.865-1.271,3.809
			C178.066,96.307,176.902,96.779,175.426,96.779 M175.41,95.66c1.101,0,1.937-0.365,2.509-1.096c0.575-0.73,0.862-1.737,0.862-3.01
			c0-1.248-0.289-2.248-0.866-2.994c-0.574-0.75-1.404-1.127-2.489-1.127c-1.083,0-1.924,0.379-2.521,1.131
			c-0.598,0.756-0.896,1.75-0.896,2.99c0,1.271,0.293,2.273,0.879,3.006C173.473,95.295,174.315,95.66,175.41,95.66 M174.972,85.479
			l1.597-2.505h1.602l-2.156,2.505H174.972z"/>
		<polygon style="fill:#0D334F;" points="182.269,96.627 182.269,86.493 183.643,86.493 188.392,93.621 189.122,94.805 
			189.122,86.493 190.352,86.493 190.352,96.627 188.972,96.627 184.346,89.767 183.479,88.375 183.479,96.627 		"/>
		<path style="fill:#0D334F;" d="M1.74,117.732v-10.132h2.833c0.499,0,0.93,0.021,1.297,0.063c0.367,0.041,0.72,0.12,1.06,0.243
			c0.338,0.12,0.611,0.282,0.823,0.483c0.207,0.201,0.374,0.47,0.499,0.801c0.124,0.336,0.186,0.73,0.186,1.185
			c0,0.512-0.081,0.947-0.244,1.309c-0.161,0.363-0.399,0.649-0.718,0.856c-0.318,0.209-0.693,0.361-1.122,0.456
			c-0.427,0.095-0.93,0.143-1.508,0.143H3.033v4.593H1.74z M3.033,112.021h1.793c0.78,0,1.356-0.121,1.731-0.361
			c0.374-0.243,0.562-0.667,0.562-1.275c0-0.227-0.025-0.428-0.07-0.602c-0.042-0.174-0.116-0.322-0.211-0.446
			c-0.1-0.12-0.212-0.226-0.34-0.306c-0.126-0.081-0.285-0.143-0.474-0.188c-0.187-0.044-0.382-0.075-0.588-0.095
			c-0.204-0.017-0.442-0.026-0.715-0.026H4.696H4.675H4.649H4.626H4.603H3.033V112.021z"/>
		<path style="fill:#0D334F;" d="M9.107,117.732l3.821-10.132h1.382l3.841,10.132h-1.415l-1.013-2.706h-4.216l-0.991,2.706H9.107z
			 M11.861,113.938h3.476c-0.572-1.666-1.148-3.313-1.73-4.948C13.02,110.648,12.438,112.297,11.861,113.938"/>
		<path style="fill:#0D334F;" d="M19.728,117.732v-10.132h3.151c0.408,0,0.771,0.022,1.091,0.067
			c0.32,0.044,0.627,0.124,0.922,0.247c0.297,0.12,0.542,0.278,0.735,0.476c0.194,0.197,0.348,0.456,0.462,0.775
			c0.115,0.319,0.173,0.695,0.173,1.127c0,0.636-0.157,1.165-0.474,1.593c-0.314,0.427-0.795,0.711-1.439,0.851
			c0.37,0.121,0.661,0.33,0.875,0.628c0.214,0.3,0.433,0.734,0.652,1.305l1.156,3.063h-1.38l-1.083-2.98
			c-0.151-0.425-0.293-0.738-0.421-0.939c-0.13-0.197-0.297-0.346-0.505-0.442c-0.207-0.093-0.494-0.14-0.857-0.14h-1.769v4.502
			H19.728z M21.014,112.109h1.832c0.654,0,1.163-0.133,1.522-0.401c0.358-0.267,0.541-0.712,0.541-1.34
			c0-0.253-0.025-0.476-0.077-0.663c-0.053-0.189-0.127-0.346-0.224-0.47c-0.097-0.127-0.226-0.228-0.386-0.302
			c-0.159-0.075-0.338-0.133-0.538-0.164c-0.198-0.032-0.433-0.05-0.702-0.05h-0.025h-0.023h-0.025h-1.895V112.109z"/>
		<path style="fill:#0D334F;" d="M27.783,117.732l3.821-10.132h1.38l3.843,10.132h-1.412l-1.016-2.706h-4.215l-0.994,2.706H27.783z
			 M30.537,113.938h3.477c-0.573-1.666-1.149-3.313-1.731-4.948C31.696,110.648,31.114,112.297,30.537,113.938"/>
		<polygon style="fill:#0D334F;" points="42.437,117.732 42.437,107.601 48.335,107.601 48.335,108.722 43.728,108.722 
			43.728,111.905 48.078,111.905 48.078,113.036 43.728,113.036 43.728,116.613 48.53,116.613 48.53,117.732 		"/>
		<polygon style="fill:#0D334F;" points="50.58,117.732 50.58,107.601 51.872,107.601 51.872,116.613 56.453,116.613 
			56.453,117.732 		"/>
		<path style="fill:#0D334F;" d="M60.955,117.732l3.823-10.132h1.38l3.841,10.132h-1.412l-1.016-2.706h-4.213l-0.994,2.706H60.955z
			 M63.709,113.938h3.479c-0.575-1.666-1.151-3.313-1.733-4.948C64.868,110.648,64.286,112.297,63.709,113.938"/>
		<path style="fill:#0D334F;" d="M75.785,117.884c-0.656,0-1.273-0.11-1.854-0.339c-0.582-0.224-1.097-0.545-1.543-0.966
			c-0.446-0.418-0.802-0.959-1.062-1.616c-0.262-0.659-0.393-1.396-0.393-2.213c0-0.789,0.121-1.52,0.367-2.188
			c0.246-0.671,0.582-1.235,1.013-1.691c0.43-0.458,0.936-0.813,1.525-1.068c0.589-0.254,1.221-0.383,1.896-0.383
			c1.24,0,2.272,0.348,3.098,1.043l-0.515,0.905c-0.724-0.551-1.555-0.827-2.488-0.827c-0.704,0-1.325,0.186-1.866,0.553
			c-0.542,0.369-0.955,0.871-1.242,1.508c-0.287,0.634-0.429,1.345-0.429,2.136c0,1.229,0.331,2.209,0.991,2.938
			c0.66,0.728,1.514,1.091,2.56,1.091c0.992,0,1.92-0.335,2.787-1.004l0.433,1.058C78.122,117.529,77.029,117.884,75.785,117.884"/>
		<path style="fill:#0D334F;" d="M85.246,117.884c-0.654,0-1.271-0.11-1.854-0.339c-0.58-0.224-1.095-0.545-1.541-0.966
			c-0.448-0.418-0.802-0.959-1.062-1.616c-0.264-0.659-0.392-1.396-0.392-2.213c0-0.789,0.122-1.52,0.366-2.188
			c0.247-0.671,0.585-1.235,1.014-1.691c0.427-0.458,0.936-0.813,1.523-1.068c0.588-0.254,1.221-0.383,1.897-0.383
			c1.24,0,2.273,0.348,3.1,1.043l-0.514,0.905c-0.729-0.551-1.557-0.827-2.49-0.827c-0.705,0-1.328,0.186-1.867,0.553
			c-0.541,0.369-0.955,0.871-1.242,1.508c-0.285,0.634-0.429,1.345-0.429,2.136c0,1.229,0.33,2.209,0.989,2.938
			c0.66,0.728,1.517,1.091,2.561,1.091c0.993,0,1.923-0.335,2.789-1.004l0.433,1.058C87.585,117.529,86.49,117.884,85.246,117.884"
			/>
		<polygon style="fill:#0D334F;" points="90.504,117.732 90.504,107.601 96.402,107.601 96.402,108.722 91.795,108.722 
			91.795,111.905 96.146,111.905 96.146,113.036 91.795,113.036 91.795,116.613 96.598,116.613 96.598,117.732 		"/>
		<path style="fill:#0D334F;" d="M101.339,116.765c0.271,0,0.515-0.025,0.734-0.074c0.219-0.054,0.409-0.125,0.572-0.222
			c0.161-0.095,0.297-0.213,0.409-0.355c0.11-0.142,0.192-0.304,0.245-0.487c0.056-0.184,0.081-0.385,0.081-0.607
			c0-0.241-0.023-0.444-0.073-0.61c-0.051-0.164-0.145-0.319-0.286-0.47c-0.138-0.147-0.327-0.28-0.57-0.4
			c-0.24-0.116-0.561-0.239-0.957-0.365c-0.04-0.012-0.138-0.041-0.293-0.087c-0.155-0.043-0.26-0.075-0.311-0.093
			c-0.941-0.276-1.626-0.632-2.057-1.058c-0.433-0.427-0.646-1.042-0.646-1.844c0-0.572,0.144-1.06,0.433-1.471
			c0.289-0.406,0.676-0.708,1.161-0.905c0.482-0.196,1.042-0.297,1.673-0.297c1.329,0,2.342,0.354,3.037,1.059l-0.643,0.896
			c-0.23-0.23-0.541-0.428-0.934-0.59c-0.392-0.164-0.828-0.243-1.306-0.243c-0.621,0-1.118,0.127-1.491,0.383
			c-0.372,0.255-0.559,0.63-0.559,1.126c0,0.335,0.045,0.6,0.132,0.795c0.09,0.193,0.248,0.363,0.481,0.507
			c0.232,0.146,0.582,0.295,1.052,0.444c0.01,0.004,0.094,0.032,0.254,0.077c0.159,0.048,0.267,0.075,0.318,0.091
			c0.581,0.176,1.055,0.359,1.425,0.551c0.373,0.191,0.672,0.408,0.898,0.657c0.226,0.249,0.383,0.519,0.474,0.817
			c0.088,0.298,0.134,0.655,0.134,1.071c0,0.468-0.087,0.885-0.26,1.247c-0.175,0.365-0.415,0.662-0.72,0.889
			c-0.307,0.229-0.658,0.4-1.056,0.513c-0.396,0.119-0.829,0.176-1.299,0.176c-0.735,0-1.394-0.124-1.972-0.373
			c-0.58-0.246-1.004-0.503-1.27-0.768l0.574-0.961c0.289,0.238,0.668,0.462,1.138,0.667
			C100.334,116.658,100.825,116.765,101.339,116.765"/>
		<path style="fill:#0D334F;" d="M111.013,117.884c-1.486,0-2.661-0.47-3.516-1.413c-0.854-0.939-1.28-2.21-1.28-3.813
			c0-1.034,0.188-1.943,0.564-2.729c0.376-0.785,0.932-1.399,1.662-1.843c0.731-0.442,1.592-0.666,2.585-0.666
			c1.446,0,2.601,0.482,3.459,1.445c0.857,0.963,1.288,2.227,1.288,3.793c0,1.6-0.425,2.868-1.273,3.812
			C113.656,117.414,112.492,117.884,111.013,117.884 M110.999,116.765c1.101,0,1.938-0.365,2.512-1.095
			c0.57-0.732,0.857-1.735,0.857-3.013c0-1.245-0.287-2.246-0.863-2.994c-0.574-0.748-1.405-1.123-2.492-1.123
			c-1.083,0-1.921,0.377-2.519,1.131c-0.599,0.755-0.897,1.749-0.897,2.986c0,1.273,0.293,2.274,0.88,3.009
			C109.062,116.397,109.902,116.765,110.999,116.765"/>
		<path style="fill:#0D334F;" d="M120.734,117.732l3.821-10.132h1.38l3.841,10.132h-1.413l-1.015-2.706h-4.214l-0.993,2.706H120.734
			z M123.486,113.938h3.478c-0.574-1.666-1.15-3.313-1.73-4.948C124.645,110.648,124.062,112.297,123.486,113.938"/>
		<polygon style="fill:#0D334F;" points="135.383,117.732 135.383,107.601 136.676,107.601 136.676,116.613 141.254,116.613 
			141.254,117.732 		"/>
		<path style="fill:#0D334F;" d="M141.728,117.732l3.823-10.132h1.38l3.841,10.132h-1.415l-1.013-2.706h-4.214l-0.995,2.706H141.728
			z M144.481,113.938h3.479c-0.575-1.666-1.151-3.313-1.733-4.948C145.639,110.648,145.058,112.297,144.481,113.938"/>
		<path style="fill:#0D334F;" d="M156.563,120c-0.497,0-1.029-0.099-1.598-0.292l0.183-1.044c0.474,0.144,0.889,0.217,1.246,0.217
			c0.498,0,0.842-0.154,1.028-0.456c0.185-0.306,0.275-0.813,0.275-1.527v-9.297h1.293v9.291c0,1.069-0.204,1.855-0.609,2.358
			C157.976,119.749,157.37,120,156.563,120"/>
		<path style="fill:#0D334F;" d="M165.362,117.884c-2.589,0-3.883-1.35-3.883-4.05v-6.233h1.292v6.261
			c0,0.995,0.22,1.726,0.658,2.197c0.437,0.472,1.085,0.706,1.946,0.706c1.741,0,2.61-0.959,2.61-2.873v-6.291h1.285v6.22
			c0,0.617-0.072,1.168-0.216,1.652c-0.144,0.479-0.368,0.905-0.669,1.274s-0.709,0.651-1.218,0.845
			C166.659,117.789,166.058,117.884,165.362,117.884"/>
		<path style="fill:#0D334F;" d="M174.502,116.765c0.27,0,0.514-0.025,0.733-0.074c0.22-0.054,0.409-0.125,0.572-0.222
			c0.161-0.095,0.297-0.213,0.41-0.355c0.11-0.142,0.191-0.304,0.244-0.487c0.057-0.184,0.081-0.385,0.081-0.607
			c0-0.241-0.022-0.444-0.073-0.61c-0.051-0.164-0.144-0.319-0.285-0.47c-0.138-0.147-0.328-0.28-0.571-0.4
			c-0.24-0.116-0.561-0.239-0.956-0.365c-0.041-0.012-0.138-0.041-0.295-0.087c-0.155-0.043-0.259-0.075-0.309-0.093
			c-0.941-0.276-1.627-0.632-2.06-1.058c-0.431-0.427-0.645-1.042-0.645-1.844c0-0.572,0.144-1.06,0.433-1.471
			c0.29-0.406,0.676-0.708,1.159-0.905c0.485-0.196,1.044-0.297,1.675-0.297c1.329,0,2.343,0.354,3.037,1.059l-0.643,0.896
			c-0.23-0.23-0.541-0.428-0.934-0.59c-0.392-0.164-0.828-0.243-1.306-0.243c-0.621,0-1.12,0.127-1.49,0.383
			c-0.373,0.255-0.56,0.63-0.56,1.126c0,0.335,0.045,0.6,0.132,0.795c0.088,0.193,0.247,0.363,0.481,0.507
			c0.233,0.146,0.583,0.295,1.052,0.444c0.01,0.004,0.094,0.032,0.253,0.077c0.159,0.048,0.268,0.075,0.32,0.091
			c0.58,0.176,1.054,0.359,1.424,0.551c0.373,0.191,0.672,0.408,0.899,0.657c0.225,0.249,0.382,0.519,0.474,0.817
			c0.087,0.298,0.134,0.655,0.134,1.071c0,0.468-0.088,0.885-0.261,1.247c-0.175,0.365-0.415,0.662-0.72,0.889
			c-0.307,0.229-0.658,0.4-1.056,0.513c-0.396,0.119-0.829,0.176-1.299,0.176c-0.735,0-1.394-0.124-1.972-0.373
			c-0.58-0.246-1.003-0.503-1.27-0.768l0.575-0.961c0.289,0.238,0.667,0.462,1.137,0.667
			C173.494,116.658,173.987,116.765,174.502,116.765"/>
		<polygon style="fill:#0D334F;" points="181.867,117.732 181.867,108.722 178.723,108.722 178.723,107.601 186.325,107.601 
			186.325,108.722 183.161,108.722 183.161,117.732 		"/>
		<rect x="187.874" y="107.601" style="fill:#0D334F;" width="1.292" height="10.132"/>
		<path style="fill:#0D334F;" d="M196.046,117.884c-0.653,0-1.272-0.11-1.853-0.339c-0.581-0.224-1.095-0.545-1.543-0.966
			c-0.447-0.418-0.802-0.959-1.062-1.616c-0.26-0.659-0.392-1.396-0.392-2.213c0-0.789,0.122-1.52,0.369-2.188
			c0.244-0.671,0.582-1.235,1.011-1.691c0.429-0.458,0.936-0.813,1.525-1.068c0.588-0.254,1.221-0.383,1.896-0.383
			c1.244,0,2.276,0.348,3.102,1.043l-0.515,0.905c-0.726-0.551-1.559-0.827-2.49-0.827c-0.704,0-1.327,0.186-1.869,0.553
			c-0.539,0.369-0.954,0.871-1.24,1.508c-0.287,0.634-0.431,1.345-0.431,2.136c0,1.229,0.332,2.209,0.992,2.938
			c0.661,0.728,1.514,1.091,2.56,1.091c0.994,0,1.924-0.335,2.789-1.004l0.435,1.058
			C198.387,117.529,197.29,117.884,196.046,117.884"/>
		<rect x="201.412" y="107.601" style="fill:#0D334F;" width="1.291" height="10.132"/>
		<path style="fill:#0D334F;" d="M204.219,117.732l3.821-10.132h1.378l3.843,10.132h-1.412l-1.018-2.706h-4.211l-0.994,2.706
			H204.219z M206.971,113.938h3.477c-0.573-1.666-1.151-3.313-1.729-4.948C208.132,110.648,207.55,112.297,206.971,113.938"/>
	</g>
	<g>
		<path style="fill:#0D334F;" d="M26.966,58.512c-3.552,0-6.931-0.629-10.135-1.885c-3.206-1.255-6.067-3.049-8.582-5.384
			c-2.516-2.333-4.519-5.332-6.011-8.999C0.745,38.579,0,34.501,0,30.011c0-3.752,0.499-7.222,1.497-10.407
			c0.999-3.184,2.35-5.884,4.05-8.104c1.702-2.218,3.676-4.115,5.92-5.688c2.243-1.573,4.611-2.726,7.101-3.462
			c2.492-0.736,5.044-1.103,7.658-1.103c7.054,0,13.045,1.991,17.978,5.975l-3.662,6.734c-4.095-2.917-8.607-4.376-13.539-4.376
			c-2.294,0-4.469,0.468-6.528,1.407s-3.878,2.258-5.456,3.958c-1.579,1.699-2.837,3.843-3.772,6.43
			c-0.938,2.588-1.405,5.428-1.405,8.523c0,6.115,1.675,11.023,5.03,14.726c3.353,3.703,7.595,5.554,12.725,5.554
			c5.4,0,10.357-1.863,14.87-5.594l3.144,7.65C40.38,56.417,34.166,58.512,26.966,58.512"/>
		<path style="fill:#0D334F;" d="M111.111,57.675l21.641-55.403h9.544l21.822,55.403h-10.616l-5.217-13.51h-21.748l-5.104,13.51
			H111.111z M130.052,35.148h14.426c-2.835-8.651-5.215-15.841-7.138-21.575C135.734,18.368,133.309,25.56,130.052,35.148"/>
		<path style="fill:#0D334F;" d="M199.721,70.27c-3.527,0-7.486-0.813-11.874-2.436l1.702-7.345c3.379,1.117,6.2,1.674,8.472,1.674
			c5.054,0,7.582-2.892,7.582-8.674V2.272H215v50.761c0,5.528-1.345,9.784-4.033,12.766C208.277,68.777,204.529,70.27,199.721,70.27
			"/>
		<g>
			<polygon style="fill:#0D334F;" points="92.141,0 91.514,0 65.143,0 62.212,0 61.376,0 61.376,11.625 65.143,11.625 65.143,3.875 
				91.514,3.875 91.514,11.625 95.281,11.625 95.281,0 			"/>
			<rect x="68.91" y="7.749" style="fill:#0D334F;" width="18.835" height="3.876"/>
			<polygon style="fill:#0D334F;" points="64.514,58.131 65.143,58.131 91.514,58.131 94.444,58.131 95.281,58.131 95.281,46.501 
				91.514,46.501 91.514,54.254 65.143,54.254 65.143,46.501 61.376,46.501 61.376,58.131 			"/>
			<rect x="68.91" y="46.503" style="fill:#0D334F;" width="18.835" height="3.875"/>
			<rect x="68.91" y="15.5" style="fill:#0D334F;" width="3.765" height="27.129"/>
			<rect x="76.443" y="15.5" style="fill:#0D334F;" width="3.768" height="27.129"/>
			<rect x="83.978" y="15.5" style="fill:#0D334F;" width="3.768" height="27.129"/>
		</g>
	</g>
</g>
</svg>
