<?xml version="1.0" encoding="iso-8859-1"?>
<!-- Generator: Adobe Illustrator 15.1.0, SVG Export Plug-In . SVG Version: 6.00 Build 0)  -->
<!DOCTYPE svg PUBLIC "-//W3C//DTD SVG 1.1//EN" "http://www.w3.org/Graphics/SVG/1.1/DTD/svg11.dtd">
<svg version="1.1" id="Capa_1" xmlns="http://www.w3.org/2000/svg" xmlns:xlink="http://www.w3.org/1999/xlink" x="0px" y="0px"
	 width="215px" height="120px" viewBox="0 0 215 120" style="enable-background:new 0 0 215 120;" xml:space="preserve">
<g>
	<g>
		<path style="fill:#9191A3;" d="M23.681,96.779c-0.652,0-1.271-0.113-1.854-0.338c-0.581-0.224-1.095-0.547-1.541-0.965
			c-0.448-0.421-0.804-0.959-1.063-1.621c-0.261-0.659-0.393-1.396-0.393-2.208c0-0.792,0.124-1.521,0.369-2.191
			c0.244-0.671,0.584-1.233,1.011-1.691c0.429-0.456,0.938-0.812,1.523-1.067c0.59-0.255,1.223-0.383,1.9-0.383
			c1.24,0,2.272,0.348,3.098,1.043l-0.515,0.904c-0.726-0.551-1.555-0.829-2.488-0.829c-0.704,0-1.327,0.187-1.867,0.558
			c-0.541,0.368-0.956,0.87-1.242,1.506c-0.285,0.635-0.431,1.346-0.431,2.134c0,1.23,0.332,2.21,0.992,2.938
			c0.661,0.728,1.514,1.091,2.56,1.091c0.992,0,1.924-0.333,2.789-1.002l0.433,1.058C26.019,96.426,24.924,96.779,23.681,96.779"/>
		<polygon style="fill:#9191A3;" points="28.936,96.627 28.936,86.493 34.834,86.493 34.834,87.615 30.229,87.615 30.229,90.803 
			34.578,90.803 34.578,91.929 30.229,91.929 30.229,95.506 35.03,95.506 35.03,96.627 		"/>
		<polygon style="fill:#9191A3;" points="37.079,96.627 37.079,86.493 38.455,86.493 43.2,93.621 43.935,94.805 43.935,86.493 
			45.165,86.493 45.165,96.627 43.785,96.627 39.158,89.766 38.292,88.374 38.292,96.627 		"/>
		<polygon style="fill:#9191A3;" points="49.737,96.627 49.737,87.615 46.591,87.615 46.591,86.493 54.195,86.493 54.195,87.615 
			51.027,87.615 51.027,96.627 		"/>
		<path style="fill:#9191A3;" d="M55.635,96.627V86.493h3.152c0.405,0,0.771,0.023,1.091,0.068s0.627,0.128,0.922,0.248
			c0.295,0.118,0.541,0.276,0.733,0.474c0.194,0.2,0.35,0.458,0.464,0.777s0.173,0.696,0.173,1.127c0,0.637-0.157,1.167-0.474,1.596
			c-0.314,0.424-0.796,0.708-1.442,0.847c0.371,0.122,0.662,0.329,0.878,0.629c0.215,0.301,0.431,0.734,0.651,1.307l1.157,3.062
			h-1.38l-1.081-2.979c-0.155-0.426-0.295-0.74-0.423-0.939c-0.13-0.2-0.297-0.346-0.505-0.442
			c-0.208-0.092-0.493-0.142-0.857-0.142h-1.767v4.502H55.635z M56.922,91.004h1.832c0.654,0,1.163-0.133,1.521-0.399
			c0.361-0.266,0.542-0.716,0.542-1.34c0-0.254-0.025-0.478-0.078-0.663c-0.052-0.189-0.128-0.346-0.223-0.472
			c-0.1-0.124-0.228-0.226-0.387-0.301c-0.161-0.078-0.338-0.134-0.537-0.163c-0.2-0.035-0.434-0.051-0.703-0.051h-0.025h-0.022
			h-0.025h-1.895V91.004z"/>
		<path style="fill:#9191A3;" d="M69.003,96.779c-1.49,0-2.66-0.47-3.515-1.411c-0.855-0.941-1.282-2.215-1.282-3.814
			c0-1.036,0.188-1.943,0.564-2.731c0.377-0.785,0.93-1.401,1.661-1.842c0.729-0.446,1.592-0.666,2.583-0.666
			c1.448,0,2.601,0.481,3.461,1.442c0.859,0.965,1.288,2.229,1.288,3.797c0,1.596-0.423,2.867-1.271,3.811
			C71.645,96.308,70.48,96.779,69.003,96.779 M68.987,95.659c1.101,0,1.938-0.365,2.51-1.095c0.574-0.73,0.86-1.737,0.86-3.011
			c0-1.246-0.288-2.247-0.864-2.993c-0.574-0.751-1.405-1.128-2.49-1.128c-1.083,0-1.923,0.379-2.521,1.132
			c-0.598,0.756-0.896,1.751-0.896,2.989c0,1.271,0.293,2.274,0.879,3.007C67.051,95.294,67.894,95.659,68.987,95.659"/>
		<path style="fill:#9191A3;" d="M79.878,96.627V86.493h2.424c1.899,0,3.355,0.417,4.36,1.248c1.006,0.829,1.511,2.108,1.511,3.832
			c0,1.615-0.468,2.863-1.401,3.739s-2.276,1.314-4.033,1.314H79.878z M81.17,95.506h1.639c1.315,0,2.311-0.342,2.984-1.024
			c0.676-0.686,1.011-1.656,1.011-2.908c0-1.35-0.358-2.347-1.077-2.991c-0.72-0.644-1.822-0.967-3.307-0.967h-1.25V95.506z"/>
		<polygon style="fill:#9191A3;" points="90.288,96.627 90.288,86.493 96.188,86.493 96.188,87.615 91.58,87.615 91.58,90.803 
			95.93,90.803 95.93,91.929 91.58,91.929 91.58,95.506 96.384,95.506 96.384,96.627 		"/>
		<rect x="102.573" y="86.493" style="fill:#9191A3;" width="1.29" height="10.134"/>
		<polygon style="fill:#9191A3;" points="106.536,96.627 106.536,86.493 107.91,86.493 112.656,93.621 113.389,94.805 
			113.389,86.493 114.619,86.493 114.619,96.627 113.239,96.627 108.614,89.766 107.747,88.374 107.747,96.627 		"/>
		<polygon style="fill:#9191A3;" points="117.344,96.627 117.344,86.493 118.72,86.493 123.467,93.621 124.198,94.805 
			124.198,86.493 125.429,86.493 125.429,96.627 124.049,96.627 119.422,89.766 118.557,88.374 118.557,96.627 		"/>
		<path style="fill:#9191A3;" d="M132.307,96.779c-1.486,0-2.658-0.47-3.515-1.411c-0.854-0.941-1.278-2.215-1.278-3.814
			c0-1.036,0.186-1.943,0.562-2.731c0.377-0.785,0.932-1.401,1.661-1.842c0.731-0.446,1.592-0.666,2.585-0.666
			c1.444,0,2.599,0.481,3.457,1.442c0.857,0.965,1.29,2.229,1.29,3.797c0,1.596-0.427,2.867-1.272,3.811
			C134.948,96.308,133.786,96.779,132.307,96.779 M132.296,95.659c1.098,0,1.933-0.365,2.507-1.095
			c0.57-0.73,0.858-1.737,0.858-3.011c0-1.246-0.288-2.247-0.864-2.993c-0.572-0.751-1.403-1.128-2.49-1.128
			c-1.08,0-1.921,0.379-2.519,1.132c-0.598,0.756-0.895,1.751-0.895,2.989c0,1.271,0.291,2.274,0.879,3.007
			C130.358,95.294,131.197,95.659,132.296,95.659"/>
		<path style="fill:#9191A3;" d="M141.683,96.627l-3.695-10.134h1.442c0.082,0.233,0.493,1.436,1.24,3.608
			c0.745,2.169,1.315,3.816,1.708,4.938c0.388-1.132,0.955-2.773,1.702-4.919c0.745-2.148,1.166-3.355,1.262-3.628h1.358
			l-3.666,10.134H141.683z"/>
		<path style="fill:#9191A3;" d="M147.113,96.627l3.821-10.134h1.38l3.843,10.134h-1.413l-1.017-2.706h-4.214l-0.993,2.706H147.113z
			 M149.865,92.833h3.478c-0.572-1.663-1.15-3.313-1.73-4.946C151.026,89.541,150.443,91.193,149.865,92.833"/>
		<path style="fill:#9191A3;" d="M161.941,96.779c-0.654,0-1.273-0.113-1.854-0.338c-0.581-0.224-1.095-0.547-1.543-0.965
			c-0.445-0.421-0.8-0.959-1.062-1.621c-0.26-0.659-0.392-1.396-0.392-2.208c0-0.792,0.122-1.521,0.369-2.191
			c0.246-0.671,0.582-1.233,1.011-1.691c0.429-0.456,0.936-0.812,1.525-1.067c0.59-0.255,1.223-0.383,1.896-0.383
			c1.242,0,2.274,0.348,3.1,1.043l-0.515,0.904c-0.726-0.551-1.557-0.829-2.488-0.829c-0.704,0-1.325,0.187-1.869,0.558
			c-0.539,0.368-0.952,0.87-1.24,1.506c-0.287,0.635-0.429,1.346-0.429,2.134c0,1.23,0.33,2.21,0.992,2.938
			c0.659,0.728,1.512,1.091,2.56,1.091c0.992,0,1.92-0.333,2.785-1.002l0.435,1.058C164.279,96.426,163.187,96.779,161.941,96.779"
			/>
		<rect x="167.306" y="86.493" style="fill:#9191A3;" width="1.292" height="10.134"/>
		<path style="fill:#9191A3;" d="M175.424,96.779c-1.491,0-2.661-0.47-3.515-1.411c-0.856-0.941-1.283-2.215-1.283-3.814
			c0-1.036,0.188-1.943,0.564-2.731c0.377-0.785,0.93-1.401,1.661-1.842c0.73-0.446,1.592-0.666,2.584-0.666
			c1.449,0,2.601,0.481,3.462,1.442c0.858,0.965,1.287,2.229,1.287,3.797c0,1.596-0.424,2.867-1.271,3.811
			C178.064,96.308,176.9,96.779,175.424,96.779 M175.408,95.659c1.101,0,1.937-0.365,2.509-1.095
			c0.575-0.73,0.862-1.737,0.862-3.011c0-1.246-0.289-2.247-0.866-2.993c-0.574-0.751-1.404-1.128-2.489-1.128
			c-1.083,0-1.924,0.379-2.521,1.132c-0.598,0.756-0.896,1.751-0.896,2.989c0,1.271,0.293,2.274,0.879,3.007
			C173.471,95.294,174.313,95.659,175.408,95.659 M174.97,85.479l1.597-2.504h1.602l-2.156,2.504H174.97z"/>
		<polygon style="fill:#9191A3;" points="182.267,96.627 182.267,86.493 183.641,86.493 188.39,93.621 189.119,94.805 
			189.119,86.493 190.35,86.493 190.35,96.627 188.97,96.627 184.344,89.766 183.478,88.374 183.478,96.627 		"/>
		<path style="fill:#9191A3;" d="M1.739,117.732v-10.132h2.834c0.499,0,0.93,0.02,1.297,0.063c0.366,0.041,0.72,0.121,1.06,0.243
			c0.337,0.12,0.611,0.281,0.822,0.483c0.208,0.201,0.375,0.47,0.499,0.802c0.124,0.335,0.187,0.729,0.187,1.184
			c0,0.511-0.082,0.947-0.245,1.309c-0.161,0.363-0.399,0.649-0.718,0.856c-0.318,0.209-0.692,0.361-1.122,0.456
			c-0.427,0.095-0.93,0.142-1.508,0.142H3.032v4.594H1.739z M3.032,112.021h1.793c0.78,0,1.356-0.121,1.731-0.361
			c0.375-0.243,0.562-0.668,0.562-1.275c0-0.227-0.024-0.429-0.069-0.602c-0.043-0.175-0.116-0.322-0.212-0.446
			c-0.099-0.12-0.211-0.226-0.34-0.307c-0.126-0.08-0.285-0.142-0.474-0.187c-0.186-0.044-0.382-0.075-0.588-0.095
			c-0.203-0.016-0.442-0.025-0.714-0.025H4.695H4.674H4.648H4.626H4.603h-1.57V112.021z"/>
		<path style="fill:#9191A3;" d="M9.106,117.732l3.822-10.132h1.382l3.841,10.132h-1.415l-1.014-2.706h-4.215l-0.992,2.706H9.106z
			 M11.86,113.938h3.477c-0.572-1.666-1.149-3.313-1.731-4.948C13.02,110.648,12.438,112.296,11.86,113.938"/>
		<path style="fill:#9191A3;" d="M19.727,117.732v-10.132h3.152c0.407,0,0.771,0.021,1.091,0.067
			c0.32,0.043,0.627,0.125,0.922,0.247c0.297,0.12,0.541,0.277,0.735,0.476c0.194,0.197,0.348,0.456,0.462,0.776
			c0.114,0.318,0.173,0.693,0.173,1.126c0,0.636-0.157,1.164-0.474,1.593c-0.314,0.426-0.796,0.711-1.44,0.851
			c0.371,0.121,0.662,0.33,0.875,0.628c0.214,0.3,0.434,0.734,0.652,1.305l1.157,3.063h-1.38l-1.083-2.98
			c-0.151-0.424-0.293-0.738-0.422-0.939c-0.13-0.197-0.297-0.346-0.504-0.442c-0.208-0.093-0.495-0.141-0.858-0.141h-1.768v4.503
			H19.727z M21.014,112.109h1.832c0.654,0,1.162-0.132,1.521-0.401c0.359-0.267,0.542-0.713,0.542-1.34
			c0-0.252-0.025-0.476-0.078-0.663c-0.053-0.189-0.126-0.346-0.224-0.47c-0.097-0.127-0.225-0.228-0.386-0.302
			c-0.159-0.075-0.338-0.133-0.538-0.164c-0.197-0.031-0.433-0.049-0.702-0.049h-0.025h-0.023h-0.024h-1.895V112.109z"/>
		<path style="fill:#9191A3;" d="M27.783,117.732l3.821-10.132h1.38l3.843,10.132h-1.413l-1.015-2.706h-4.216l-0.993,2.706H27.783z
			 M30.537,113.938h3.476c-0.572-1.666-1.148-3.313-1.73-4.948C31.695,110.648,31.113,112.296,30.537,113.938"/>
		<polygon style="fill:#9191A3;" points="42.436,117.732 42.436,107.601 48.334,107.601 48.334,108.723 43.727,108.723 
			43.727,111.905 48.078,111.905 48.078,113.037 43.727,113.037 43.727,116.613 48.53,116.613 48.53,117.732 		"/>
		<polygon style="fill:#9191A3;" points="50.579,117.732 50.579,107.601 51.872,107.601 51.872,116.613 56.452,116.613 
			56.452,117.732 		"/>
		<path style="fill:#9191A3;" d="M60.955,117.732l3.823-10.132h1.38l3.841,10.132h-1.413l-1.015-2.706h-4.214l-0.993,2.706H60.955z
			 M63.709,113.938h3.478c-0.574-1.666-1.15-3.313-1.732-4.948C64.867,110.648,64.285,112.296,63.709,113.938"/>
		<path style="fill:#9191A3;" d="M75.784,117.884c-0.655,0-1.272-0.11-1.854-0.339c-0.582-0.224-1.097-0.545-1.543-0.965
			c-0.446-0.419-0.801-0.959-1.062-1.617c-0.262-0.659-0.392-1.396-0.392-2.213c0-0.789,0.12-1.52,0.366-2.188
			c0.247-0.671,0.583-1.235,1.014-1.691c0.429-0.458,0.936-0.813,1.525-1.067c0.588-0.255,1.221-0.383,1.896-0.383
			c1.239,0,2.272,0.348,3.097,1.042l-0.514,0.905c-0.725-0.55-1.555-0.827-2.488-0.827c-0.704,0-1.325,0.187-1.867,0.553
			c-0.541,0.369-0.955,0.87-1.242,1.509c-0.287,0.633-0.429,1.344-0.429,2.135c0,1.23,0.332,2.209,0.992,2.938
			c0.659,0.728,1.514,1.091,2.56,1.091c0.991,0,1.919-0.335,2.787-1.004l0.433,1.058C78.121,117.529,77.028,117.884,75.784,117.884"
			/>
		<path style="fill:#9191A3;" d="M85.246,117.884c-0.654,0-1.271-0.11-1.854-0.339c-0.581-0.224-1.095-0.545-1.541-0.965
			c-0.448-0.419-0.802-0.959-1.062-1.617c-0.265-0.659-0.393-1.396-0.393-2.213c0-0.789,0.122-1.52,0.367-2.188
			c0.246-0.671,0.584-1.235,1.013-1.691c0.427-0.458,0.936-0.813,1.523-1.067c0.588-0.255,1.221-0.383,1.898-0.383
			c1.24,0,2.272,0.348,3.1,1.042l-0.515,0.905c-0.728-0.55-1.557-0.827-2.49-0.827c-0.704,0-1.327,0.187-1.867,0.553
			c-0.541,0.369-0.954,0.87-1.241,1.509c-0.286,0.633-0.43,1.344-0.43,2.135c0,1.23,0.33,2.209,0.99,2.938
			c0.66,0.728,1.516,1.091,2.56,1.091c0.994,0,1.924-0.335,2.789-1.004l0.433,1.058C87.584,117.529,86.49,117.884,85.246,117.884"/>
		<polygon style="fill:#9191A3;" points="90.503,117.732 90.503,107.601 96.401,107.601 96.401,108.723 91.794,108.723 
			91.794,111.905 96.146,111.905 96.146,113.037 91.794,113.037 91.794,116.613 96.598,116.613 96.598,117.732 		"/>
		<path style="fill:#9191A3;" d="M101.339,116.765c0.27,0,0.514-0.025,0.733-0.074c0.22-0.054,0.409-0.124,0.572-0.222
			c0.161-0.095,0.297-0.213,0.41-0.354c0.11-0.143,0.191-0.305,0.244-0.487c0.057-0.185,0.082-0.386,0.082-0.609
			c0-0.24-0.023-0.443-0.074-0.609c-0.051-0.163-0.144-0.319-0.285-0.47c-0.138-0.147-0.328-0.28-0.57-0.4
			c-0.241-0.116-0.562-0.239-0.957-0.365c-0.041-0.012-0.138-0.042-0.293-0.087c-0.155-0.043-0.261-0.075-0.311-0.093
			c-0.941-0.276-1.627-0.632-2.058-1.058c-0.433-0.426-0.646-1.043-0.646-1.844c0-0.572,0.144-1.061,0.434-1.471
			c0.289-0.407,0.675-0.708,1.16-0.906c0.483-0.194,1.042-0.295,1.673-0.295c1.329,0,2.343,0.354,3.037,1.058l-0.643,0.896
			c-0.23-0.231-0.541-0.428-0.933-0.59c-0.393-0.164-0.829-0.243-1.307-0.243c-0.621,0-1.118,0.126-1.49,0.383
			c-0.373,0.256-0.56,0.63-0.56,1.125c0,0.336,0.045,0.601,0.133,0.796c0.089,0.194,0.248,0.363,0.48,0.507
			c0.233,0.146,0.583,0.295,1.053,0.444c0.01,0.004,0.093,0.031,0.254,0.077c0.159,0.047,0.266,0.075,0.318,0.091
			c0.58,0.176,1.054,0.358,1.425,0.551c0.372,0.191,0.671,0.409,0.898,0.657c0.225,0.249,0.382,0.519,0.474,0.817
			c0.087,0.298,0.134,0.654,0.134,1.071c0,0.468-0.088,0.884-0.261,1.247c-0.174,0.366-0.415,0.661-0.72,0.889
			c-0.307,0.229-0.658,0.4-1.056,0.513c-0.396,0.118-0.829,0.176-1.299,0.176c-0.735,0-1.393-0.124-1.972-0.372
			c-0.58-0.247-1.003-0.504-1.269-0.769l0.574-0.961c0.289,0.238,0.668,0.462,1.137,0.667
			C100.333,116.658,100.824,116.765,101.339,116.765"/>
		<path style="fill:#9191A3;" d="M111.011,117.884c-1.486,0-2.66-0.47-3.514-1.413c-0.854-0.939-1.281-2.21-1.281-3.813
			c0-1.033,0.188-1.943,0.564-2.729c0.377-0.786,0.932-1.399,1.662-1.844c0.731-0.441,1.591-0.664,2.584-0.664
			c1.446,0,2.601,0.481,3.458,1.444c0.858,0.963,1.289,2.227,1.289,3.793c0,1.6-0.425,2.868-1.273,3.812
			C113.654,117.414,112.49,117.884,111.011,117.884 M110.997,116.765c1.101,0,1.938-0.365,2.512-1.095
			c0.57-0.732,0.857-1.735,0.857-3.013c0-1.245-0.287-2.246-0.863-2.993c-0.574-0.749-1.405-1.124-2.492-1.124
			c-1.083,0-1.921,0.377-2.519,1.132c-0.598,0.753-0.896,1.748-0.896,2.985c0,1.273,0.293,2.274,0.879,3.009
			C109.062,116.397,109.9,116.765,110.997,116.765"/>
		<path style="fill:#9191A3;" d="M120.732,117.732l3.821-10.132h1.38l3.841,10.132h-1.413l-1.015-2.706h-4.214l-0.993,2.706H120.732
			z M123.484,113.938h3.478c-0.574-1.666-1.15-3.313-1.73-4.948C124.643,110.648,124.061,112.296,123.484,113.938"/>
		<polygon style="fill:#9191A3;" points="135.381,117.732 135.381,107.601 136.674,107.601 136.674,116.613 141.252,116.613 
			141.252,117.732 		"/>
		<path style="fill:#9191A3;" d="M141.726,117.732l3.823-10.132h1.38l3.841,10.132h-1.415l-1.013-2.706h-4.214l-0.995,2.706H141.726
			z M144.479,113.938h3.479c-0.575-1.666-1.151-3.313-1.733-4.948C145.637,110.648,145.056,112.296,144.479,113.938"/>
		<path style="fill:#9191A3;" d="M156.562,120c-0.497,0-1.029-0.099-1.598-0.292l0.183-1.044c0.474,0.144,0.889,0.217,1.246,0.217
			c0.498,0,0.842-0.154,1.028-0.455c0.185-0.307,0.275-0.813,0.275-1.528v-9.297h1.293v9.29c0,1.071-0.204,1.855-0.609,2.359
			C157.974,119.749,157.368,120,156.562,120"/>
		<path style="fill:#9191A3;" d="M165.36,117.884c-2.589,0-3.884-1.351-3.884-4.05v-6.233h1.293v6.262
			c0,0.994,0.22,1.724,0.658,2.195c0.437,0.472,1.085,0.707,1.946,0.707c1.741,0,2.61-0.959,2.61-2.873v-6.291h1.285v6.22
			c0,0.618-0.072,1.168-0.216,1.651c-0.144,0.479-0.368,0.906-0.669,1.275s-0.709,0.651-1.218,0.845
			C166.657,117.789,166.056,117.884,165.36,117.884"/>
		<path style="fill:#9191A3;" d="M174.5,116.765c0.27,0,0.514-0.025,0.733-0.074c0.22-0.054,0.409-0.124,0.572-0.222
			c0.161-0.095,0.297-0.213,0.41-0.354c0.11-0.143,0.191-0.305,0.244-0.487c0.057-0.185,0.081-0.386,0.081-0.609
			c0-0.24-0.022-0.443-0.073-0.609c-0.051-0.163-0.144-0.319-0.285-0.47c-0.138-0.147-0.328-0.28-0.571-0.4
			c-0.24-0.116-0.561-0.239-0.956-0.365c-0.041-0.012-0.138-0.042-0.295-0.087c-0.155-0.043-0.259-0.075-0.309-0.093
			c-0.941-0.276-1.627-0.632-2.06-1.058c-0.431-0.426-0.645-1.043-0.645-1.844c0-0.572,0.144-1.061,0.433-1.471
			c0.29-0.407,0.676-0.708,1.159-0.906c0.485-0.194,1.044-0.295,1.675-0.295c1.329,0,2.343,0.354,3.037,1.058l-0.643,0.896
			c-0.23-0.231-0.541-0.428-0.934-0.59c-0.392-0.164-0.828-0.243-1.306-0.243c-0.621,0-1.12,0.126-1.49,0.383
			c-0.373,0.256-0.56,0.63-0.56,1.125c0,0.336,0.045,0.601,0.132,0.796c0.088,0.194,0.247,0.363,0.481,0.507
			c0.233,0.146,0.583,0.295,1.052,0.444c0.01,0.004,0.094,0.031,0.253,0.077c0.159,0.047,0.268,0.075,0.32,0.091
			c0.58,0.176,1.054,0.358,1.424,0.551c0.373,0.191,0.672,0.409,0.899,0.657c0.225,0.249,0.382,0.519,0.473,0.817
			c0.088,0.298,0.135,0.654,0.135,1.071c0,0.468-0.088,0.884-0.261,1.247c-0.175,0.366-0.415,0.661-0.72,0.889
			c-0.307,0.229-0.658,0.4-1.056,0.513c-0.396,0.118-0.829,0.176-1.299,0.176c-0.735,0-1.394-0.124-1.972-0.372
			c-0.58-0.247-1.003-0.504-1.27-0.769l0.575-0.961c0.289,0.238,0.667,0.462,1.137,0.667
			C173.492,116.658,173.985,116.765,174.5,116.765"/>
		<polygon style="fill:#9191A3;" points="181.865,117.732 181.865,108.723 178.721,108.723 178.721,107.601 186.323,107.601 
			186.323,108.723 183.159,108.723 183.159,117.732 		"/>
		<rect x="187.872" y="107.601" style="fill:#9191A3;" width="1.292" height="10.132"/>
		<path style="fill:#9191A3;" d="M196.044,117.884c-0.653,0-1.272-0.11-1.853-0.339c-0.581-0.224-1.095-0.545-1.543-0.965
			c-0.447-0.419-0.802-0.959-1.062-1.617c-0.26-0.659-0.392-1.396-0.392-2.213c0-0.789,0.122-1.52,0.369-2.188
			c0.244-0.671,0.582-1.235,1.011-1.691c0.429-0.458,0.936-0.813,1.525-1.067c0.588-0.255,1.221-0.383,1.896-0.383
			c1.244,0,2.276,0.348,3.102,1.042l-0.515,0.905c-0.726-0.55-1.559-0.827-2.49-0.827c-0.704,0-1.327,0.187-1.869,0.553
			c-0.539,0.369-0.954,0.87-1.24,1.509c-0.287,0.633-0.431,1.344-0.431,2.135c0,1.23,0.332,2.209,0.992,2.938
			c0.661,0.728,1.514,1.091,2.56,1.091c0.994,0,1.923-0.335,2.789-1.004l0.435,1.058
			C198.385,117.529,197.288,117.884,196.044,117.884"/>
		<rect x="201.41" y="107.601" style="fill:#9191A3;" width="1.291" height="10.132"/>
		<path style="fill:#9191A3;" d="M204.217,117.732l3.821-10.132h1.378l3.843,10.132h-1.412l-1.018-2.706h-4.211l-0.994,2.706
			H204.217z M206.969,113.938h3.477c-0.573-1.666-1.151-3.313-1.729-4.948C208.13,110.648,207.547,112.296,206.969,113.938"/>
	</g>
	<g>
		<path style="fill:#9191A3;" d="M26.965,58.512c-3.552,0-6.931-0.63-10.135-1.885c-3.206-1.255-6.066-3.05-8.582-5.385
			c-2.516-2.333-4.519-5.331-6.011-8.998C0.745,38.579,0,34.501,0,30.011c0-3.752,0.498-7.223,1.496-10.408
			c0.999-3.183,2.351-5.883,4.051-8.104c1.702-2.219,3.676-4.115,5.919-5.688c2.243-1.574,4.611-2.727,7.102-3.463
			c2.492-0.736,5.044-1.103,7.658-1.103c7.053,0,13.044,1.991,17.978,5.975l-3.662,6.733c-4.096-2.917-8.607-4.375-13.539-4.375
			c-2.294,0-4.47,0.468-6.529,1.407c-2.059,0.939-3.877,2.258-5.455,3.957c-1.58,1.699-2.838,3.843-3.772,6.43
			c-0.938,2.588-1.405,5.429-1.405,8.523c0,6.114,1.675,11.023,5.03,14.727c3.352,3.702,7.594,5.554,12.724,5.554
			c5.401,0,10.358-1.863,14.87-5.594l3.145,7.65C40.38,56.417,34.165,58.512,26.965,58.512"/>
		<path style="fill:#9191A3;" d="M111.111,57.675l21.641-55.403h9.544l21.822,55.403h-10.616l-5.217-13.51h-21.748l-5.104,13.51
			H111.111z M130.052,35.148h14.426c-2.835-8.651-5.215-15.841-7.138-21.575C135.734,18.368,133.309,25.56,130.052,35.148"/>
		<path style="fill:#9191A3;" d="M199.72,70.27c-3.526,0-7.485-0.813-11.873-2.436l1.702-7.345c3.379,1.117,6.2,1.674,8.472,1.674
			c5.054,0,7.582-2.892,7.582-8.675V2.271H215v50.762c0,5.528-1.345,9.783-4.033,12.766C208.277,68.777,204.529,70.27,199.72,70.27"
			/>
		<g>
			<polygon style="fill:#9191A3;" points="92.141,0 91.514,0 65.143,0 62.212,0 61.375,0 61.375,11.625 65.143,11.625 65.143,3.874 
				91.514,3.874 91.514,11.625 95.28,11.625 95.28,0 			"/>
			<rect x="68.909" y="7.749" style="fill:#9191A3;" width="18.835" height="3.876"/>
			<polygon style="fill:#9191A3;" points="64.514,58.131 65.143,58.131 91.514,58.131 94.444,58.131 95.28,58.131 95.28,46.502 
				91.514,46.502 91.514,54.255 65.143,54.255 65.143,46.502 61.375,46.502 61.375,58.131 			"/>
			<rect x="68.909" y="46.504" style="fill:#9191A3;" width="18.835" height="3.874"/>
			<rect x="68.909" y="15.5" style="fill:#9191A3;" width="3.765" height="27.129"/>
			<rect x="76.443" y="15.5" style="fill:#9191A3;" width="3.767" height="27.129"/>
			<rect x="83.978" y="15.5" style="fill:#9191A3;" width="3.767" height="27.129"/>
		</g>
	</g>
</g>
</svg>
