<?xml version="1.0" encoding="iso-8859-1"?>
<!-- Generator: Adobe Illustrator 15.1.0, SVG Export Plug-In . SVG Version: 6.00 Build 0)  -->
<!DOCTYPE svg PUBLIC "-//W3C//DTD SVG 1.1//EN" "http://www.w3.org/Graphics/SVG/1.1/DTD/svg11.dtd">
<svg version="1.1" id="Capa_1" xmlns="http://www.w3.org/2000/svg" xmlns:xlink="http://www.w3.org/1999/xlink" x="0px" y="0px"
	 width="215px" height="120px" viewBox="0 0 215 120" style="enable-background:new 0 0 215 120;" xml:space="preserve">
<g>
	<g>
		<path style="fill:#1E1E1C;" d="M23.681,96.779c-0.652,0-1.271-0.112-1.854-0.337c-0.581-0.223-1.095-0.546-1.541-0.965
			c-0.448-0.42-0.804-0.959-1.063-1.621c-0.26-0.659-0.392-1.396-0.392-2.208c0-0.792,0.124-1.52,0.369-2.191
			s0.584-1.234,1.011-1.691c0.429-0.456,0.938-0.812,1.523-1.068c0.59-0.255,1.223-0.383,1.9-0.383c1.24,0,2.273,0.347,3.098,1.044
			l-0.514,0.904c-0.726-0.55-1.555-0.829-2.488-0.829c-0.705,0-1.328,0.186-1.867,0.557c-0.542,0.369-0.957,0.87-1.242,1.506
			c-0.285,0.635-0.431,1.346-0.431,2.133c0,1.232,0.332,2.211,0.992,2.939c0.662,0.729,1.514,1.092,2.56,1.092
			c0.992,0,1.923-0.334,2.789-1.003l0.433,1.058C26.019,96.426,24.924,96.779,23.681,96.779"/>
		<polygon style="fill:#1E1E1C;" points="28.936,96.627 28.936,86.494 34.834,86.494 34.834,87.615 30.229,87.615 30.229,90.803 
			34.578,90.803 34.578,91.93 30.229,91.93 30.229,95.506 35.03,95.506 35.03,96.627 		"/>
		<polygon style="fill:#1E1E1C;" points="37.08,96.627 37.08,86.494 38.456,86.494 43.201,93.621 43.935,94.805 43.935,86.494 
			45.165,86.494 45.165,96.627 43.785,96.627 39.158,89.767 38.292,88.375 38.292,96.627 		"/>
		<polygon style="fill:#1E1E1C;" points="49.737,96.627 49.737,87.615 46.591,87.615 46.591,86.494 54.195,86.494 54.195,87.615 
			51.028,87.615 51.028,96.627 		"/>
		<path style="fill:#1E1E1C;" d="M55.635,96.627V86.494h3.152c0.406,0,0.771,0.023,1.091,0.067c0.32,0.045,0.627,0.128,0.922,0.249
			c0.295,0.119,0.542,0.276,0.734,0.474c0.194,0.2,0.349,0.458,0.464,0.778c0.114,0.32,0.172,0.697,0.172,1.127
			c0,0.636-0.157,1.167-0.473,1.595c-0.314,0.424-0.796,0.708-1.442,0.847c0.371,0.123,0.662,0.33,0.877,0.63
			c0.215,0.3,0.431,0.734,0.652,1.307l1.157,3.061h-1.38l-1.081-2.978c-0.155-0.427-0.295-0.74-0.423-0.94
			c-0.13-0.199-0.297-0.345-0.505-0.442c-0.208-0.093-0.493-0.142-0.857-0.142h-1.766v4.502H55.635z M56.922,91.004h1.832
			c0.654,0,1.163-0.132,1.521-0.399c0.361-0.266,0.542-0.716,0.542-1.34c0-0.255-0.025-0.478-0.078-0.663
			c-0.052-0.189-0.128-0.346-0.223-0.472c-0.099-0.125-0.227-0.225-0.386-0.3c-0.161-0.079-0.338-0.134-0.538-0.164
			c-0.2-0.036-0.433-0.051-0.703-0.051h-0.025h-0.023h-0.025h-1.894V91.004z"/>
		<path style="fill:#1E1E1C;" d="M69.003,96.779c-1.49,0-2.661-0.47-3.515-1.411c-0.856-0.941-1.283-2.214-1.283-3.813
			c0-1.036,0.188-1.944,0.564-2.732c0.377-0.785,0.93-1.401,1.662-1.841c0.729-0.446,1.591-0.667,2.583-0.667
			c1.448,0,2.601,0.481,3.46,1.443c0.86,0.965,1.289,2.228,1.289,3.797c0,1.595-0.423,2.866-1.271,3.809S70.48,96.779,69.003,96.779
			 M68.988,95.66c1.1,0,1.937-0.365,2.509-1.096c0.574-0.73,0.86-1.737,0.86-3.01c0-1.248-0.288-2.248-0.864-2.994
			c-0.575-0.75-1.405-1.127-2.49-1.127c-1.083,0-1.923,0.379-2.521,1.131c-0.598,0.756-0.896,1.75-0.896,2.99
			c0,1.271,0.293,2.273,0.879,3.006C67.051,95.295,67.894,95.66,68.988,95.66"/>
		<path style="fill:#1E1E1C;" d="M79.878,96.627V86.494h2.424c1.9,0,3.355,0.416,4.361,1.247c1.005,0.829,1.51,2.108,1.51,3.833
			c0,1.615-0.468,2.862-1.401,3.738s-2.276,1.314-4.033,1.314H79.878z M81.17,95.506h1.638c1.315,0,2.311-0.341,2.985-1.024
			c0.675-0.685,1.011-1.656,1.011-2.907c0-1.35-0.359-2.347-1.077-2.992c-0.72-0.644-1.823-0.967-3.307-0.967h-1.25V95.506z"/>
		<polygon style="fill:#1E1E1C;" points="90.288,96.627 90.288,86.494 96.188,86.494 96.188,87.615 91.581,87.615 91.581,90.803 
			95.93,90.803 95.93,91.93 91.581,91.93 91.581,95.506 96.384,95.506 96.384,96.627 		"/>
		<rect x="102.573" y="86.494" style="fill:#1E1E1C;" width="1.291" height="10.133"/>
		<polygon style="fill:#1E1E1C;" points="106.537,96.627 106.537,86.494 107.911,86.494 112.657,93.621 113.39,94.805 
			113.39,86.494 114.62,86.494 114.62,96.627 113.24,96.627 108.615,89.767 107.748,88.375 107.748,96.627 		"/>
		<polygon style="fill:#1E1E1C;" points="117.345,96.627 117.345,86.494 118.721,86.494 123.468,93.621 124.199,94.805 
			124.199,86.494 125.43,86.494 125.43,96.627 124.05,96.627 119.423,89.767 118.558,88.375 118.558,96.627 		"/>
		<path style="fill:#1E1E1C;" d="M132.308,96.779c-1.486,0-2.658-0.47-3.515-1.411c-0.854-0.941-1.278-2.214-1.278-3.813
			c0-1.036,0.186-1.944,0.562-2.732c0.377-0.785,0.932-1.401,1.661-1.841c0.731-0.446,1.592-0.667,2.585-0.667
			c1.444,0,2.599,0.481,3.457,1.443c0.857,0.965,1.29,2.228,1.29,3.797c0,1.595-0.427,2.866-1.272,3.809
			C134.949,96.307,133.787,96.779,132.308,96.779 M132.297,95.66c1.098,0,1.933-0.365,2.507-1.096
			c0.571-0.73,0.858-1.737,0.858-3.01c0-1.248-0.287-2.248-0.864-2.994c-0.572-0.75-1.403-1.127-2.49-1.127
			c-1.081,0-1.921,0.379-2.519,1.131c-0.598,0.756-0.895,1.75-0.895,2.99c0,1.271,0.291,2.273,0.879,3.006
			C130.359,95.295,131.198,95.66,132.297,95.66"/>
		<path style="fill:#1E1E1C;" d="M141.684,96.627l-3.695-10.133h1.442c0.082,0.233,0.493,1.435,1.24,3.608
			c0.745,2.169,1.315,3.817,1.708,4.938c0.388-1.131,0.955-2.773,1.702-4.918c0.745-2.149,1.166-3.355,1.262-3.627h1.358
			l-3.666,10.133H141.684z"/>
		<path style="fill:#1E1E1C;" d="M147.114,96.627l3.821-10.133h1.38l3.843,10.133h-1.413l-1.017-2.706h-4.214l-0.993,2.706H147.114z
			 M149.866,92.833h3.478c-0.572-1.664-1.15-3.314-1.73-4.946C151.027,89.542,150.444,91.193,149.866,92.833"/>
		<path style="fill:#1E1E1C;" d="M161.941,96.779c-0.653,0-1.272-0.112-1.853-0.337c-0.581-0.223-1.095-0.546-1.543-0.965
			c-0.444-0.42-0.8-0.959-1.062-1.621c-0.261-0.659-0.393-1.396-0.393-2.208c0-0.792,0.122-1.52,0.369-2.191
			c0.246-0.671,0.582-1.234,1.011-1.691c0.429-0.456,0.936-0.812,1.525-1.068c0.59-0.255,1.223-0.383,1.896-0.383
			c1.242,0,2.274,0.347,3.1,1.044l-0.515,0.904c-0.726-0.55-1.557-0.829-2.488-0.829c-0.704,0-1.325,0.186-1.869,0.557
			c-0.539,0.369-0.952,0.87-1.24,1.506c-0.287,0.635-0.429,1.346-0.429,2.133c0,1.232,0.33,2.211,0.992,2.939
			c0.659,0.729,1.512,1.092,2.56,1.092c0.992,0,1.92-0.334,2.785-1.003l0.435,1.058C164.28,96.426,163.188,96.779,161.941,96.779"/>
		<rect x="167.307" y="86.494" style="fill:#1E1E1C;" width="1.292" height="10.133"/>
		<path style="fill:#1E1E1C;" d="M175.425,96.779c-1.491,0-2.661-0.47-3.515-1.411c-0.856-0.941-1.283-2.214-1.283-3.813
			c0-1.036,0.188-1.944,0.564-2.732c0.377-0.785,0.93-1.401,1.661-1.841c0.73-0.446,1.592-0.667,2.584-0.667
			c1.449,0,2.601,0.481,3.462,1.443c0.857,0.965,1.287,2.228,1.287,3.797c0,1.595-0.424,2.866-1.271,3.809
			S176.901,96.779,175.425,96.779 M175.409,95.66c1.101,0,1.937-0.365,2.509-1.096c0.575-0.73,0.862-1.737,0.862-3.01
			c0-1.248-0.289-2.248-0.866-2.994c-0.574-0.75-1.404-1.127-2.489-1.127c-1.083,0-1.924,0.379-2.521,1.131
			c-0.598,0.756-0.896,1.75-0.896,2.99c0,1.271,0.293,2.273,0.879,3.006C173.472,95.295,174.314,95.66,175.409,95.66
			 M174.971,85.479l1.597-2.505h1.602l-2.156,2.505H174.971z"/>
		<polygon style="fill:#1E1E1C;" points="182.268,96.627 182.268,86.494 183.642,86.494 188.391,93.621 189.121,94.805 
			189.121,86.494 190.352,86.494 190.352,96.627 188.971,96.627 184.345,89.767 183.479,88.375 183.479,96.627 		"/>
		<path style="fill:#1E1E1C;" d="M1.74,117.732v-10.131h2.833c0.499,0,0.93,0.02,1.297,0.063c0.367,0.042,0.72,0.121,1.06,0.243
			c0.337,0.121,0.611,0.282,0.823,0.484c0.208,0.201,0.375,0.47,0.499,0.801c0.124,0.335,0.186,0.73,0.186,1.184
			c0,0.511-0.082,0.947-0.245,1.309c-0.161,0.363-0.399,0.649-0.718,0.856c-0.318,0.209-0.693,0.361-1.122,0.456
			c-0.427,0.095-0.93,0.142-1.508,0.142H3.033v4.593H1.74z M3.033,112.02h1.793c0.78,0,1.356-0.12,1.731-0.361
			c0.375-0.243,0.562-0.667,0.562-1.275c0-0.227-0.025-0.428-0.07-0.602c-0.042-0.174-0.116-0.322-0.211-0.446
			c-0.099-0.121-0.211-0.225-0.34-0.306c-0.126-0.081-0.285-0.142-0.473-0.188c-0.187-0.043-0.382-0.075-0.588-0.095
			c-0.204-0.016-0.442-0.025-0.714-0.025H4.696H4.674H4.649H4.626H4.603h-1.57V112.02z"/>
		<path style="fill:#1E1E1C;" d="M9.107,117.732l3.822-10.131h1.382l3.841,10.131h-1.415l-1.013-2.706h-4.215l-0.992,2.706H9.107z
			 M11.861,113.938h3.476c-0.572-1.666-1.149-3.313-1.731-4.948C13.02,110.648,12.438,112.296,11.861,113.938"/>
		<path style="fill:#1E1E1C;" d="M19.727,117.732v-10.131h3.152c0.408,0,0.771,0.021,1.091,0.067
			c0.32,0.043,0.627,0.125,0.922,0.247c0.297,0.12,0.542,0.278,0.735,0.476c0.194,0.197,0.348,0.456,0.462,0.775
			c0.115,0.32,0.173,0.695,0.173,1.127c0,0.636-0.157,1.165-0.474,1.593c-0.314,0.427-0.795,0.711-1.44,0.851
			c0.371,0.12,0.662,0.33,0.875,0.627c0.213,0.3,0.433,0.734,0.652,1.305l1.157,3.063h-1.38l-1.083-2.98
			c-0.151-0.424-0.293-0.738-0.421-0.939c-0.13-0.198-0.297-0.346-0.505-0.442c-0.208-0.093-0.495-0.14-0.858-0.14h-1.768v4.502
			H19.727z M21.014,112.109h1.832c0.654,0,1.163-0.132,1.522-0.4c0.359-0.267,0.542-0.713,0.542-1.34
			c0-0.252-0.025-0.476-0.078-0.663c-0.053-0.189-0.126-0.346-0.223-0.47c-0.097-0.126-0.226-0.227-0.386-0.302
			c-0.159-0.075-0.338-0.132-0.538-0.164c-0.198-0.032-0.433-0.049-0.703-0.049h-0.025h-0.023h-0.025h-1.895V112.109z"/>
		<path style="fill:#1E1E1C;" d="M27.783,117.732l3.821-10.131h1.38l3.843,10.131h-1.413l-1.015-2.706h-4.215l-0.994,2.706H27.783z
			 M30.537,113.938h3.476c-0.573-1.666-1.149-3.313-1.731-4.948C31.696,110.648,31.114,112.296,30.537,113.938"/>
		<polygon style="fill:#1E1E1C;" points="42.436,117.732 42.436,107.601 48.334,107.601 48.334,108.722 43.727,108.722 
			43.727,111.906 48.078,111.906 48.078,113.037 43.727,113.037 43.727,116.613 48.53,116.613 48.53,117.732 		"/>
		<polygon style="fill:#1E1E1C;" points="50.58,117.732 50.58,107.601 51.872,107.601 51.872,116.613 56.453,116.613 
			56.453,117.732 		"/>
		<path style="fill:#1E1E1C;" d="M60.955,117.732l3.823-10.131h1.38l3.841,10.131h-1.413l-1.015-2.706h-4.213l-0.994,2.706H60.955z
			 M63.709,113.938h3.478c-0.575-1.666-1.151-3.313-1.733-4.948C64.868,110.648,64.286,112.296,63.709,113.938"/>
		<path style="fill:#1E1E1C;" d="M75.785,117.884c-0.656,0-1.273-0.111-1.854-0.339c-0.582-0.223-1.097-0.545-1.543-0.965
			c-0.446-0.418-0.801-0.959-1.062-1.617c-0.262-0.659-0.392-1.396-0.392-2.212c0-0.79,0.121-1.52,0.367-2.189
			c0.247-0.671,0.583-1.235,1.013-1.691c0.429-0.458,0.936-0.813,1.525-1.068c0.588-0.254,1.221-0.383,1.896-0.383
			c1.24,0,2.272,0.347,3.097,1.042l-0.514,0.906c-0.724-0.551-1.555-0.827-2.488-0.827c-0.704,0-1.325,0.186-1.867,0.553
			c-0.542,0.369-0.955,0.87-1.242,1.508c-0.287,0.634-0.429,1.344-0.429,2.136c0,1.229,0.332,2.208,0.992,2.937
			c0.66,0.729,1.514,1.092,2.56,1.092c0.992,0,1.919-0.335,2.787-1.005l0.433,1.058C78.122,117.529,77.029,117.884,75.785,117.884"
			/>
		<path style="fill:#1E1E1C;" d="M85.246,117.884c-0.654,0-1.271-0.111-1.854-0.339c-0.58-0.223-1.095-0.545-1.541-0.965
			c-0.448-0.418-0.802-0.959-1.062-1.617c-0.264-0.659-0.392-1.396-0.392-2.212c0-0.79,0.122-1.52,0.367-2.189
			c0.247-0.671,0.584-1.235,1.013-1.691c0.427-0.458,0.936-0.813,1.523-1.068c0.588-0.254,1.221-0.383,1.898-0.383
			c1.24,0,2.273,0.347,3.1,1.042l-0.514,0.906c-0.728-0.551-1.557-0.827-2.49-0.827c-0.705,0-1.328,0.186-1.867,0.553
			c-0.542,0.369-0.955,0.87-1.242,1.508c-0.286,0.634-0.429,1.344-0.429,2.136c0,1.229,0.33,2.208,0.99,2.937
			c0.66,0.729,1.516,1.092,2.56,1.092c0.994,0,1.923-0.335,2.789-1.005l0.433,1.058C87.584,117.529,86.49,117.884,85.246,117.884"/>
		<polygon style="fill:#1E1E1C;" points="90.503,117.732 90.503,107.601 96.402,107.601 96.402,108.722 91.794,108.722 
			91.794,111.906 96.146,111.906 96.146,113.037 91.794,113.037 91.794,116.613 96.598,116.613 96.598,117.732 		"/>
		<path style="fill:#1E1E1C;" d="M101.339,116.765c0.27,0,0.515-0.026,0.734-0.075c0.219-0.053,0.409-0.124,0.572-0.221
			c0.161-0.095,0.297-0.213,0.41-0.355c0.11-0.142,0.192-0.304,0.245-0.488c0.056-0.183,0.082-0.385,0.082-0.608
			c0-0.241-0.023-0.444-0.074-0.61c-0.051-0.164-0.144-0.319-0.286-0.47c-0.138-0.148-0.328-0.28-0.57-0.4
			c-0.241-0.117-0.561-0.239-0.957-0.365c-0.041-0.012-0.138-0.042-0.293-0.087c-0.155-0.043-0.26-0.075-0.311-0.093
			c-0.941-0.276-1.626-0.631-2.057-1.058c-0.433-0.427-0.646-1.042-0.646-1.844c0-0.572,0.144-1.06,0.433-1.47
			c0.289-0.407,0.675-0.708,1.161-0.906c0.483-0.195,1.042-0.296,1.673-0.296c1.329,0,2.342,0.354,3.037,1.058l-0.642,0.896
			c-0.231-0.231-0.542-0.428-0.934-0.59c-0.392-0.164-0.829-0.243-1.306-0.243c-0.621,0-1.118,0.126-1.491,0.383
			c-0.373,0.255-0.559,0.63-0.559,1.125c0,0.335,0.045,0.6,0.132,0.795c0.089,0.193,0.248,0.363,0.481,0.507
			c0.233,0.146,0.583,0.294,1.052,0.444c0.01,0.004,0.093,0.031,0.254,0.077c0.159,0.047,0.266,0.075,0.318,0.091
			c0.581,0.176,1.054,0.359,1.425,0.551c0.373,0.191,0.671,0.409,0.898,0.657c0.225,0.249,0.382,0.519,0.474,0.817
			c0.087,0.298,0.134,0.655,0.134,1.072c0,0.468-0.087,0.884-0.26,1.248c-0.175,0.365-0.416,0.661-0.72,0.888
			c-0.307,0.229-0.658,0.401-1.056,0.513c-0.396,0.119-0.829,0.176-1.298,0.176c-0.736,0-1.394-0.125-1.972-0.373
			c-0.58-0.247-1.003-0.503-1.269-0.768l0.574-0.961c0.289,0.239,0.668,0.462,1.137,0.667
			C100.333,116.659,100.825,116.765,101.339,116.765"/>
		<path style="fill:#1E1E1C;" d="M111.012,117.884c-1.486,0-2.661-0.47-3.515-1.413c-0.854-0.94-1.281-2.211-1.281-3.813
			c0-1.034,0.188-1.944,0.564-2.729c0.376-0.786,0.932-1.399,1.662-1.844c0.731-0.442,1.592-0.665,2.585-0.665
			c1.446,0,2.601,0.481,3.459,1.445c0.857,0.963,1.288,2.226,1.288,3.793c0,1.599-0.425,2.868-1.273,3.811
			C113.655,117.415,112.491,117.884,111.012,117.884 M110.998,116.765c1.101,0,1.938-0.365,2.512-1.096
			c0.57-0.732,0.857-1.735,0.857-3.012c0-1.246-0.287-2.246-0.863-2.994c-0.574-0.748-1.405-1.123-2.492-1.123
			c-1.083,0-1.921,0.377-2.519,1.131c-0.598,0.754-0.897,1.749-0.897,2.986c0,1.273,0.293,2.274,0.879,3.008
			C109.062,116.398,109.901,116.765,110.998,116.765"/>
		<path style="fill:#1E1E1C;" d="M120.733,117.732l3.821-10.131h1.38l3.841,10.131h-1.413l-1.015-2.706h-4.214l-0.993,2.706H120.733
			z M123.485,113.938h3.478c-0.574-1.666-1.15-3.313-1.73-4.948C124.644,110.648,124.062,112.296,123.485,113.938"/>
		<polygon style="fill:#1E1E1C;" points="135.382,117.732 135.382,107.601 136.675,107.601 136.675,116.613 141.253,116.613 
			141.253,117.732 		"/>
		<path style="fill:#1E1E1C;" d="M141.727,117.732l3.823-10.131h1.38l3.841,10.131h-1.415l-1.013-2.706h-4.214l-0.995,2.706H141.727
			z M144.48,113.938h3.479c-0.575-1.666-1.151-3.313-1.733-4.948C145.638,110.648,145.057,112.296,144.48,113.938"/>
		<path style="fill:#1E1E1C;" d="M156.562,120c-0.497,0-1.029-0.099-1.598-0.292l0.183-1.044c0.474,0.144,0.889,0.217,1.246,0.217
			c0.498,0,0.842-0.154,1.028-0.456c0.185-0.306,0.275-0.813,0.275-1.527v-9.296h1.293v9.291c0,1.069-0.204,1.855-0.609,2.358
			C157.975,119.75,157.369,120,156.562,120"/>
		<path style="fill:#1E1E1C;" d="M165.361,117.884c-2.589,0-3.883-1.35-3.883-4.05v-6.233h1.292v6.261
			c0,0.995,0.22,1.725,0.658,2.197c0.437,0.472,1.085,0.707,1.946,0.707c1.741,0,2.61-0.959,2.61-2.874v-6.29h1.285v6.219
			c0,0.618-0.072,1.168-0.216,1.652c-0.144,0.479-0.368,0.906-0.669,1.275c-0.302,0.369-0.709,0.651-1.218,0.845
			C166.658,117.79,166.057,117.884,165.361,117.884"/>
		<path style="fill:#1E1E1C;" d="M174.501,116.765c0.27,0,0.514-0.026,0.733-0.075c0.22-0.053,0.409-0.124,0.572-0.221
			c0.161-0.095,0.297-0.213,0.41-0.355c0.11-0.142,0.191-0.304,0.244-0.488c0.057-0.183,0.081-0.385,0.081-0.608
			c0-0.241-0.022-0.444-0.073-0.61c-0.051-0.164-0.144-0.319-0.285-0.47c-0.138-0.148-0.328-0.28-0.571-0.4
			c-0.24-0.117-0.561-0.239-0.956-0.365c-0.041-0.012-0.138-0.042-0.295-0.087c-0.155-0.043-0.259-0.075-0.309-0.093
			c-0.941-0.276-1.627-0.631-2.06-1.058c-0.431-0.427-0.645-1.042-0.645-1.844c0-0.572,0.144-1.06,0.433-1.47
			c0.29-0.407,0.676-0.708,1.159-0.906c0.485-0.195,1.044-0.296,1.675-0.296c1.329,0,2.343,0.354,3.037,1.058l-0.643,0.896
			c-0.23-0.231-0.541-0.428-0.934-0.59c-0.392-0.164-0.828-0.243-1.306-0.243c-0.621,0-1.12,0.126-1.49,0.383
			c-0.373,0.255-0.56,0.63-0.56,1.125c0,0.335,0.045,0.6,0.132,0.795c0.088,0.193,0.247,0.363,0.481,0.507
			c0.233,0.146,0.583,0.294,1.052,0.444c0.01,0.004,0.094,0.031,0.253,0.077c0.159,0.047,0.268,0.075,0.32,0.091
			c0.58,0.176,1.054,0.359,1.424,0.551c0.373,0.191,0.672,0.409,0.899,0.657c0.225,0.249,0.382,0.519,0.474,0.817
			c0.087,0.298,0.134,0.655,0.134,1.072c0,0.468-0.088,0.884-0.261,1.248c-0.175,0.365-0.415,0.661-0.72,0.888
			c-0.307,0.229-0.658,0.401-1.056,0.513c-0.396,0.119-0.829,0.176-1.299,0.176c-0.735,0-1.394-0.125-1.972-0.373
			c-0.58-0.247-1.003-0.503-1.27-0.768l0.575-0.961c0.289,0.239,0.667,0.462,1.137,0.667
			C173.493,116.659,173.986,116.765,174.501,116.765"/>
		<polygon style="fill:#1E1E1C;" points="181.866,117.732 181.866,108.722 178.722,108.722 178.722,107.601 186.324,107.601 
			186.324,108.722 183.16,108.722 183.16,117.732 		"/>
		<rect x="187.873" y="107.601" style="fill:#1E1E1C;" width="1.292" height="10.131"/>
		<path style="fill:#1E1E1C;" d="M196.045,117.884c-0.653,0-1.272-0.111-1.854-0.339c-0.58-0.223-1.094-0.545-1.542-0.965
			c-0.447-0.418-0.802-0.959-1.062-1.617c-0.26-0.659-0.392-1.396-0.392-2.212c0-0.79,0.122-1.52,0.369-2.189
			c0.244-0.671,0.582-1.235,1.011-1.691c0.429-0.458,0.936-0.813,1.525-1.068c0.588-0.254,1.221-0.383,1.896-0.383
			c1.244,0,2.276,0.347,3.102,1.042l-0.515,0.906c-0.726-0.551-1.559-0.827-2.49-0.827c-0.704,0-1.327,0.186-1.869,0.553
			c-0.539,0.369-0.955,0.87-1.24,1.508c-0.287,0.634-0.431,1.344-0.431,2.136c0,1.229,0.332,2.208,0.992,2.937
			c0.661,0.729,1.514,1.092,2.56,1.092c0.994,0,1.924-0.335,2.789-1.005l0.435,1.058
			C198.386,117.529,197.289,117.884,196.045,117.884"/>
		<rect x="201.411" y="107.601" style="fill:#1E1E1C;" width="1.291" height="10.131"/>
		<path style="fill:#1E1E1C;" d="M204.218,117.732l3.821-10.131h1.378l3.843,10.131h-1.412l-1.018-2.706h-4.211l-0.994,2.706
			H204.218z M206.97,113.938h3.477c-0.573-1.666-1.151-3.313-1.729-4.948C208.131,110.648,207.549,112.296,206.97,113.938"/>
	</g>
	<g>
		<path style="fill:#1E1E1C;" d="M26.965,58.512c-3.552,0-6.931-0.629-10.135-1.885c-3.206-1.255-6.067-3.05-8.582-5.384
			c-2.516-2.334-4.519-5.332-6.011-8.999C0.745,38.58,0,34.502,0,30.012c0-3.752,0.499-7.222,1.497-10.408
			c0.999-3.184,2.35-5.885,4.05-8.104c1.702-2.219,3.676-4.115,5.919-5.688c2.243-1.573,4.611-2.727,7.101-3.462
			c2.492-0.736,5.044-1.104,7.658-1.104c7.053,0,13.044,1.991,17.978,5.974l-3.662,6.735c-4.095-2.917-8.607-4.376-13.539-4.376
			c-2.294,0-4.469,0.469-6.529,1.407c-2.059,0.939-3.877,2.259-5.456,3.958c-1.58,1.7-2.837,3.844-3.772,6.431
			c-0.938,2.587-1.405,5.428-1.405,8.522c0,6.114,1.675,11.023,5.03,14.726c3.352,3.703,7.594,5.554,12.724,5.554
			c5.401,0,10.358-1.863,14.87-5.594l3.144,7.649C40.38,56.418,34.166,58.512,26.965,58.512"/>
		<path style="fill:#1E1E1C;" d="M111.111,57.675l21.641-55.402h9.544l21.822,55.402h-10.616l-5.217-13.51h-21.748l-5.104,13.51
			H111.111z M130.052,35.149h14.426c-2.835-8.651-5.215-15.841-7.138-21.575C135.734,18.368,133.309,25.561,130.052,35.149"/>
		<path style="fill:#1E1E1C;" d="M199.721,70.269c-3.527,0-7.486-0.813-11.874-2.436l1.702-7.343c3.379,1.117,6.2,1.674,8.472,1.674
			c5.054,0,7.582-2.892,7.582-8.674V2.273H215v50.759c0,5.529-1.345,9.785-4.033,12.766
			C208.277,68.777,204.529,70.269,199.721,70.269"/>
		<g>
			<polygon style="fill:#1E1E1C;" points="92.141,0 91.514,0 65.143,0 62.212,0 61.375,0 61.375,11.626 65.143,11.626 65.143,3.875 
				91.514,3.875 91.514,11.626 95.281,11.626 95.281,0 			"/>
			<rect x="68.91" y="7.75" style="fill:#1E1E1C;" width="18.835" height="3.876"/>
			<polygon style="fill:#1E1E1C;" points="64.514,58.13 65.143,58.13 91.514,58.13 94.444,58.13 95.281,58.13 95.281,46.502 
				91.514,46.502 91.514,54.254 65.143,54.254 65.143,46.502 61.375,46.502 61.375,58.13 			"/>
			<rect x="68.91" y="46.504" style="fill:#1E1E1C;" width="18.835" height="3.875"/>
			<rect x="68.91" y="15.5" style="fill:#1E1E1C;" width="3.765" height="27.128"/>
			<rect x="76.443" y="15.5" style="fill:#1E1E1C;" width="3.767" height="27.128"/>
			<rect x="83.978" y="15.5" style="fill:#1E1E1C;" width="3.767" height="27.128"/>
		</g>
	</g>
</g>
</svg>
