<?xml version="1.0" encoding="iso-8859-1"?>
<!-- Generator: Adobe Illustrator 15.1.0, SVG Export Plug-In . SVG Version: 6.00 Build 0)  -->
<!DOCTYPE svg PUBLIC "-//W3C//DTD SVG 1.1//EN" "http://www.w3.org/Graphics/SVG/1.1/DTD/svg11.dtd">
<svg version="1.1" id="Capa_1" xmlns="http://www.w3.org/2000/svg" xmlns:xlink="http://www.w3.org/1999/xlink" x="0px" y="0px"
	 width="360px" height="400px" viewBox="0 0 360 400" style="enable-background:new 0 0 360 400;" xml:space="preserve">
<g>
	<path style="fill:#B79F63;" d="M344.541,276.511c-7.713,0.021-13.962,6.246-14.176,13.993L171.08,338.057l-73.913-58.51
		L84.951,159.808l93.734-74.765l151.31,47.888c-0.034,0.413-0.06,0.828-0.059,1.25c0.02,7.951,6.41,14.381,14.27,14.359
		c7.861-0.021,14.219-6.484,14.199-14.436c-0.021-7.951-6.412-14.38-14.273-14.358c-1.616,0.004-3.163,0.294-4.609,0.8
		l-62.378-89.093c1.22-2.787,1.9-5.869,1.892-9.114C279.004,9.97,269.065-0.03,256.836,0.003
		c-12.228,0.033-22.113,10.086-22.082,22.455c0,0.018,0.001,0.035,0.001,0.054L86.82,41.461c-2.82-4.444-7.742-7.391-13.349-7.376
		c-8.734,0.023-15.797,7.203-15.773,16.038c0.017,6.218,3.545,11.585,8.674,14.219L14.04,197.694
		c-7.333,1.408-12.872,7.923-12.853,15.746c0.023,8.835,7.123,15.977,15.857,15.953c0.666-0.002,1.317-0.059,1.961-0.141
		l71.914,108.484c-5.305,4.104-8.723,10.576-8.704,17.854c0.033,12.367,9.971,22.367,22.199,22.336
		c8.423-0.021,15.735-4.8,19.459-11.813l86.559,18.688c0.417,8.48,7.335,15.218,15.815,15.195
		c8.734-0.023,15.798-7.203,15.772-16.037c-0.006-2.71-0.684-5.257-1.865-7.49l93.639-76.18c2.618,3.075,6.493,5.025,10.82,5.015
		c7.861-0.021,14.219-6.484,14.197-14.435C358.793,282.919,352.4,276.491,344.541,276.511z M167.354,339.169l-41.225,12.307
		c-1.893-10.453-10.951-18.364-21.83-18.338c-0.558,0.002-1.11,0.031-1.658,0.073l-5.024-49.244L167.354,339.169z M93.706,276.808
		l-65.657-51.975c2.949-2.914,4.782-6.978,4.77-11.477c-0.009-3.555-1.178-6.824-3.124-9.475l52.314-41.728L93.706,276.808z
		 M84.566,156.041l-9.19-90.083c5.721-0.68,10.503-4.438,12.683-9.597l86.97,27.524L84.566,156.041z M336.628,121.948
		c-2.826,1.792-4.989,4.55-6.02,7.825L181.693,82.643l57.947-46.22c4.071,5.117,10.315,8.39,17.313,8.371
		c7.76-0.021,14.573-4.082,18.511-10.206L336.628,121.948z M234.998,25.705c0.427,2.917,1.412,5.648,2.837,8.085l-59.798,47.696
		L89.005,53.308c0.214-1.056,0.327-2.148,0.324-3.269c-0.005-1.953-0.373-3.814-1.011-5.543L234.998,25.705z M72.202,66.012
		l9.423,92.375L27.56,201.511c-2.676-2.433-6.168-3.949-10.015-4.08l51.78-131.938C70.254,65.751,71.213,65.93,72.202,66.012z
		 M22.29,228.459c1.134-0.407,2.208-0.938,3.206-1.583l68.662,54.352l5.351,52.455c-2.111,0.478-4.107,1.258-5.943,2.296
		L22.29,228.459z M126.478,354.717l43.945-13.119l42.54,33.674c-1.204,1.865-2.021,4.001-2.367,6.295l-85.403-18.441
		c0.852-2.389,1.314-4.965,1.307-7.651C126.498,355.22,126.486,354.969,126.478,354.717z M238.391,373.802
		c-2.909-3.553-7.308-5.811-12.224-5.799c-4.396,0.012-8.366,1.839-11.225,4.774l-40.793-32.292l156.48-46.715
		c0.274,1.373,0.744,2.672,1.374,3.872L238.391,373.802z"/>
	<g>
		<g>
			<path style="fill:#71767C;" d="M140.963,246.446c-0.656,0-1.279-0.111-1.865-0.334c-0.584-0.221-1.102-0.541-1.551-0.955
				c-0.451-0.416-0.809-0.949-1.07-1.604c-0.262-0.652-0.395-1.381-0.395-2.186c0-0.783,0.125-1.504,0.371-2.168
				s0.588-1.221,1.018-1.674c0.432-0.451,0.943-0.803,1.533-1.057c0.594-0.252,1.23-0.379,1.912-0.379
				c1.248,0,2.287,0.344,3.117,1.033l-0.518,0.895c-0.73-0.545-1.564-0.82-2.504-0.82c-0.709,0-1.336,0.184-1.879,0.551
				c-0.545,0.365-0.963,0.861-1.25,1.49s-0.434,1.332-0.434,2.111c0,1.219,0.334,2.188,0.998,2.908
				c0.666,0.721,1.523,1.08,2.576,1.08c0.998,0,1.936-0.33,2.807-0.992l0.436,1.047
				C143.317,246.097,142.215,246.446,140.963,246.446"/>
			<polygon style="fill:#71767C;" points="146.252,246.296 146.252,236.269 152.188,236.269 152.188,237.378 147.553,237.378 
				147.553,240.532 151.93,240.532 151.93,241.647 147.553,241.647 147.553,245.187 152.385,245.187 152.385,246.296 			"/>
			<polygon style="fill:#71767C;" points="154.448,246.296 154.448,236.269 155.833,236.269 160.608,243.321 161.346,244.493 
				161.346,236.269 162.584,236.269 162.584,246.296 161.196,246.296 156.54,239.507 155.668,238.13 155.668,246.296 			"/>
			<polygon style="fill:#71767C;" points="167.186,246.296 167.186,237.378 164.02,237.378 164.02,236.269 171.672,236.269 
				171.672,237.378 168.485,237.378 168.485,246.296 			"/>
			<path style="fill:#71767C;" d="M173.122,246.296v-10.027h3.172c0.408,0,0.775,0.023,1.098,0.066
				c0.322,0.045,0.631,0.127,0.928,0.246c0.297,0.117,0.545,0.273,0.738,0.469c0.195,0.197,0.352,0.453,0.467,0.77
				s0.174,0.689,0.174,1.115c0,0.629-0.158,1.154-0.477,1.578c-0.316,0.42-0.801,0.701-1.451,0.838
				c0.373,0.121,0.666,0.326,0.883,0.623s0.434,0.727,0.656,1.293l1.164,3.029h-1.389l-1.088-2.947
				c-0.156-0.422-0.297-0.732-0.426-0.93c-0.131-0.197-0.299-0.342-0.508-0.438c-0.209-0.092-0.496-0.141-0.863-0.141h-1.777v4.455
				H173.122z M174.417,240.731h1.844c0.658,0,1.17-0.131,1.531-0.395c0.363-0.264,0.545-0.709,0.545-1.326
				c0-0.252-0.025-0.473-0.078-0.656c-0.053-0.188-0.129-0.342-0.225-0.467c-0.1-0.123-0.229-0.223-0.389-0.297
				c-0.162-0.078-0.34-0.133-0.541-0.162c-0.201-0.035-0.436-0.051-0.707-0.051h-0.025h-0.023h-0.025h-1.906V240.731z"/>
			<path style="fill:#71767C;" d="M186.575,246.446c-1.5,0-2.678-0.465-3.537-1.396c-0.861-0.932-1.291-2.191-1.291-3.773
				c0-1.025,0.189-1.924,0.568-2.703c0.379-0.777,0.936-1.387,1.672-1.822c0.734-0.441,1.602-0.66,2.6-0.66
				c1.457,0,2.617,0.477,3.482,1.428c0.865,0.955,1.297,2.205,1.297,3.758c0,1.578-0.426,2.836-1.279,3.77
				S188.061,246.446,186.575,246.446 M186.559,245.339c1.107,0,1.949-0.361,2.525-1.084c0.578-0.723,0.865-1.719,0.865-2.979
				c0-1.234-0.289-2.225-0.869-2.963c-0.578-0.742-1.414-1.115-2.506-1.115c-1.09,0-1.936,0.375-2.537,1.119
				c-0.602,0.748-0.902,1.732-0.902,2.959c0,1.258,0.295,2.25,0.885,2.975C184.61,244.978,185.458,245.339,186.559,245.339"/>
			<path style="fill:#71767C;" d="M197.518,246.296v-10.027h2.439c1.912,0,3.377,0.412,4.389,1.234
				c1.012,0.82,1.52,2.086,1.52,3.793c0,1.598-0.471,2.832-1.41,3.699s-2.291,1.301-4.059,1.301H197.518z M198.819,245.187h1.648
				c1.324,0,2.326-0.338,3.004-1.014c0.68-0.678,1.018-1.639,1.018-2.877c0-1.336-0.361-2.322-1.084-2.961
				c-0.725-0.637-1.834-0.957-3.328-0.957h-1.258V245.187z"/>
			<polygon style="fill:#71767C;" points="207.995,246.296 207.995,236.269 213.932,236.269 213.932,237.378 209.295,237.378 
				209.295,240.532 213.672,240.532 213.672,241.647 209.295,241.647 209.295,245.187 214.129,245.187 214.129,246.296 			"/>
			<rect x="220.358" y="236.269" style="fill:#71767C;" width="1.299" height="10.027"/>
			<polygon style="fill:#71767C;" points="224.346,246.296 224.346,236.269 225.729,236.269 230.506,243.321 231.243,244.493 
				231.243,236.269 232.481,236.269 232.481,246.296 231.092,246.296 226.438,239.507 225.565,238.13 225.565,246.296 			"/>
			<polygon style="fill:#71767C;" points="235.223,246.296 235.223,236.269 236.607,236.269 241.384,243.321 242.121,244.493 
				242.121,236.269 243.359,236.269 243.359,246.296 241.97,246.296 237.314,239.507 236.443,238.13 236.443,246.296 			"/>
			<path style="fill:#71767C;" d="M250.281,246.446c-1.496,0-2.676-0.465-3.537-1.396c-0.859-0.932-1.287-2.191-1.287-3.773
				c0-1.025,0.188-1.924,0.566-2.703c0.379-0.777,0.938-1.387,1.672-1.822c0.736-0.441,1.602-0.66,2.602-0.66
				c1.454,0,2.616,0.477,3.479,1.428c0.863,0.955,1.299,2.205,1.299,3.758c0,1.578-0.43,2.836-1.281,3.77
				C252.94,245.979,251.77,246.446,250.281,246.446 M250.269,245.339c1.106,0,1.946-0.361,2.524-1.084
				c0.574-0.723,0.863-1.719,0.863-2.979c0-1.234-0.289-2.225-0.869-2.963c-0.576-0.742-1.412-1.115-2.507-1.115
				c-1.088,0-1.934,0.375-2.535,1.119c-0.602,0.748-0.9,1.732-0.9,2.959c0,1.258,0.293,2.25,0.885,2.975
				C248.32,244.978,249.164,245.339,250.269,245.339"/>
			<path style="fill:#71767C;" d="M259.717,246.296l-3.719-10.027h1.451c0.082,0.23,0.496,1.42,1.248,3.57
				c0.75,2.146,1.324,3.777,1.719,4.887c0.391-1.119,0.961-2.744,1.713-4.867c0.75-2.127,1.174-3.32,1.27-3.59h1.367l-3.689,10.027
				H259.717z"/>
			<path style="fill:#71767C;" d="M265.182,246.296l3.846-10.027h1.389l3.867,10.027h-1.422l-1.023-2.678h-4.24l-1,2.678H265.182z
				 M267.952,242.542h3.5c-0.576-1.646-1.158-3.279-1.742-4.895C269.12,239.284,268.534,240.919,267.952,242.542"/>
			<path style="fill:#71767C;" d="M280.104,246.446c-0.658,0-1.281-0.111-1.865-0.334c-0.584-0.221-1.102-0.541-1.553-0.955
				c-0.447-0.416-0.805-0.949-1.068-1.604c-0.262-0.652-0.395-1.381-0.395-2.186c0-0.783,0.123-1.504,0.371-2.168
				s0.586-1.221,1.018-1.674c0.432-0.451,0.941-0.803,1.535-1.057c0.594-0.252,1.23-0.379,1.908-0.379
				c1.25,0,2.289,0.344,3.119,1.033l-0.518,0.895c-0.73-0.545-1.566-0.82-2.504-0.82c-0.709,0-1.334,0.184-1.881,0.551
				c-0.543,0.365-0.959,0.861-1.248,1.49s-0.432,1.332-0.432,2.111c0,1.219,0.332,2.188,0.998,2.908
				c0.664,0.721,1.521,1.08,2.576,1.08c0.998,0,1.932-0.33,2.803-0.992l0.438,1.047
				C282.458,246.097,281.358,246.446,280.104,246.446"/>
			<rect x="285.502" y="236.269" style="fill:#71767C;" width="1.301" height="10.027"/>
			<path style="fill:#71767C;" d="M293.672,246.446c-1.5,0-2.678-0.465-3.537-1.396c-0.861-0.932-1.291-2.191-1.291-3.773
				c0-1.025,0.189-1.924,0.568-2.703c0.379-0.777,0.936-1.387,1.672-1.822c0.734-0.441,1.602-0.66,2.6-0.66
				c1.459,0,2.617,0.477,3.484,1.428c0.863,0.955,1.295,2.205,1.295,3.758c0,1.578-0.426,2.836-1.279,3.77
				S295.159,246.446,293.672,246.446 M293.657,245.339c1.107,0,1.949-0.361,2.525-1.084c0.578-0.723,0.867-1.719,0.867-2.979
				c0-1.234-0.291-2.225-0.871-2.963c-0.578-0.742-1.414-1.115-2.506-1.115c-1.09,0-1.936,0.375-2.537,1.119
				c-0.602,0.748-0.902,1.732-0.902,2.959c0,1.258,0.295,2.25,0.885,2.975C291.708,244.978,292.555,245.339,293.657,245.339
				 M293.215,235.265l1.607-2.479h1.611l-2.17,2.479H293.215z"/>
			<polygon style="fill:#71767C;" points="300.559,246.296 300.559,236.269 301.942,236.269 306.721,243.321 307.456,244.493 
				307.456,236.269 308.694,236.269 308.694,246.296 307.305,246.296 302.649,239.507 301.778,238.13 301.778,246.296 			"/>
			<path style="fill:#71767C;" d="M118.883,267.181v-10.025h2.852c0.502,0,0.936,0.02,1.305,0.062
				c0.369,0.041,0.725,0.119,1.066,0.24c0.34,0.119,0.615,0.279,0.828,0.479c0.209,0.199,0.377,0.465,0.502,0.793
				c0.125,0.332,0.188,0.723,0.188,1.172c0,0.506-0.082,0.938-0.246,1.295c-0.162,0.359-0.402,0.643-0.723,0.848
				c-0.32,0.207-0.697,0.357-1.129,0.451c-0.43,0.094-0.936,0.141-1.518,0.141h-1.824v4.545H118.883z M120.184,261.528h1.805
				c0.785,0,1.365-0.119,1.742-0.357c0.377-0.24,0.566-0.66,0.566-1.262c0-0.225-0.025-0.424-0.07-0.596
				c-0.043-0.172-0.117-0.318-0.213-0.441c-0.1-0.119-0.213-0.223-0.342-0.303c-0.127-0.08-0.287-0.141-0.477-0.186
				c-0.188-0.043-0.385-0.074-0.592-0.094c-0.205-0.016-0.445-0.025-0.719-0.025h-0.027h-0.021h-0.025h-0.023h-0.023h-1.58V261.528z
				"/>
			<path style="fill:#71767C;" d="M126.297,267.181l3.846-10.025h1.391l3.865,10.025h-1.424l-1.02-2.678h-4.242l-0.998,2.678
				H126.297z M129.069,263.427h3.498c-0.576-1.648-1.156-3.279-1.742-4.896C130.235,260.171,129.649,261.802,129.069,263.427"/>
			<path style="fill:#71767C;" d="M136.985,267.181v-10.025h3.172c0.41,0,0.775,0.021,1.098,0.066
				c0.322,0.043,0.631,0.123,0.928,0.244c0.299,0.119,0.545,0.275,0.74,0.471s0.35,0.451,0.465,0.768s0.174,0.688,0.174,1.115
				c0,0.629-0.158,1.152-0.477,1.576c-0.316,0.422-0.801,0.703-1.449,0.842c0.373,0.119,0.666,0.326,0.881,0.621
				c0.215,0.297,0.436,0.727,0.656,1.291l1.164,3.031h-1.389l-1.09-2.949c-0.152-0.42-0.295-0.73-0.424-0.93
				c-0.131-0.195-0.299-0.342-0.508-0.438c-0.209-0.092-0.498-0.139-0.863-0.139h-1.779v4.455H136.985z M138.28,261.616h1.844
				c0.658,0,1.17-0.131,1.531-0.396c0.361-0.264,0.545-0.705,0.545-1.326c0-0.25-0.025-0.471-0.078-0.656
				c-0.053-0.188-0.127-0.342-0.225-0.465c-0.098-0.125-0.227-0.225-0.389-0.299c-0.16-0.074-0.34-0.131-0.541-0.162
				c-0.199-0.031-0.436-0.049-0.707-0.049h-0.025h-0.023h-0.025h-1.906V261.616z"/>
			<path style="fill:#71767C;" d="M145.092,267.181l3.846-10.025h1.389l3.867,10.025h-1.422l-1.021-2.678h-4.242l-1,2.678H145.092z
				 M147.864,263.427h3.498c-0.576-1.648-1.156-3.279-1.742-4.896C149.03,260.171,148.444,261.802,147.864,263.427"/>
			<polygon style="fill:#71767C;" points="159.838,267.181 159.838,257.155 165.774,257.155 165.774,258.265 161.137,258.265 
				161.137,261.415 165.516,261.415 165.516,262.534 161.137,262.534 161.137,266.073 165.971,266.073 165.971,267.181 			"/>
			<polygon style="fill:#71767C;" points="168.034,267.181 168.034,257.155 169.334,257.155 169.334,266.073 173.944,266.073 
				173.944,267.181 			"/>
			<path style="fill:#71767C;" d="M178.475,267.181l3.848-10.025h1.389l3.865,10.025h-1.422l-1.021-2.678h-4.24l-1,2.678H178.475z
				 M181.247,263.427h3.5c-0.578-1.648-1.158-3.279-1.744-4.896C182.413,260.171,181.827,261.802,181.247,263.427"/>
			<path style="fill:#71767C;" d="M193.399,267.331c-0.66,0-1.281-0.109-1.865-0.336c-0.586-0.221-1.104-0.539-1.553-0.955
				c-0.449-0.414-0.807-0.949-1.068-1.6c-0.264-0.652-0.395-1.381-0.395-2.189c0-0.781,0.121-1.504,0.369-2.166
				c0.248-0.664,0.586-1.223,1.02-1.674c0.432-0.453,0.941-0.805,1.535-1.057c0.592-0.252,1.229-0.379,1.908-0.379
				c1.248,0,2.287,0.344,3.117,1.031l-0.518,0.896c-0.729-0.545-1.564-0.818-2.504-0.818c-0.709,0-1.334,0.184-1.879,0.547
				c-0.545,0.365-0.961,0.861-1.25,1.492c-0.289,0.627-0.432,1.33-0.432,2.113c0,1.217,0.334,2.186,0.998,2.906
				s1.523,1.08,2.576,1.08c0.998,0,1.932-0.332,2.805-0.994l0.436,1.047C195.75,266.979,194.651,267.331,193.399,267.331"/>
			<path style="fill:#71767C;" d="M202.92,267.331c-0.658,0-1.279-0.109-1.865-0.336c-0.584-0.221-1.102-0.539-1.551-0.955
				c-0.451-0.414-0.807-0.949-1.068-1.6c-0.266-0.652-0.395-1.381-0.395-2.189c0-0.781,0.123-1.504,0.369-2.166
				c0.248-0.664,0.588-1.223,1.02-1.674c0.43-0.453,0.941-0.805,1.533-1.057s1.229-0.379,1.91-0.379
				c1.248,0,2.287,0.344,3.119,1.031l-0.518,0.896c-0.732-0.545-1.566-0.818-2.506-0.818c-0.709,0-1.336,0.184-1.879,0.547
				c-0.545,0.365-0.961,0.861-1.25,1.492c-0.287,0.627-0.432,1.33-0.432,2.113c0,1.217,0.332,2.186,0.996,2.906
				s1.525,1.08,2.576,1.08c1,0,1.936-0.332,2.807-0.994l0.436,1.047C205.274,266.979,204.172,267.331,202.92,267.331"/>
			<polygon style="fill:#71767C;" points="208.211,267.181 208.211,257.155 214.147,257.155 214.147,258.265 209.51,258.265 
				209.51,261.415 213.889,261.415 213.889,262.534 209.51,262.534 209.51,266.073 214.344,266.073 214.344,267.181 			"/>
			<path style="fill:#71767C;" d="M219.116,266.224c0.271,0,0.518-0.025,0.738-0.074c0.221-0.053,0.412-0.123,0.576-0.219
				c0.162-0.094,0.299-0.211,0.412-0.352c0.111-0.141,0.193-0.301,0.246-0.482c0.057-0.182,0.082-0.381,0.082-0.602
				c0-0.238-0.023-0.439-0.074-0.604c-0.051-0.162-0.145-0.316-0.287-0.465c-0.139-0.146-0.33-0.277-0.574-0.396
				c-0.242-0.115-0.564-0.236-0.963-0.361c-0.041-0.012-0.139-0.041-0.295-0.086c-0.156-0.043-0.262-0.074-0.312-0.092
				c-0.947-0.273-1.637-0.625-2.07-1.047c-0.436-0.422-0.65-1.031-0.65-1.824c0-0.566,0.145-1.049,0.436-1.455
				c0.291-0.402,0.68-0.701,1.168-0.896c0.486-0.193,1.049-0.293,1.684-0.293c1.338,0,2.357,0.35,3.057,1.047l-0.646,0.887
				c-0.232-0.229-0.545-0.424-0.939-0.584c-0.395-0.162-0.834-0.24-1.314-0.24c-0.625,0-1.125,0.125-1.5,0.379
				c-0.375,0.252-0.562,0.623-0.562,1.113c0,0.332,0.045,0.594,0.133,0.787c0.09,0.191,0.25,0.359,0.484,0.502
				c0.234,0.145,0.586,0.291,1.059,0.439c0.01,0.004,0.094,0.031,0.256,0.076c0.16,0.047,0.268,0.074,0.32,0.09
				c0.584,0.174,1.061,0.355,1.434,0.545c0.375,0.189,0.676,0.404,0.904,0.65c0.227,0.246,0.385,0.514,0.477,0.809
				c0.088,0.295,0.135,0.648,0.135,1.061c0,0.463-0.088,0.875-0.262,1.234c-0.176,0.361-0.418,0.654-0.725,0.879
				c-0.309,0.227-0.662,0.396-1.062,0.508c-0.398,0.117-0.834,0.174-1.307,0.174c-0.74,0-1.402-0.123-1.984-0.369
				c-0.584-0.244-1.01-0.498-1.277-0.76l0.578-0.951c0.291,0.236,0.672,0.457,1.145,0.66
				C218.104,266.118,218.598,266.224,219.116,266.224"/>
			<path style="fill:#71767C;" d="M228.85,267.331c-1.496,0-2.678-0.465-3.537-1.398c-0.859-0.93-1.289-2.188-1.289-3.773
				c0-1.023,0.189-1.924,0.568-2.701s0.938-1.385,1.672-1.824c0.736-0.438,1.602-0.658,2.602-0.658c1.455,0,2.617,0.477,3.48,1.43
				s1.297,2.203,1.297,3.754c0,1.582-0.428,2.838-1.281,3.771C231.51,266.866,230.338,267.331,228.85,267.331 M228.836,266.224
				c1.107,0,1.949-0.361,2.527-1.084c0.574-0.725,0.863-1.717,0.863-2.98c0-1.232-0.289-2.223-0.869-2.963
				c-0.578-0.74-1.414-1.111-2.508-1.111c-1.09,0-1.934,0.373-2.535,1.119s-0.902,1.73-0.902,2.955c0,1.26,0.295,2.25,0.885,2.977
				C226.887,265.86,227.733,266.224,228.836,266.224"/>
			<path style="fill:#71767C;" d="M238.632,267.181l3.846-10.025h1.389l3.865,10.025h-1.422l-1.021-2.678h-4.24l-1,2.678H238.632z
				 M241.402,263.427h3.5c-0.578-1.648-1.158-3.279-1.742-4.896C242.568,260.171,241.982,261.802,241.402,263.427"/>
			<polygon style="fill:#71767C;" points="253.375,267.181 253.375,257.155 254.676,257.155 254.676,266.073 259.284,266.073 
				259.284,267.181 			"/>
			<path style="fill:#71767C;" d="M259.76,267.181l3.848-10.025h1.389l3.865,10.025h-1.424l-1.02-2.678h-4.24l-1.002,2.678H259.76z
				 M262.532,263.427h3.5c-0.578-1.648-1.158-3.279-1.744-4.896C263.696,260.171,263.112,261.802,262.532,263.427"/>
			<path style="fill:#71767C;" d="M274.69,269.425c-0.5,0-1.035-0.098-1.607-0.289l0.184-1.033c0.477,0.143,0.895,0.215,1.254,0.215
				c0.502,0,0.848-0.152,1.035-0.451c0.186-0.303,0.277-0.805,0.277-1.512v-9.199h1.301v9.193c0,1.059-0.205,1.836-0.613,2.334
				C276.112,269.177,275.502,269.425,274.69,269.425"/>
			<path style="fill:#71767C;" d="M283.545,267.331c-2.605,0-3.908-1.336-3.908-4.008v-6.168h1.301v6.195
				c0,0.984,0.221,1.707,0.662,2.174c0.439,0.467,1.092,0.699,1.959,0.699c1.752,0,2.627-0.949,2.627-2.844v-6.225h1.293v6.154
				c0,0.611-0.072,1.156-0.217,1.635c-0.145,0.475-0.371,0.896-0.674,1.262s-0.713,0.645-1.225,0.836
				C284.85,267.237,284.245,267.331,283.545,267.331"/>
			<path style="fill:#71767C;" d="M292.743,266.224c0.271,0,0.518-0.025,0.738-0.074c0.221-0.053,0.412-0.123,0.576-0.219
				c0.162-0.094,0.299-0.211,0.412-0.352c0.111-0.141,0.193-0.301,0.246-0.482c0.057-0.182,0.082-0.381,0.082-0.602
				c0-0.238-0.023-0.439-0.074-0.604c-0.051-0.162-0.145-0.316-0.287-0.465c-0.139-0.146-0.33-0.277-0.574-0.396
				c-0.242-0.115-0.564-0.236-0.963-0.361c-0.041-0.012-0.139-0.041-0.297-0.086c-0.156-0.043-0.26-0.074-0.311-0.092
				c-0.947-0.273-1.637-0.625-2.072-1.047c-0.434-0.422-0.648-1.031-0.648-1.824c0-0.566,0.145-1.049,0.436-1.455
				c0.291-0.402,0.68-0.701,1.166-0.896c0.488-0.193,1.051-0.293,1.686-0.293c1.338,0,2.357,0.35,3.057,1.047l-0.646,0.887
				c-0.232-0.229-0.545-0.424-0.939-0.584c-0.395-0.162-0.834-0.24-1.314-0.24c-0.625,0-1.127,0.125-1.5,0.379
				c-0.375,0.252-0.562,0.623-0.562,1.113c0,0.332,0.045,0.594,0.133,0.787c0.088,0.191,0.248,0.359,0.484,0.502
				c0.234,0.145,0.586,0.291,1.059,0.439c0.01,0.004,0.094,0.031,0.254,0.076c0.16,0.047,0.27,0.074,0.322,0.09
				c0.584,0.174,1.061,0.355,1.434,0.545c0.375,0.189,0.676,0.404,0.904,0.65c0.227,0.246,0.385,0.514,0.477,0.809
				c0.088,0.295,0.135,0.648,0.135,1.061c0,0.463-0.088,0.875-0.262,1.234c-0.176,0.361-0.418,0.654-0.725,0.879
				c-0.309,0.227-0.662,0.396-1.062,0.508c-0.398,0.117-0.834,0.174-1.307,0.174c-0.74,0-1.402-0.123-1.984-0.369
				c-0.584-0.244-1.01-0.498-1.277-0.76l0.578-0.951c0.291,0.236,0.672,0.457,1.145,0.66
				C291.729,266.118,292.225,266.224,292.743,266.224"/>
			<polygon style="fill:#71767C;" points="300.155,267.181 300.155,258.265 296.991,258.265 296.991,257.155 304.641,257.155 
				304.641,258.265 301.458,258.265 301.458,267.181 			"/>
			<rect x="306.2" y="257.155" style="fill:#71767C;" width="1.301" height="10.025"/>
			<path style="fill:#71767C;" d="M314.424,267.331c-0.658,0-1.281-0.109-1.865-0.336c-0.584-0.221-1.102-0.539-1.553-0.955
				c-0.449-0.414-0.807-0.949-1.068-1.6c-0.262-0.652-0.395-1.381-0.395-2.189c0-0.781,0.123-1.504,0.371-2.166
				c0.246-0.664,0.586-1.223,1.018-1.674c0.432-0.453,0.941-0.805,1.535-1.057c0.592-0.252,1.229-0.379,1.908-0.379
				c1.251,0,2.29,0.344,3.12,1.031l-0.518,0.896c-0.73-0.545-1.567-0.818-2.505-0.818c-0.709,0-1.336,0.184-1.881,0.547
				c-0.543,0.365-0.961,0.861-1.248,1.492c-0.289,0.627-0.434,1.33-0.434,2.113c0,1.217,0.334,2.186,0.998,2.906
				c0.666,0.721,1.523,1.08,2.576,1.08c0.999,0,1.935-0.332,2.806-0.994l0.438,1.047
				C316.779,266.979,315.675,267.331,314.424,267.331"/>
			<rect x="319.824" y="257.155" style="fill:#71767C;" width="1.299" height="10.025"/>
			<path style="fill:#71767C;" d="M322.648,267.181l3.846-10.025h1.387l3.867,10.025h-1.422l-1.023-2.678h-4.238l-1,2.678H322.648z
				 M325.418,263.427h3.498c-0.576-1.648-1.158-3.279-1.74-4.896C326.586,260.171,326,261.802,325.418,263.427"/>
		</g>
		<g>
			<path style="fill:#71767C;" d="M132.161,208.579c-3.574,0-6.975-0.623-10.199-1.865c-3.227-1.242-6.105-3.019-8.637-5.328
				s-4.547-5.276-6.049-8.904c-1.502-3.627-2.252-7.662-2.252-12.105c0-3.713,0.502-7.146,1.506-10.299
				c1.006-3.15,2.365-5.823,4.076-8.02c1.713-2.195,3.699-4.072,5.957-5.629s4.641-2.698,7.146-3.426
				c2.508-0.729,5.076-1.093,7.707-1.093c7.098,0,13.127,1.971,18.092,5.912l-3.686,6.665c-4.121-2.887-8.662-4.331-13.625-4.331
				c-2.309,0-4.498,0.464-6.57,1.393c-2.072,0.93-3.902,2.235-5.49,3.916c-1.59,1.683-2.855,3.804-3.797,6.364
				c-0.943,2.561-1.414,5.371-1.414,8.434c0,6.05,1.686,10.908,5.062,14.572c3.373,3.664,7.643,5.496,12.805,5.496
				c5.436,0,10.424-1.844,14.965-5.535l3.164,7.569C145.661,206.507,139.407,208.579,132.161,208.579"/>
			<path style="fill:#71767C;" d="M216.842,207.751l21.776-54.824h9.605l21.962,54.824h-10.684l-5.25-13.369h-21.887l-5.137,13.369
				H216.842z M235.903,185.46h14.517c-2.854-8.561-5.248-15.676-7.184-21.35C241.621,168.854,239.179,175.972,235.903,185.46"/>
			<path style="fill:#71767C;" d="M306.014,220.213c-3.549,0-7.533-0.805-11.949-2.41l1.713-7.267c3.4,1.105,6.24,1.656,8.525,1.656
				c5.086,0,7.631-2.861,7.631-8.584v-50.682h9.457v50.229c0,5.472-1.354,9.683-4.059,12.633
				C314.625,218.736,310.854,220.213,306.014,220.213"/>
			<g>
				<polygon style="fill:#71767C;" points="197.75,150.678 197.12,150.678 170.581,150.678 167.631,150.678 166.79,150.678 
					166.79,162.183 170.581,162.183 170.581,154.513 197.12,154.513 197.12,162.183 200.911,162.183 200.911,150.678 				"/>
				<rect x="174.372" y="158.347" style="fill:#71767C;" width="18.955" height="3.836"/>
				<polygon style="fill:#71767C;" points="169.948,208.201 170.581,208.201 197.12,208.201 200.069,208.201 200.911,208.201 
					200.911,196.694 197.12,196.694 197.12,204.365 170.581,204.365 170.581,196.694 166.79,196.694 166.79,208.201 				"/>
				<rect x="174.372" y="196.696" style="fill:#71767C;" width="18.955" height="3.834"/>
				<rect x="174.372" y="166.017" style="fill:#71767C;" width="3.789" height="26.845"/>
				<rect x="181.954" y="166.017" style="fill:#71767C;" width="3.791" height="26.845"/>
				<rect x="189.536" y="166.017" style="fill:#71767C;" width="3.791" height="26.845"/>
			</g>
		</g>
	</g>
</g>
</svg>
